%TF.GenerationSoftware,KiCad,Pcbnew,10.0.3*%
%TF.CreationDate,2026-07-16T15:18:53-05:00*%
%TF.ProjectId,KiwiDrive,4b697769-4472-4697-9665-2e6b69636164,rev?*%
%TF.SameCoordinates,Original*%
%TF.FileFunction,Soldermask,Top*%
%TF.FilePolarity,Negative*%
%FSLAX46Y46*%
G04 Gerber Fmt 4.6, Leading zero omitted, Abs format (unit mm)*
G04 Created by KiCad (PCBNEW 10.0.3) date 2026-07-16 15:18:53*
%MOMM*%
%LPD*%
G01*
G04 APERTURE LIST*
G04 Aperture macros list*
%AMRoundRect*
0 Rectangle with rounded corners*
0 $1 Rounding radius*
0 $2 $3 $4 $5 $6 $7 $8 $9 X,Y pos of 4 corners*
0 Add a 4 corners polygon primitive as box body*
4,1,4,$2,$3,$4,$5,$6,$7,$8,$9,$2,$3,0*
0 Add four circle primitives for the rounded corners*
1,1,$1+$1,$2,$3*
1,1,$1+$1,$4,$5*
1,1,$1+$1,$6,$7*
1,1,$1+$1,$8,$9*
0 Add four rect primitives between the rounded corners*
20,1,$1+$1,$2,$3,$4,$5,0*
20,1,$1+$1,$4,$5,$6,$7,0*
20,1,$1+$1,$6,$7,$8,$9,0*
20,1,$1+$1,$8,$9,$2,$3,0*%
G04 Aperture macros list end*
%ADD10C,2.500000*%
%ADD11C,2.100000*%
%ADD12R,1.700000X1.700000*%
%ADD13C,1.700000*%
%ADD14C,3.000000*%
%ADD15RoundRect,0.102000X1.000000X1.000000X-1.000000X1.000000X-1.000000X-1.000000X1.000000X-1.000000X0*%
%ADD16C,2.204000*%
%ADD17C,2.184000*%
%ADD18C,1.400000*%
%ADD19RoundRect,0.770000X0.980000X-0.980000X0.980000X0.980000X-0.980000X0.980000X-0.980000X-0.980000X0*%
%ADD20C,3.500000*%
G04 APERTURE END LIST*
D10*
%TO.C,DCmotorWithEncoder1*%
X86393802Y-125464806D03*
X88393802Y-128928908D03*
X90393802Y-132393009D03*
X92393802Y-135857111D03*
X94393802Y-139321212D03*
X96393802Y-142785314D03*
%TD*%
D11*
%TO.C,REF\u002A\u002A*%
X132000000Y-110000000D03*
%TD*%
D12*
%TO.C,J2*%
X170000000Y-80640000D03*
D13*
X170000000Y-83180000D03*
X170000000Y-85720000D03*
X170000000Y-88260000D03*
X170000000Y-90800000D03*
X170000000Y-93340000D03*
X170000000Y-95880000D03*
X170000000Y-98420000D03*
X170000000Y-100960000D03*
X170000000Y-103500000D03*
%TD*%
D12*
%TO.C,J4*%
X175000000Y-89190000D03*
D13*
X175000000Y-91730000D03*
X175000000Y-94270000D03*
X175000000Y-96810000D03*
%TD*%
D14*
%TO.C,U5*%
X162780000Y-123475000D03*
X162780000Y-76525000D03*
X138270000Y-123475000D03*
X138270000Y-76525000D03*
D15*
X163200000Y-115515000D03*
D16*
X163200000Y-112975000D03*
X163200000Y-110435000D03*
X163200000Y-107895000D03*
X163200000Y-105355000D03*
X163200000Y-102815000D03*
X163200000Y-100275000D03*
X163200000Y-97735000D03*
X163200000Y-95195000D03*
X163200000Y-92655000D03*
X163200000Y-90115000D03*
X163200000Y-87575000D03*
X163200000Y-85035000D03*
X163200000Y-82495000D03*
X163200000Y-79955000D03*
X137800000Y-79955000D03*
X137800000Y-82495000D03*
X137800000Y-85035000D03*
X137800000Y-87575000D03*
X137800000Y-90115000D03*
X137800000Y-92655000D03*
X137800000Y-95195000D03*
X137800000Y-97735000D03*
X137800000Y-100275000D03*
X137800000Y-102815000D03*
X137800000Y-105355000D03*
X137800000Y-107895000D03*
X137800000Y-110435000D03*
X137800000Y-112975000D03*
X137800000Y-115515000D03*
%TD*%
D11*
%TO.C,REF\u002A\u002A*%
X204500000Y-146500000D03*
%TD*%
%TO.C,REF\u002A\u002A*%
X166000000Y-28500000D03*
%TD*%
%TO.C,REF\u002A\u002A*%
X217500000Y-123000000D03*
%TD*%
%TO.C,REF\u002A\u002A*%
X82500000Y-123000000D03*
%TD*%
D10*
%TO.C,DCmotorWithEncoder2*%
X203523702Y-142160254D03*
X205523702Y-138696152D03*
X207523702Y-135232051D03*
X209523702Y-131767949D03*
X211523702Y-128303848D03*
X213523702Y-124839746D03*
%TD*%
D17*
%TO.C,U3*%
X142880000Y-51110000D03*
X142880000Y-53650000D03*
X142880000Y-56190000D03*
X142880000Y-58730000D03*
X142880000Y-61270000D03*
X142880000Y-63810000D03*
X142880000Y-66350000D03*
X142880000Y-68890000D03*
X158120000Y-68890000D03*
X158120000Y-66350000D03*
X158120000Y-63810000D03*
X158120000Y-61270000D03*
X158120000Y-58730000D03*
X158120000Y-56190000D03*
X158120000Y-53650000D03*
X158120000Y-51110000D03*
%TD*%
D11*
%TO.C,REF\u002A\u002A*%
X135000000Y-28500000D03*
%TD*%
%TO.C,REF\u002A\u002A*%
X131000000Y-70000000D03*
%TD*%
%TO.C,REF\u002A\u002A*%
X96500000Y-147000000D03*
%TD*%
%TO.C,REF\u002A\u002A*%
X181000000Y-102500000D03*
%TD*%
D17*
%TO.C,U2*%
X196649982Y-117845886D03*
X194450278Y-116575886D03*
X192250573Y-115305886D03*
X190050868Y-114035886D03*
X187851164Y-112765886D03*
X185651459Y-111495886D03*
X183451755Y-110225886D03*
X181252050Y-108955886D03*
X173632050Y-122154114D03*
X175831754Y-123424114D03*
X178031459Y-124694114D03*
X180231164Y-125964114D03*
X182430868Y-127234114D03*
X184630573Y-128504114D03*
X186830277Y-129774114D03*
X189029982Y-131044114D03*
%TD*%
D10*
%TO.C,DCmotorWithEncoder3*%
X160500000Y-31750000D03*
X156500000Y-31750000D03*
X152500000Y-31750000D03*
X148500000Y-31750000D03*
X144500000Y-31750000D03*
X140500000Y-31750000D03*
%TD*%
D18*
%TO.C,J1*%
X125500000Y-87500000D03*
X125500000Y-76500000D03*
D19*
X130500000Y-84500000D03*
D20*
X130500000Y-79500000D03*
%TD*%
D17*
%TO.C,U1*%
X111970053Y-131044174D03*
X114169758Y-129774174D03*
X116369462Y-128504174D03*
X118569167Y-127234174D03*
X120768871Y-125964174D03*
X122968576Y-124694174D03*
X125168280Y-123424174D03*
X127367985Y-122154174D03*
X119747985Y-108955946D03*
X117548280Y-110225946D03*
X115348576Y-111495946D03*
X113148871Y-112765946D03*
X110949167Y-114035946D03*
X108749462Y-115305946D03*
X106549758Y-116575946D03*
X104350053Y-117845946D03*
%TD*%
M02*
