M48
; DRILL file KiCad 10.0.3 date 2026-07-16T15:20:32
; FORMAT={-:-/ absolute / metric / decimal}
; #@! TF.CreationDate,2026-07-16T15:20:32-05:00
; #@! TF.GenerationSoftware,Kicad,Pcbnew,10.0.3
; #@! TF.FileFunction,Plated,1,2,PTH
FMAT,2
METRIC
; #@! TA.AperFunction,Plated,PTH,ViaDrill
T1C0.300
; #@! TA.AperFunction,Plated,PTH,ViaDrill
T2C0.400
; #@! TA.AperFunction,Plated,PTH,ComponentDrill
T3C1.000
; #@! TA.AperFunction,Plated,PTH,ComponentDrill
T4C1.020
; #@! TA.AperFunction,Plated,PTH,ComponentDrill
T5C1.320
; #@! TA.AperFunction,Plated,PTH,ComponentDrill
T6C1.900
%
G90
G05
T1
X121.0Y-102.5
X121.0Y-103.5
X121.0Y-104.5
X121.472Y-114.972
X121.5Y-110.5
X121.5Y-113.5
X124.1Y-111.0
X124.1Y-112.5
X133.5Y-104.5
X143.0Y-105.5
X143.0Y-108.0
X143.0Y-110.5
X145.5Y-54.5
X145.5Y-74.0
X148.5Y-50.0
X148.5Y-56.0
X149.5Y-63.0
X149.5Y-66.0
X151.0Y-106.5
X152.5Y-46.5
X152.5Y-58.0
X158.0Y-74.0
X160.5Y-97.0
X166.1Y-105.0
X166.6Y-90.034
X167.1Y-92.5
X169.0Y-78.5
X169.0Y-114.5
X169.0Y-117.0
X169.0Y-119.5
X172.0Y-120.1
X173.0Y-78.5
X173.5Y-118.0
X176.5Y-121.5
X178.216Y-120.248
X182.0Y-121.0
X192.0Y-119.5
T2
X111.0Y-123.5
X123.0Y-115.0
X138.0Y-55.5
T3
X86.394Y-125.465
X88.394Y-128.929
X90.394Y-132.393
X92.394Y-135.857
X94.394Y-139.321
X96.394Y-142.785
X125.5Y-76.5
X125.5Y-87.5
X140.5Y-31.75
X144.5Y-31.75
X148.5Y-31.75
X152.5Y-31.75
X156.5Y-31.75
X160.5Y-31.75
X170.0Y-80.64
X170.0Y-83.18
X170.0Y-85.72
X170.0Y-88.26
X170.0Y-90.8
X170.0Y-93.34
X170.0Y-95.88
X170.0Y-98.42
X170.0Y-100.96
X170.0Y-103.5
X175.0Y-89.19
X175.0Y-91.73
X175.0Y-94.27
X175.0Y-96.81
X203.524Y-142.16
X205.524Y-138.696
X207.524Y-135.232
X209.524Y-131.768
X211.524Y-128.304
X213.524Y-124.84
T4
X137.8Y-79.955
X137.8Y-82.495
X137.8Y-85.035
X137.8Y-87.575
X137.8Y-90.115
X137.8Y-92.655
X137.8Y-95.195
X137.8Y-97.735
X137.8Y-100.275
X137.8Y-102.815
X137.8Y-105.355
X137.8Y-107.895
X137.8Y-110.435
X137.8Y-112.975
X137.8Y-115.515
X163.2Y-79.955
X163.2Y-82.495
X163.2Y-85.035
X163.2Y-87.575
X163.2Y-90.115
X163.2Y-92.655
X163.2Y-95.195
X163.2Y-97.735
X163.2Y-100.275
X163.2Y-102.815
X163.2Y-105.355
X163.2Y-107.895
X163.2Y-110.435
X163.2Y-112.975
X163.2Y-115.515
T5
X104.35Y-117.846
X106.55Y-116.576
X108.749Y-115.306
X110.949Y-114.036
X111.97Y-131.044
X113.149Y-112.766
X114.17Y-129.774
X115.349Y-111.496
X116.369Y-128.504
X117.548Y-110.226
X118.569Y-127.234
X119.748Y-108.956
X120.769Y-125.964
X122.969Y-124.694
X125.168Y-123.424
X127.368Y-122.154
X142.88Y-51.11
X142.88Y-53.65
X142.88Y-56.19
X142.88Y-58.73
X142.88Y-61.27
X142.88Y-63.81
X142.88Y-66.35
X142.88Y-68.89
X158.12Y-51.11
X158.12Y-53.65
X158.12Y-56.19
X158.12Y-58.73
X158.12Y-61.27
X158.12Y-63.81
X158.12Y-66.35
X158.12Y-68.89
X173.632Y-122.154
X175.832Y-123.424
X178.031Y-124.694
X180.231Y-125.964
X181.252Y-108.956
X182.431Y-127.234
X183.452Y-110.226
X184.631Y-128.504
X185.651Y-111.496
X186.83Y-129.774
X187.851Y-112.766
X189.03Y-131.044
X190.051Y-114.036
X192.251Y-115.306
X194.45Y-116.576
X196.65Y-117.846
T6
X130.5Y-79.5
X130.5Y-84.5
M30
