ISO-10303-21;
HEADER;
/* Generated by software containing ST-Developer
 * from STEP Tools, Inc. (www.steptools.com) 
 */

FILE_DESCRIPTION(
/* description */ (''),
/* implementation_level */ '2;1');

FILE_NAME(
/* name */ '2020_Aluminum_Extrusion_Mounting_Spacer.step',
/* time_stamp */ '2026-08-29T22:42:27-05:00',
/* author */ (''),
/* organization */ (''),
/* preprocessor_version */ 'ST-DEVELOPER v20.1',
/* originating_system */ 'Autodesk Translation Framework v15.8.0.0',
/* authorisation */ '');

FILE_SCHEMA (('AUTOMOTIVE_DESIGN { 1 0 10303 214 3 1 1 }'));
ENDSEC;

DATA;
#10=MECHANICAL_DESIGN_GEOMETRIC_PRESENTATION_REPRESENTATION('',(#13),#459);
#11=SHAPE_REPRESENTATION_RELATIONSHIP('SRR','None',#466,#12);
#12=ADVANCED_BREP_SHAPE_REPRESENTATION('',(#14),#458);
#13=STYLED_ITEM('',(#475),#14);
#14=MANIFOLD_SOLID_BREP('Body1',#263);
#15=CYLINDRICAL_SURFACE('',#285,0.270091641188157);
#16=CYLINDRICAL_SURFACE('',#288,0.799999999999985);
#17=CYLINDRICAL_SURFACE('',#291,0.800000000000027);
#18=CYLINDRICAL_SURFACE('',#294,2.49999999999999);
#19=CYLINDRICAL_SURFACE('',#297,2.5);
#20=CYLINDRICAL_SURFACE('',#300,0.270091641188156);
#21=FACE_OUTER_BOUND('',#35,.T.);
#22=FACE_OUTER_BOUND('',#36,.T.);
#23=FACE_OUTER_BOUND('',#37,.T.);
#24=FACE_OUTER_BOUND('',#38,.T.);
#25=FACE_OUTER_BOUND('',#39,.T.);
#26=FACE_OUTER_BOUND('',#40,.T.);
#27=FACE_OUTER_BOUND('',#41,.T.);
#28=FACE_OUTER_BOUND('',#42,.T.);
#29=FACE_OUTER_BOUND('',#43,.T.);
#30=FACE_OUTER_BOUND('',#44,.T.);
#31=FACE_OUTER_BOUND('',#45,.T.);
#32=FACE_OUTER_BOUND('',#46,.T.);
#33=FACE_OUTER_BOUND('',#47,.T.);
#34=FACE_OUTER_BOUND('',#48,.T.);
#35=EDGE_LOOP('',(#169,#170,#171,#172,#173,#174,#175,#176,#177,#178,#179,
#180));
#36=EDGE_LOOP('',(#181,#182,#183,#184));
#37=EDGE_LOOP('',(#185,#186,#187,#188));
#38=EDGE_LOOP('',(#189,#190,#191,#192));
#39=EDGE_LOOP('',(#193,#194,#195,#196));
#40=EDGE_LOOP('',(#197,#198,#199,#200));
#41=EDGE_LOOP('',(#201,#202,#203,#204));
#42=EDGE_LOOP('',(#205,#206,#207,#208));
#43=EDGE_LOOP('',(#209,#210,#211,#212));
#44=EDGE_LOOP('',(#213,#214,#215,#216));
#45=EDGE_LOOP('',(#217,#218,#219,#220));
#46=EDGE_LOOP('',(#221,#222,#223,#224));
#47=EDGE_LOOP('',(#225,#226,#227,#228));
#48=EDGE_LOOP('',(#229,#230,#231,#232,#233,#234,#235,#236,#237,#238,#239,
#240));
#49=LINE('',#387,#73);
#50=LINE('',#391,#74);
#51=LINE('',#395,#75);
#52=LINE('',#399,#76);
#53=LINE('',#403,#77);
#54=LINE('',#406,#78);
#55=LINE('',#409,#79);
#56=LINE('',#411,#80);
#57=LINE('',#412,#81);
#58=LINE('',#415,#82);
#59=LINE('',#419,#83);
#60=LINE('',#420,#84);
#61=LINE('',#423,#85);
#62=LINE('',#427,#86);
#63=LINE('',#428,#87);
#64=LINE('',#431,#88);
#65=LINE('',#435,#89);
#66=LINE('',#437,#90);
#67=LINE('',#438,#91);
#68=LINE('',#441,#92);
#69=LINE('',#445,#93);
#70=LINE('',#446,#94);
#71=LINE('',#451,#95);
#72=LINE('',#452,#96);
#73=VECTOR('',#309,10.);
#74=VECTOR('',#312,10.);
#75=VECTOR('',#315,10.);
#76=VECTOR('',#318,10.);
#77=VECTOR('',#321,10.);
#78=VECTOR('',#324,10.);
#79=VECTOR('',#327,10.);
#80=VECTOR('',#328,10.);
#81=VECTOR('',#329,10.);
#82=VECTOR('',#332,10.);
#83=VECTOR('',#337,10.);
#84=VECTOR('',#338,10.);
#85=VECTOR('',#341,10.);
#86=VECTOR('',#346,10.);
#87=VECTOR('',#347,10.);
#88=VECTOR('',#350,10.);
#89=VECTOR('',#355,10.);
#90=VECTOR('',#356,10.);
#91=VECTOR('',#357,10.);
#92=VECTOR('',#360,10.);
#93=VECTOR('',#365,10.);
#94=VECTOR('',#366,10.);
#95=VECTOR('',#373,10.);
#96=VECTOR('',#374,10.);
#97=CIRCLE('',#278,0.270091641188156);
#98=CIRCLE('',#279,0.800000000000027);
#99=CIRCLE('',#280,0.799999999999985);
#100=CIRCLE('',#281,0.270091641188157);
#101=CIRCLE('',#282,2.5);
#102=CIRCLE('',#283,2.49999999999999);
#103=CIRCLE('',#286,0.270091641188157);
#104=CIRCLE('',#289,0.799999999999985);
#105=CIRCLE('',#292,0.800000000000027);
#106=CIRCLE('',#295,2.49999999999999);
#107=CIRCLE('',#298,2.5);
#108=CIRCLE('',#301,0.270091641188156);
#109=VERTEX_POINT('',#383);
#110=VERTEX_POINT('',#384);
#111=VERTEX_POINT('',#386);
#112=VERTEX_POINT('',#388);
#113=VERTEX_POINT('',#390);
#114=VERTEX_POINT('',#392);
#115=VERTEX_POINT('',#394);
#116=VERTEX_POINT('',#396);
#117=VERTEX_POINT('',#398);
#118=VERTEX_POINT('',#400);
#119=VERTEX_POINT('',#402);
#120=VERTEX_POINT('',#404);
#121=VERTEX_POINT('',#408);
#122=VERTEX_POINT('',#410);
#123=VERTEX_POINT('',#414);
#124=VERTEX_POINT('',#418);
#125=VERTEX_POINT('',#422);
#126=VERTEX_POINT('',#426);
#127=VERTEX_POINT('',#430);
#128=VERTEX_POINT('',#434);
#129=VERTEX_POINT('',#436);
#130=VERTEX_POINT('',#440);
#131=VERTEX_POINT('',#444);
#132=VERTEX_POINT('',#450);
#133=EDGE_CURVE('',#109,#110,#97,.T.);
#134=EDGE_CURVE('',#111,#109,#49,.T.);
#135=EDGE_CURVE('',#112,#111,#98,.T.);
#136=EDGE_CURVE('',#113,#112,#50,.T.);
#137=EDGE_CURVE('',#114,#113,#99,.T.);
#138=EDGE_CURVE('',#115,#114,#51,.T.);
#139=EDGE_CURVE('',#116,#115,#100,.T.);
#140=EDGE_CURVE('',#117,#116,#52,.T.);
#141=EDGE_CURVE('',#118,#117,#101,.T.);
#142=EDGE_CURVE('',#119,#118,#53,.T.);
#143=EDGE_CURVE('',#120,#119,#102,.T.);
#144=EDGE_CURVE('',#110,#120,#54,.T.);
#145=EDGE_CURVE('',#121,#116,#55,.T.);
#146=EDGE_CURVE('',#121,#122,#56,.T.);
#147=EDGE_CURVE('',#122,#117,#57,.T.);
#148=EDGE_CURVE('',#123,#115,#58,.T.);
#149=EDGE_CURVE('',#121,#123,#103,.T.);
#150=EDGE_CURVE('',#124,#114,#59,.T.);
#151=EDGE_CURVE('',#124,#123,#60,.T.);
#152=EDGE_CURVE('',#125,#113,#61,.T.);
#153=EDGE_CURVE('',#125,#124,#104,.T.);
#154=EDGE_CURVE('',#126,#112,#62,.T.);
#155=EDGE_CURVE('',#126,#125,#63,.T.);
#156=EDGE_CURVE('',#127,#111,#64,.T.);
#157=EDGE_CURVE('',#127,#126,#105,.T.);
#158=EDGE_CURVE('',#128,#120,#65,.T.);
#159=EDGE_CURVE('',#128,#129,#66,.T.);
#160=EDGE_CURVE('',#129,#110,#67,.T.);
#161=EDGE_CURVE('',#130,#119,#68,.T.);
#162=EDGE_CURVE('',#128,#130,#106,.T.);
#163=EDGE_CURVE('',#131,#118,#69,.T.);
#164=EDGE_CURVE('',#131,#130,#70,.T.);
#165=EDGE_CURVE('',#131,#122,#107,.T.);
#166=EDGE_CURVE('',#132,#109,#71,.T.);
#167=EDGE_CURVE('',#132,#127,#72,.T.);
#168=EDGE_CURVE('',#132,#129,#108,.T.);
#169=ORIENTED_EDGE('',*,*,#133,.F.);
#170=ORIENTED_EDGE('',*,*,#134,.F.);
#171=ORIENTED_EDGE('',*,*,#135,.F.);
#172=ORIENTED_EDGE('',*,*,#136,.F.);
#173=ORIENTED_EDGE('',*,*,#137,.F.);
#174=ORIENTED_EDGE('',*,*,#138,.F.);
#175=ORIENTED_EDGE('',*,*,#139,.F.);
#176=ORIENTED_EDGE('',*,*,#140,.F.);
#177=ORIENTED_EDGE('',*,*,#141,.F.);
#178=ORIENTED_EDGE('',*,*,#142,.F.);
#179=ORIENTED_EDGE('',*,*,#143,.F.);
#180=ORIENTED_EDGE('',*,*,#144,.F.);
#181=ORIENTED_EDGE('',*,*,#140,.T.);
#182=ORIENTED_EDGE('',*,*,#145,.F.);
#183=ORIENTED_EDGE('',*,*,#146,.T.);
#184=ORIENTED_EDGE('',*,*,#147,.T.);
#185=ORIENTED_EDGE('',*,*,#139,.T.);
#186=ORIENTED_EDGE('',*,*,#148,.F.);
#187=ORIENTED_EDGE('',*,*,#149,.F.);
#188=ORIENTED_EDGE('',*,*,#145,.T.);
#189=ORIENTED_EDGE('',*,*,#138,.T.);
#190=ORIENTED_EDGE('',*,*,#150,.F.);
#191=ORIENTED_EDGE('',*,*,#151,.T.);
#192=ORIENTED_EDGE('',*,*,#148,.T.);
#193=ORIENTED_EDGE('',*,*,#137,.T.);
#194=ORIENTED_EDGE('',*,*,#152,.F.);
#195=ORIENTED_EDGE('',*,*,#153,.T.);
#196=ORIENTED_EDGE('',*,*,#150,.T.);
#197=ORIENTED_EDGE('',*,*,#136,.T.);
#198=ORIENTED_EDGE('',*,*,#154,.F.);
#199=ORIENTED_EDGE('',*,*,#155,.T.);
#200=ORIENTED_EDGE('',*,*,#152,.T.);
#201=ORIENTED_EDGE('',*,*,#135,.T.);
#202=ORIENTED_EDGE('',*,*,#156,.F.);
#203=ORIENTED_EDGE('',*,*,#157,.T.);
#204=ORIENTED_EDGE('',*,*,#154,.T.);
#205=ORIENTED_EDGE('',*,*,#144,.T.);
#206=ORIENTED_EDGE('',*,*,#158,.F.);
#207=ORIENTED_EDGE('',*,*,#159,.T.);
#208=ORIENTED_EDGE('',*,*,#160,.T.);
#209=ORIENTED_EDGE('',*,*,#143,.T.);
#210=ORIENTED_EDGE('',*,*,#161,.F.);
#211=ORIENTED_EDGE('',*,*,#162,.F.);
#212=ORIENTED_EDGE('',*,*,#158,.T.);
#213=ORIENTED_EDGE('',*,*,#142,.T.);
#214=ORIENTED_EDGE('',*,*,#163,.F.);
#215=ORIENTED_EDGE('',*,*,#164,.T.);
#216=ORIENTED_EDGE('',*,*,#161,.T.);
#217=ORIENTED_EDGE('',*,*,#141,.T.);
#218=ORIENTED_EDGE('',*,*,#147,.F.);
#219=ORIENTED_EDGE('',*,*,#165,.F.);
#220=ORIENTED_EDGE('',*,*,#163,.T.);
#221=ORIENTED_EDGE('',*,*,#134,.T.);
#222=ORIENTED_EDGE('',*,*,#166,.F.);
#223=ORIENTED_EDGE('',*,*,#167,.T.);
#224=ORIENTED_EDGE('',*,*,#156,.T.);
#225=ORIENTED_EDGE('',*,*,#133,.T.);
#226=ORIENTED_EDGE('',*,*,#160,.F.);
#227=ORIENTED_EDGE('',*,*,#168,.F.);
#228=ORIENTED_EDGE('',*,*,#166,.T.);
#229=ORIENTED_EDGE('',*,*,#168,.T.);
#230=ORIENTED_EDGE('',*,*,#159,.F.);
#231=ORIENTED_EDGE('',*,*,#162,.T.);
#232=ORIENTED_EDGE('',*,*,#164,.F.);
#233=ORIENTED_EDGE('',*,*,#165,.T.);
#234=ORIENTED_EDGE('',*,*,#146,.F.);
#235=ORIENTED_EDGE('',*,*,#149,.T.);
#236=ORIENTED_EDGE('',*,*,#151,.F.);
#237=ORIENTED_EDGE('',*,*,#153,.F.);
#238=ORIENTED_EDGE('',*,*,#155,.F.);
#239=ORIENTED_EDGE('',*,*,#157,.F.);
#240=ORIENTED_EDGE('',*,*,#167,.F.);
#241=PLANE('',#277);
#242=PLANE('',#284);
#243=PLANE('',#287);
#244=PLANE('',#290);
#245=PLANE('',#293);
#246=PLANE('',#296);
#247=PLANE('',#299);
#248=PLANE('',#302);
#249=ADVANCED_FACE('',(#21),#241,.F.);
#250=ADVANCED_FACE('',(#22),#242,.T.);
#251=ADVANCED_FACE('',(#23),#15,.T.);
#252=ADVANCED_FACE('',(#24),#243,.T.);
#253=ADVANCED_FACE('',(#25),#16,.F.);
#254=ADVANCED_FACE('',(#26),#244,.T.);
#255=ADVANCED_FACE('',(#27),#17,.F.);
#256=ADVANCED_FACE('',(#28),#245,.T.);
#257=ADVANCED_FACE('',(#29),#18,.T.);
#258=ADVANCED_FACE('',(#30),#246,.T.);
#259=ADVANCED_FACE('',(#31),#19,.T.);
#260=ADVANCED_FACE('',(#32),#247,.T.);
#261=ADVANCED_FACE('',(#33),#20,.T.);
#262=ADVANCED_FACE('',(#34),#248,.T.);
#263=CLOSED_SHELL('',(#249,#250,#251,#252,#253,#254,#255,#256,#257,#258,
#259,#260,#261,#262));
#264=DERIVED_UNIT_ELEMENT(#266,1.);
#265=DERIVED_UNIT_ELEMENT(#461,-3.);
#266=(
MASS_UNIT()
NAMED_UNIT(*)
SI_UNIT(.KILO.,.GRAM.)
);
#267=DERIVED_UNIT((#264,#265));
#268=MEASURE_REPRESENTATION_ITEM('density measure',
POSITIVE_RATIO_MEASURE(7850.),#267);
#269=PROPERTY_DEFINITION_REPRESENTATION(#274,#271);
#270=PROPERTY_DEFINITION_REPRESENTATION(#275,#272);
#271=REPRESENTATION('material name',(#273),#458);
#272=REPRESENTATION('density',(#268),#458);
#273=DESCRIPTIVE_REPRESENTATION_ITEM('Steel','Steel');
#274=PROPERTY_DEFINITION('material property','material name',#468);
#275=PROPERTY_DEFINITION('material property','density of part',#468);
#276=AXIS2_PLACEMENT_3D('',#381,#303,#304);
#277=AXIS2_PLACEMENT_3D('',#382,#305,#306);
#278=AXIS2_PLACEMENT_3D('',#385,#307,#308);
#279=AXIS2_PLACEMENT_3D('',#389,#310,#311);
#280=AXIS2_PLACEMENT_3D('',#393,#313,#314);
#281=AXIS2_PLACEMENT_3D('',#397,#316,#317);
#282=AXIS2_PLACEMENT_3D('',#401,#319,#320);
#283=AXIS2_PLACEMENT_3D('',#405,#322,#323);
#284=AXIS2_PLACEMENT_3D('',#407,#325,#326);
#285=AXIS2_PLACEMENT_3D('',#413,#330,#331);
#286=AXIS2_PLACEMENT_3D('',#416,#333,#334);
#287=AXIS2_PLACEMENT_3D('',#417,#335,#336);
#288=AXIS2_PLACEMENT_3D('',#421,#339,#340);
#289=AXIS2_PLACEMENT_3D('',#424,#342,#343);
#290=AXIS2_PLACEMENT_3D('',#425,#344,#345);
#291=AXIS2_PLACEMENT_3D('',#429,#348,#349);
#292=AXIS2_PLACEMENT_3D('',#432,#351,#352);
#293=AXIS2_PLACEMENT_3D('',#433,#353,#354);
#294=AXIS2_PLACEMENT_3D('',#439,#358,#359);
#295=AXIS2_PLACEMENT_3D('',#442,#361,#362);
#296=AXIS2_PLACEMENT_3D('',#443,#363,#364);
#297=AXIS2_PLACEMENT_3D('',#447,#367,#368);
#298=AXIS2_PLACEMENT_3D('',#448,#369,#370);
#299=AXIS2_PLACEMENT_3D('',#449,#371,#372);
#300=AXIS2_PLACEMENT_3D('',#453,#375,#376);
#301=AXIS2_PLACEMENT_3D('',#454,#377,#378);
#302=AXIS2_PLACEMENT_3D('',#455,#379,#380);
#303=DIRECTION('axis',(0.,0.,1.));
#304=DIRECTION('refdir',(1.,0.,0.));
#305=DIRECTION('center_axis',(0.499999999999998,-0.86602540378444,1.26511341072946E-16));
#306=DIRECTION('ref_axis',(0.86602540378444,0.499999999999998,1.9706478901179E-32));
#307=DIRECTION('center_axis',(0.499999999999998,-0.86602540378444,1.26511341072946E-16));
#308=DIRECTION('ref_axis',(0.0302238507235254,0.0174497483511745,0.999390827019101));
#309=DIRECTION('',(-0.865497844507679,-0.499695413509546,0.0348994967024494));
#310=DIRECTION('center_axis',(-0.499999999999998,0.86602540378444,-1.26511341072946E-16));
#311=DIRECTION('ref_axis',(-0.0302238507235981,-0.0174497483512165,-0.999390827019098));
#312=DIRECTION('',(-0.86602540378444,-0.499999999999998,7.92939498088092E-15));
#313=DIRECTION('center_axis',(-0.499999999999998,0.86602540378444,-1.26511341072946E-16));
#314=DIRECTION('ref_axis',(-0.865497844507676,-0.499695413509545,-0.0348994967025388));
#315=DIRECTION('',(-0.86549784450768,-0.499695413509546,-0.0348994967024426));
#316=DIRECTION('center_axis',(0.499999999999998,-0.86602540378444,1.26511341072946E-16));
#317=DIRECTION('ref_axis',(0.612372435695787,0.353553390593267,-0.707106781186558));
#318=DIRECTION('',(0.6123724356958,0.353553390593275,0.707106781186543));
#319=DIRECTION('center_axis',(0.499999999999998,-0.86602540378444,1.26511341072946E-16));
#320=DIRECTION('ref_axis',(6.21191338719715E-15,3.45150511635924E-15,-1.));
#321=DIRECTION('',(0.86602540378444,0.499999999999998,-3.24834313710045E-14));
#322=DIRECTION('center_axis',(0.499999999999998,-0.86602540378444,1.26511341072946E-16));
#323=DIRECTION('ref_axis',(-0.612372435695789,-0.353553390593269,-0.707106781186554));
#324=DIRECTION('',(0.612372435695794,0.353553390593271,-0.707106781186549));
#325=DIRECTION('center_axis',(0.612372435695791,0.35355339059327,-0.707106781186552));
#326=DIRECTION('ref_axis',(-0.612372435695794,-0.353553390593284,-0.707106781186543));
#327=DIRECTION('',(-0.499999999999998,0.86602540378444,-1.1686558153949E-16));
#328=DIRECTION('',(-0.612372435695794,-0.353553390593284,-0.707106781186543));
#329=DIRECTION('',(-0.499999999999998,0.86602540378444,-1.1686558153949E-16));
#330=DIRECTION('center_axis',(-0.499999999999998,0.86602540378444,-1.1686558153949E-16));
#331=DIRECTION('ref_axis',(0.612372435695787,0.353553390593267,-0.707106781186558));
#332=DIRECTION('',(-0.499999999999998,0.86602540378444,-1.1686558153949E-16));
#333=DIRECTION('center_axis',(0.499999999999998,-0.86602540378444,3.0823969863858E-16));
#334=DIRECTION('ref_axis',(0.612372435695787,0.353553390593267,-0.707106781186558));
#335=DIRECTION('center_axis',(-0.0302238507236066,-0.0174497483512211,0.999390827019098));
#336=DIRECTION('ref_axis',(0.86549784450768,0.499695413509547,0.0348994967024426));
#337=DIRECTION('',(-0.499999999999998,0.86602540378444,-1.1686558153949E-16));
#338=DIRECTION('',(0.86549784450768,0.499695413509546,0.0348994967024425));
#339=DIRECTION('center_axis',(-0.499999999999998,0.86602540378444,-1.1686558153949E-16));
#340=DIRECTION('ref_axis',(-0.865497844507676,-0.499695413509545,-0.0348994967025388));
#341=DIRECTION('',(-0.499999999999998,0.86602540378444,-1.1686558153949E-16));
#342=DIRECTION('center_axis',(0.5000000000001,-0.866025403784381,4.26137863404346E-15));
#343=DIRECTION('ref_axis',(-0.865497844507617,-0.499695413509647,-0.0348994967025388));
#344=DIRECTION('center_axis',(6.80862469931396E-15,4.06590605288168E-15,
1.));
#345=DIRECTION('ref_axis',(0.86602540378444,0.499999999999998,-7.92939498088092E-15));
#346=DIRECTION('',(-0.499999999999998,0.86602540378444,-1.1686558153949E-16));
#347=DIRECTION('',(0.86602540378444,0.499999999999998,-7.92939498088092E-15));
#348=DIRECTION('center_axis',(-0.499999999999998,0.86602540378444,-1.1686558153949E-16));
#349=DIRECTION('ref_axis',(-0.0302238507235981,-0.0174497483512165,-0.999390827019098));
#350=DIRECTION('',(-0.499999999999998,0.86602540378444,-1.1686558153949E-16));
#351=DIRECTION('center_axis',(0.499999999999998,-0.86602540378444,6.41168193836463E-16));
#352=DIRECTION('ref_axis',(-0.0302238507235978,-0.0174497483512169,-0.999390827019098));
#353=DIRECTION('center_axis',(-0.612372435695797,-0.353553390593273,-0.707106781186546));
#354=DIRECTION('ref_axis',(-0.612372435695788,-0.353553390593281,0.707106781186549));
#355=DIRECTION('',(-0.499999999999998,0.86602540378444,-1.1686558153949E-16));
#356=DIRECTION('',(-0.612372435695788,-0.353553390593281,0.707106781186549));
#357=DIRECTION('',(-0.499999999999998,0.86602540378444,-1.1686558153949E-16));
#358=DIRECTION('center_axis',(-0.499999999999998,0.86602540378444,-1.1686558153949E-16));
#359=DIRECTION('ref_axis',(-0.612372435695789,-0.353553390593269,-0.707106781186554));
#360=DIRECTION('',(-0.499999999999998,0.86602540378444,-1.1686558153949E-16));
#361=DIRECTION('center_axis',(0.499999999999998,-0.86602540378444,1.09909433608708E-16));
#362=DIRECTION('ref_axis',(-0.61237243569579,-0.353553390593269,-0.707106781186554));
#363=DIRECTION('center_axis',(-2.80730439786086E-14,-1.63429242479434E-14,
-1.));
#364=DIRECTION('ref_axis',(-0.866025403784456,-0.49999999999997,3.24834313710045E-14));
#365=DIRECTION('',(-0.499999999999998,0.86602540378444,-1.1686558153949E-16));
#366=DIRECTION('',(-0.866025403784456,-0.49999999999997,3.24834313710045E-14));
#367=DIRECTION('center_axis',(-0.499999999999998,0.86602540378444,-1.1686558153949E-16));
#368=DIRECTION('ref_axis',(6.21191338719715E-15,3.45150511635924E-15,-1.));
#369=DIRECTION('center_axis',(0.499999999999998,-0.86602540378444,1.28444026144301E-16));
#370=DIRECTION('ref_axis',(6.21770260949955E-15,3.44147788919516E-15,-1.));
#371=DIRECTION('center_axis',(0.0302238507236124,0.0174497483512247,0.999390827019098));
#372=DIRECTION('ref_axis',(0.86549784450768,0.499695413509546,-0.0348994967024494));
#373=DIRECTION('',(-0.499999999999998,0.86602540378444,-1.1686558153949E-16));
#374=DIRECTION('',(0.865497844507679,0.499695413509546,-0.0348994967024494));
#375=DIRECTION('center_axis',(-0.499999999999998,0.86602540378444,-1.1686558153949E-16));
#376=DIRECTION('ref_axis',(0.0302238507235254,0.0174497483511745,0.999390827019101));
#377=DIRECTION('center_axis',(0.499999999999998,-0.86602540378444,1.26511341072946E-16));
#378=DIRECTION('ref_axis',(0.0302238507235254,0.0174497483511745,0.999390827019101));
#379=DIRECTION('center_axis',(0.499999999999998,-0.86602540378444,1.26511341072946E-16));
#380=DIRECTION('ref_axis',(0.86602540378444,0.499999999999998,1.23346204405644E-32));
#381=CARTESIAN_POINT('',(0.,0.,0.));
#382=CARTESIAN_POINT('Origin',(122.125000000001,48.2809162609825,5.84709428992231));
#383=CARTESIAN_POINT('',(117.820436062196,45.7956751127471,7.59402404731447));
#384=CARTESIAN_POINT('',(117.646876176576,45.6954702660636,7.13311330763054));
#385=CARTESIAN_POINT('Origin',(117.812272852751,45.7909620815766,7.32409693865649));
#386=CARTESIAN_POINT('',(119.65452931368,46.8545893452104,7.52006784766781));
#387=CARTESIAN_POINT('',(119.996479996008,47.0520146637018,7.50627935959009));
#388=CARTESIAN_POINT('',(119.97055743978,47.0370482688858,7.59402404731445));
#389=CARTESIAN_POINT('Origin',(119.678708394259,46.8685491438914,8.31958050928312));
#390=CARTESIAN_POINT('',(124.279442560221,49.5247842530791,7.59402404731441));
#391=CARTESIAN_POINT('',(121.04777871989,47.6589822649343,7.59402404731444));
#392=CARTESIAN_POINT('',(124.595470686321,49.7072431767545,7.52006784766779));
#393=CARTESIAN_POINT('Origin',(124.571291605742,49.6932833780735,8.31958050928305));
#394=CARTESIAN_POINT('',(126.429563937805,50.7661574092178,7.59402404731439));
#395=CARTESIAN_POINT('',(123.336473378251,48.9803607420316,7.46930125976671));
#396=CARTESIAN_POINT('',(126.603123823425,50.8663622559013,7.13311330763046));
#397=CARTESIAN_POINT('Origin',(126.43772714725,50.7708704403884,7.32409693865642));
#398=CARTESIAN_POINT('',(124.610503066682,49.7159221256029,4.83223304703359));
#399=CARTESIAN_POINT('',(125.205161582798,50.0592483799582,5.51888555574403));
#400=CARTESIAN_POINT('',(123.079571977443,48.8320386491197,4.09999999999996));
#401=CARTESIAN_POINT('Origin',(123.079571977443,48.8320386491197,6.59999999999997));
#402=CARTESIAN_POINT('',(121.170428022558,47.7297938728452,4.10000000000004));
#403=CARTESIAN_POINT('',(122.602285988722,48.5564774550512,4.09999999999999));
#404=CARTESIAN_POINT('',(119.639496933319,46.8459103963621,4.83223304703365));
#405=CARTESIAN_POINT('Origin',(121.170428022558,47.7297938728452,6.60000000000004));
#406=CARTESIAN_POINT('',(120.041148795575,47.0778042071562,4.36844542544558));
#407=CARTESIAN_POINT('Origin',(216.978123823425,-105.667729478136,7.13311330763048));
#408=CARTESIAN_POINT('',(216.978123823425,-105.667729478136,7.13311330763048));
#409=CARTESIAN_POINT('',(216.978123823425,-105.667729478136,7.13311330763048));
#410=CARTESIAN_POINT('',(214.985503066682,-106.818169608435,4.83223304703362));
#411=CARTESIAN_POINT('',(216.978123823425,-105.667729478136,7.13311330763048));
#412=CARTESIAN_POINT('',(214.985503066682,-106.818169608435,4.83223304703362));
#413=CARTESIAN_POINT('Origin',(216.81272714725,-105.763221293649,7.32409693865644));
#414=CARTESIAN_POINT('',(216.804563937805,-105.76793432482,7.59402404731441));
#415=CARTESIAN_POINT('',(216.804563937805,-105.76793432482,7.59402404731441));
#416=CARTESIAN_POINT('Origin',(216.81272714725,-105.763221293649,7.32409693865644));
#417=CARTESIAN_POINT('Origin',(214.97047068632,-106.826848557283,7.52006784766777));
#418=CARTESIAN_POINT('',(214.97047068632,-106.826848557283,7.52006784766781));
#419=CARTESIAN_POINT('',(214.97047068632,-106.826848557283,7.52006784766781));
#420=CARTESIAN_POINT('',(214.97047068632,-106.826848557283,7.52006784766777));
#421=CARTESIAN_POINT('Origin',(214.946291605741,-106.840808355964,8.31958050928307));
#422=CARTESIAN_POINT('',(214.65444256022,-107.009307480958,7.59402404731444));
#423=CARTESIAN_POINT('',(214.65444256022,-107.009307480958,7.59402404731444));
#424=CARTESIAN_POINT('Origin',(214.946291605741,-106.840808355964,8.31958050928307));
#425=CARTESIAN_POINT('Origin',(210.34555743978,-109.497043465152,7.59402404731447));
#426=CARTESIAN_POINT('',(210.34555743978,-109.497043465152,7.59402404731447));
#427=CARTESIAN_POINT('',(210.34555743978,-109.497043465152,7.59402404731447));
#428=CARTESIAN_POINT('',(208.195436062196,-110.73841662129,7.59402404731449));
#429=CARTESIAN_POINT('Origin',(210.053708394259,-109.665542590146,8.31958050928314));
#430=CARTESIAN_POINT('',(210.02952931368,-109.679502388827,7.52006784766784));
#431=CARTESIAN_POINT('',(210.02952931368,-109.679502388827,7.52006784766784));
#432=CARTESIAN_POINT('Origin',(210.053708394259,-109.665542590146,8.31958050928314));
#433=CARTESIAN_POINT('Origin',(210.014496933318,-109.688181337675,4.83223304703367));
#434=CARTESIAN_POINT('',(210.014496933318,-109.688181337675,4.83223304703367));
#435=CARTESIAN_POINT('',(210.014496933318,-109.688181337675,4.83223304703367));
#436=CARTESIAN_POINT('',(208.021876176575,-110.838621467974,7.13311330763057));
#437=CARTESIAN_POINT('',(210.014496933318,-109.688181337675,4.83223304703367));
#438=CARTESIAN_POINT('',(208.021876176575,-110.838621467974,7.13311330763057));
#439=CARTESIAN_POINT('Origin',(211.545428022558,-108.804297861192,6.60000000000006));
#440=CARTESIAN_POINT('',(211.545428022558,-108.804297861192,4.10000000000006));
#441=CARTESIAN_POINT('',(211.545428022558,-108.804297861192,4.10000000000006));
#442=CARTESIAN_POINT('Origin',(211.545428022558,-108.804297861192,6.60000000000006));
#443=CARTESIAN_POINT('Origin',(213.454571977443,-107.702053084918,4.09999999999999));
#444=CARTESIAN_POINT('',(213.454571977443,-107.702053084918,4.09999999999999));
#445=CARTESIAN_POINT('',(213.454571977443,-107.702053084918,4.09999999999999));
#446=CARTESIAN_POINT('',(213.454571977443,-107.702053084918,4.09999999999999));
#447=CARTESIAN_POINT('Origin',(213.454571977443,-107.702053084918,6.59999999999999));
#448=CARTESIAN_POINT('Origin',(213.454571977443,-107.702053084918,6.59999999999999));
#449=CARTESIAN_POINT('Origin',(208.195436062196,-110.73841662129,7.59402404731449));
#450=CARTESIAN_POINT('',(208.195436062196,-110.73841662129,7.59402404731449));
#451=CARTESIAN_POINT('',(208.195436062196,-110.73841662129,7.59402404731449));
#452=CARTESIAN_POINT('',(208.195436062196,-110.73841662129,7.59402404731449));
#453=CARTESIAN_POINT('Origin',(208.187272852751,-110.743129652461,7.32409693865652));
#454=CARTESIAN_POINT('Origin',(208.187272852751,-110.743129652461,7.32409693865652));
#455=CARTESIAN_POINT('Origin',(212.5,-108.253175473055,5.84709428992233));
#456=UNCERTAINTY_MEASURE_WITH_UNIT(LENGTH_MEASURE(0.01),#460,
'DISTANCE_ACCURACY_VALUE',
'Maximum model space distance between geometric entities at asserted c
onnectivities');
#457=UNCERTAINTY_MEASURE_WITH_UNIT(LENGTH_MEASURE(0.01),#460,
'DISTANCE_ACCURACY_VALUE',
'Maximum model space distance between geometric entities at asserted c
onnectivities');
#458=(
GEOMETRIC_REPRESENTATION_CONTEXT(3)
GLOBAL_UNCERTAINTY_ASSIGNED_CONTEXT((#456))
GLOBAL_UNIT_ASSIGNED_CONTEXT((#460,#462,#463))
REPRESENTATION_CONTEXT('','3D')
);
#459=(
GEOMETRIC_REPRESENTATION_CONTEXT(3)
GLOBAL_UNCERTAINTY_ASSIGNED_CONTEXT((#457))
GLOBAL_UNIT_ASSIGNED_CONTEXT((#460,#462,#463))
REPRESENTATION_CONTEXT('','3D')
);
#460=(
LENGTH_UNIT()
NAMED_UNIT(*)
SI_UNIT(.MILLI.,.METRE.)
);
#461=(
LENGTH_UNIT()
NAMED_UNIT(*)
SI_UNIT($,.METRE.)
);
#462=(
NAMED_UNIT(*)
PLANE_ANGLE_UNIT()
SI_UNIT($,.RADIAN.)
);
#463=(
NAMED_UNIT(*)
SI_UNIT($,.STERADIAN.)
SOLID_ANGLE_UNIT()
);
#464=SHAPE_DEFINITION_REPRESENTATION(#465,#466);
#465=PRODUCT_DEFINITION_SHAPE('',$,#468);
#466=SHAPE_REPRESENTATION('',(#276),#458);
#467=PRODUCT_DEFINITION_CONTEXT('part definition',#472,'design');
#468=PRODUCT_DEFINITION('2026-08-29-22-42-27-926',
'2020_Aluminum_Extrusion_Mounting_Spacer',#469,#467);
#469=PRODUCT_DEFINITION_FORMATION('',$,#474);
#470=PRODUCT_RELATED_PRODUCT_CATEGORY(
'2020_Aluminum_Extrusion_Mounting_Spacer',
'2020_Aluminum_Extrusion_Mounting_Spacer',(#474));
#471=APPLICATION_PROTOCOL_DEFINITION('international standard',
'automotive_design',2009,#472);
#472=APPLICATION_CONTEXT(
'Core Data for Automotive Mechanical Design Process');
#473=PRODUCT_CONTEXT('part definition',#472,'mechanical');
#474=PRODUCT('2026-08-29-22-42-27-926',
'2020_Aluminum_Extrusion_Mounting_Spacer',$,(#473));
#475=PRESENTATION_STYLE_ASSIGNMENT((#476));
#476=SURFACE_STYLE_USAGE(.BOTH.,#477);
#477=SURFACE_SIDE_STYLE('',(#478));
#478=SURFACE_STYLE_FILL_AREA(#479);
#479=FILL_AREA_STYLE('Steel - Satin',(#480));
#480=FILL_AREA_STYLE_COLOUR('Steel - Satin',#481);
#481=COLOUR_RGB('Steel - Satin',0.627450980392157,0.627450980392157,0.627450980392157);
ENDSEC;
END-ISO-10303-21;
