ISO-10303-21;
HEADER;
/* Generated by software containing ST-Developer
 * from STEP Tools, Inc. (www.steptools.com) 
 */

FILE_DESCRIPTION(
/* description */ (''),
/* implementation_level */ '2;1');

FILE_NAME(
/* name */ 'Battery_Mount_Assembly.step',
/* time_stamp */ '2026-08-29T22:54:59-05:00',
/* author */ (''),
/* organization */ (''),
/* preprocessor_version */ 'ST-DEVELOPER v20.1',
/* originating_system */ 'Autodesk Translation Framework v15.8.0.0',
/* authorisation */ '');

FILE_SCHEMA (('AUTOMOTIVE_DESIGN { 1 0 10303 214 3 1 1 }'));
ENDSEC;

DATA;
#10=MECHANICAL_DESIGN_GEOMETRIC_PRESENTATION_REPRESENTATION('',(#23,#24),
#1915);
#11=ITEM_DEFINED_TRANSFORMATION($,$,#1137,#1251);
#12=ITEM_DEFINED_TRANSFORMATION($,$,#1194,#1252);
#13=(
REPRESENTATION_RELATIONSHIP($,$,#1929,#1928)
REPRESENTATION_RELATIONSHIP_WITH_TRANSFORMATION(#11)
SHAPE_REPRESENTATION_RELATIONSHIP()
);
#14=(
REPRESENTATION_RELATIONSHIP($,$,#1930,#1928)
REPRESENTATION_RELATIONSHIP_WITH_TRANSFORMATION(#12)
SHAPE_REPRESENTATION_RELATIONSHIP()
);
#15=CONTEXT_DEPENDENT_SHAPE_REPRESENTATION(#13,#1926);
#16=CONTEXT_DEPENDENT_SHAPE_REPRESENTATION(#14,#1927);
#17=NEXT_ASSEMBLY_USAGE_OCCURRENCE('Battery_Mount_Front:1',
'Battery_Mount_Front:1','Battery_Mount_Front:1',#1932,#1933,
'Battery_Mount_Front:1');
#18=NEXT_ASSEMBLY_USAGE_OCCURRENCE('Battery_Mount_Back:1',
'Battery_Mount_Back:1','Battery_Mount_Back:1',#1932,#1934,
'Battery_Mount_Back:1');
#19=SHAPE_REPRESENTATION_RELATIONSHIP('SRR','None',#1929,#21);
#20=SHAPE_REPRESENTATION_RELATIONSHIP('SRR','None',#1930,#22);
#21=ADVANCED_BREP_SHAPE_REPRESENTATION('',(#25),#1913);
#22=ADVANCED_BREP_SHAPE_REPRESENTATION('',(#26),#1914);
#23=STYLED_ITEM('',(#1947),#25);
#24=STYLED_ITEM('',(#1947),#26);
#25=MANIFOLD_SOLID_BREP('Body1',#1111);
#26=MANIFOLD_SOLID_BREP('Body1',#1112);
#27=FACE_BOUND('',#130,.T.);
#28=FACE_BOUND('',#131,.T.);
#29=FACE_BOUND('',#136,.T.);
#30=FACE_BOUND('',#137,.T.);
#31=FACE_BOUND('',#140,.T.);
#32=FACE_BOUND('',#141,.T.);
#33=FACE_BOUND('',#160,.T.);
#34=FACE_BOUND('',#161,.T.);
#35=FACE_BOUND('',#165,.T.);
#36=FACE_BOUND('',#166,.T.);
#37=FACE_BOUND('',#167,.T.);
#38=FACE_BOUND('',#168,.T.);
#39=FACE_BOUND('',#172,.T.);
#40=FACE_BOUND('',#173,.T.);
#41=FACE_BOUND('',#181,.T.);
#42=FACE_BOUND('',#182,.T.);
#43=PLANE('',#1141);
#44=PLANE('',#1148);
#45=PLANE('',#1154);
#46=PLANE('',#1164);
#47=PLANE('',#1170);
#48=PLANE('',#1175);
#49=PLANE('',#1177);
#50=PLANE('',#1180);
#51=PLANE('',#1182);
#52=PLANE('',#1189);
#53=PLANE('',#1190);
#54=PLANE('',#1191);
#55=PLANE('',#1192);
#56=PLANE('',#1193);
#57=PLANE('',#1198);
#58=PLANE('',#1206);
#59=PLANE('',#1209);
#60=PLANE('',#1213);
#61=PLANE('',#1214);
#62=PLANE('',#1219);
#63=PLANE('',#1223);
#64=PLANE('',#1232);
#65=PLANE('',#1237);
#66=PLANE('',#1239);
#67=PLANE('',#1242);
#68=PLANE('',#1244);
#69=PLANE('',#1249);
#70=PLANE('',#1250);
#71=FACE_OUTER_BOUND('',#127,.T.);
#72=FACE_OUTER_BOUND('',#128,.T.);
#73=FACE_OUTER_BOUND('',#129,.T.);
#74=FACE_OUTER_BOUND('',#132,.T.);
#75=FACE_OUTER_BOUND('',#133,.T.);
#76=FACE_OUTER_BOUND('',#134,.T.);
#77=FACE_OUTER_BOUND('',#135,.T.);
#78=FACE_OUTER_BOUND('',#138,.T.);
#79=FACE_OUTER_BOUND('',#139,.T.);
#80=FACE_OUTER_BOUND('',#142,.T.);
#81=FACE_OUTER_BOUND('',#143,.T.);
#82=FACE_OUTER_BOUND('',#144,.T.);
#83=FACE_OUTER_BOUND('',#145,.T.);
#84=FACE_OUTER_BOUND('',#146,.T.);
#85=FACE_OUTER_BOUND('',#147,.T.);
#86=FACE_OUTER_BOUND('',#148,.T.);
#87=FACE_OUTER_BOUND('',#149,.T.);
#88=FACE_OUTER_BOUND('',#150,.T.);
#89=FACE_OUTER_BOUND('',#151,.T.);
#90=FACE_OUTER_BOUND('',#152,.T.);
#91=FACE_OUTER_BOUND('',#153,.T.);
#92=FACE_OUTER_BOUND('',#154,.T.);
#93=FACE_OUTER_BOUND('',#155,.T.);
#94=FACE_OUTER_BOUND('',#156,.T.);
#95=FACE_OUTER_BOUND('',#157,.T.);
#96=FACE_OUTER_BOUND('',#158,.T.);
#97=FACE_OUTER_BOUND('',#159,.T.);
#98=FACE_OUTER_BOUND('',#162,.T.);
#99=FACE_OUTER_BOUND('',#163,.T.);
#100=FACE_OUTER_BOUND('',#164,.T.);
#101=FACE_OUTER_BOUND('',#169,.T.);
#102=FACE_OUTER_BOUND('',#170,.T.);
#103=FACE_OUTER_BOUND('',#171,.T.);
#104=FACE_OUTER_BOUND('',#174,.T.);
#105=FACE_OUTER_BOUND('',#175,.T.);
#106=FACE_OUTER_BOUND('',#176,.T.);
#107=FACE_OUTER_BOUND('',#177,.T.);
#108=FACE_OUTER_BOUND('',#178,.T.);
#109=FACE_OUTER_BOUND('',#179,.T.);
#110=FACE_OUTER_BOUND('',#180,.T.);
#111=FACE_OUTER_BOUND('',#183,.T.);
#112=FACE_OUTER_BOUND('',#184,.T.);
#113=FACE_OUTER_BOUND('',#185,.T.);
#114=FACE_OUTER_BOUND('',#186,.T.);
#115=FACE_OUTER_BOUND('',#187,.T.);
#116=FACE_OUTER_BOUND('',#188,.T.);
#117=FACE_OUTER_BOUND('',#189,.T.);
#118=FACE_OUTER_BOUND('',#190,.T.);
#119=FACE_OUTER_BOUND('',#191,.T.);
#120=FACE_OUTER_BOUND('',#192,.T.);
#121=FACE_OUTER_BOUND('',#193,.T.);
#122=FACE_OUTER_BOUND('',#194,.T.);
#123=FACE_OUTER_BOUND('',#195,.T.);
#124=FACE_OUTER_BOUND('',#196,.T.);
#125=FACE_OUTER_BOUND('',#197,.T.);
#126=FACE_OUTER_BOUND('',#198,.T.);
#127=EDGE_LOOP('',(#715,#716,#717,#718));
#128=EDGE_LOOP('',(#719,#720,#721,#722,#723,#724,#725,#726,#727,#728,#729,
#730,#731,#732,#733,#734,#735,#736));
#129=EDGE_LOOP('',(#737,#738,#739,#740,#741,#742));
#130=EDGE_LOOP('',(#743));
#131=EDGE_LOOP('',(#744));
#132=EDGE_LOOP('',(#745,#746,#747,#748));
#133=EDGE_LOOP('',(#749,#750,#751,#752,#753,#754,#755,#756,#757,#758,#759,
#760,#761,#762,#763,#764,#765,#766));
#134=EDGE_LOOP('',(#767,#768,#769,#770));
#135=EDGE_LOOP('',(#771,#772,#773,#774,#775,#776));
#136=EDGE_LOOP('',(#777));
#137=EDGE_LOOP('',(#778));
#138=EDGE_LOOP('',(#779,#780,#781,#782));
#139=EDGE_LOOP('',(#783,#784,#785,#786,#787,#788));
#140=EDGE_LOOP('',(#789));
#141=EDGE_LOOP('',(#790));
#142=EDGE_LOOP('',(#791,#792,#793,#794));
#143=EDGE_LOOP('',(#795,#796,#797,#798));
#144=EDGE_LOOP('',(#799,#800,#801,#802));
#145=EDGE_LOOP('',(#803,#804,#805,#806));
#146=EDGE_LOOP('',(#807,#808,#809,#810));
#147=EDGE_LOOP('',(#811,#812,#813,#814));
#148=EDGE_LOOP('',(#815,#816,#817,#818));
#149=EDGE_LOOP('',(#819,#820,#821,#822));
#150=EDGE_LOOP('',(#823,#824,#825,#826));
#151=EDGE_LOOP('',(#827,#828,#829,#830));
#152=EDGE_LOOP('',(#831,#832,#833,#834));
#153=EDGE_LOOP('',(#835,#836,#837,#838));
#154=EDGE_LOOP('',(#839,#840,#841,#842));
#155=EDGE_LOOP('',(#843,#844,#845,#846));
#156=EDGE_LOOP('',(#847,#848,#849,#850));
#157=EDGE_LOOP('',(#851,#852,#853,#854));
#158=EDGE_LOOP('',(#855,#856,#857,#858));
#159=EDGE_LOOP('',(#859,#860,#861,#862,#863,#864));
#160=EDGE_LOOP('',(#865));
#161=EDGE_LOOP('',(#866));
#162=EDGE_LOOP('',(#867,#868,#869,#870));
#163=EDGE_LOOP('',(#871,#872,#873,#874));
#164=EDGE_LOOP('',(#875,#876,#877,#878,#879,#880,#881,#882,#883,#884,#885,
#886));
#165=EDGE_LOOP('',(#887));
#166=EDGE_LOOP('',(#888));
#167=EDGE_LOOP('',(#889));
#168=EDGE_LOOP('',(#890));
#169=EDGE_LOOP('',(#891,#892,#893,#894));
#170=EDGE_LOOP('',(#895,#896,#897,#898));
#171=EDGE_LOOP('',(#899,#900,#901,#902,#903,#904));
#172=EDGE_LOOP('',(#905));
#173=EDGE_LOOP('',(#906));
#174=EDGE_LOOP('',(#907,#908,#909,#910));
#175=EDGE_LOOP('',(#911,#912,#913,#914,#915,#916,#917,#918,#919,#920,#921,
#922));
#176=EDGE_LOOP('',(#923,#924,#925,#926,#927,#928));
#177=EDGE_LOOP('',(#929,#930,#931,#932));
#178=EDGE_LOOP('',(#933,#934,#935,#936,#937,#938,#939,#940,#941,#942,#943,
#944,#945,#946,#947,#948,#949,#950));
#179=EDGE_LOOP('',(#951,#952,#953,#954));
#180=EDGE_LOOP('',(#955,#956,#957,#958,#959,#960));
#181=EDGE_LOOP('',(#961));
#182=EDGE_LOOP('',(#962));
#183=EDGE_LOOP('',(#963,#964,#965,#966));
#184=EDGE_LOOP('',(#967,#968,#969,#970));
#185=EDGE_LOOP('',(#971,#972,#973,#974));
#186=EDGE_LOOP('',(#975,#976,#977,#978));
#187=EDGE_LOOP('',(#979,#980,#981,#982));
#188=EDGE_LOOP('',(#983,#984,#985,#986));
#189=EDGE_LOOP('',(#987,#988,#989,#990));
#190=EDGE_LOOP('',(#991,#992,#993,#994));
#191=EDGE_LOOP('',(#995,#996,#997,#998));
#192=EDGE_LOOP('',(#999,#1000,#1001,#1002));
#193=EDGE_LOOP('',(#1003,#1004,#1005,#1006));
#194=EDGE_LOOP('',(#1007,#1008,#1009,#1010));
#195=EDGE_LOOP('',(#1011,#1012,#1013,#1014));
#196=EDGE_LOOP('',(#1015,#1016,#1017,#1018));
#197=EDGE_LOOP('',(#1019,#1020,#1021,#1022));
#198=EDGE_LOOP('',(#1023,#1024,#1025,#1026));
#199=LINE('',#1594,#299);
#200=LINE('',#1597,#300);
#201=LINE('',#1600,#301);
#202=LINE('',#1602,#302);
#203=LINE('',#1606,#303);
#204=LINE('',#1610,#304);
#205=LINE('',#1612,#305);
#206=LINE('',#1614,#306);
#207=LINE('',#1616,#307);
#208=LINE('',#1620,#308);
#209=LINE('',#1624,#309);
#210=LINE('',#1628,#310);
#211=LINE('',#1631,#311);
#212=LINE('',#1634,#312);
#213=LINE('',#1638,#313);
#214=LINE('',#1639,#314);
#215=LINE('',#1648,#315);
#216=LINE('',#1649,#316);
#217=LINE('',#1652,#317);
#218=LINE('',#1656,#318);
#219=LINE('',#1660,#319);
#220=LINE('',#1664,#320);
#221=LINE('',#1668,#321);
#222=LINE('',#1670,#322);
#223=LINE('',#1672,#323);
#224=LINE('',#1674,#324);
#225=LINE('',#1678,#325);
#226=LINE('',#1681,#326);
#227=LINE('',#1687,#327);
#228=LINE('',#1690,#328);
#229=LINE('',#1692,#329);
#230=LINE('',#1700,#330);
#231=LINE('',#1702,#331);
#232=LINE('',#1703,#332);
#233=LINE('',#1709,#333);
#234=LINE('',#1711,#334);
#235=LINE('',#1712,#335);
#236=LINE('',#1714,#336);
#237=LINE('',#1716,#337);
#238=LINE('',#1718,#338);
#239=LINE('',#1720,#339);
#240=LINE('',#1722,#340);
#241=LINE('',#1723,#341);
#242=LINE('',#1726,#342);
#243=LINE('',#1727,#343);
#244=LINE('',#1730,#344);
#245=LINE('',#1734,#345);
#246=LINE('',#1736,#346);
#247=LINE('',#1740,#347);
#248=LINE('',#1745,#348);
#249=LINE('',#1753,#349);
#250=LINE('',#1756,#350);
#251=LINE('',#1759,#351);
#252=LINE('',#1763,#352);
#253=LINE('',#1765,#353);
#254=LINE('',#1767,#354);
#255=LINE('',#1769,#355);
#256=LINE('',#1771,#356);
#257=LINE('',#1775,#357);
#258=LINE('',#1778,#358);
#259=LINE('',#1789,#359);
#260=LINE('',#1790,#360);
#261=LINE('',#1795,#361);
#262=LINE('',#1796,#362);
#263=LINE('',#1799,#363);
#264=LINE('',#1803,#364);
#265=LINE('',#1805,#365);
#266=LINE('',#1806,#366);
#267=LINE('',#1812,#367);
#268=LINE('',#1817,#368);
#269=LINE('',#1821,#369);
#270=LINE('',#1825,#370);
#271=LINE('',#1828,#371);
#272=LINE('',#1831,#372);
#273=LINE('',#1833,#373);
#274=LINE('',#1837,#374);
#275=LINE('',#1840,#375);
#276=LINE('',#1843,#376);
#277=LINE('',#1847,#377);
#278=LINE('',#1850,#378);
#279=LINE('',#1852,#379);
#280=LINE('',#1854,#380);
#281=LINE('',#1858,#381);
#282=LINE('',#1862,#382);
#283=LINE('',#1866,#383);
#284=LINE('',#1871,#384);
#285=LINE('',#1877,#385);
#286=LINE('',#1879,#386);
#287=LINE('',#1881,#387);
#288=LINE('',#1883,#388);
#289=LINE('',#1885,#389);
#290=LINE('',#1887,#390);
#291=LINE('',#1889,#391);
#292=LINE('',#1890,#392);
#293=LINE('',#1893,#393);
#294=LINE('',#1894,#394);
#295=LINE('',#1897,#395);
#296=LINE('',#1899,#396);
#297=LINE('',#1901,#397);
#298=LINE('',#1903,#398);
#299=VECTOR('',#1261,10.);
#300=VECTOR('',#1264,10.);
#301=VECTOR('',#1267,10.);
#302=VECTOR('',#1268,10.);
#303=VECTOR('',#1271,10.);
#304=VECTOR('',#1274,10.);
#305=VECTOR('',#1275,10.);
#306=VECTOR('',#1276,10.);
#307=VECTOR('',#1277,10.);
#308=VECTOR('',#1280,10.);
#309=VECTOR('',#1283,10.);
#310=VECTOR('',#1286,10.);
#311=VECTOR('',#1289,10.);
#312=VECTOR('',#1292,10.);
#313=VECTOR('',#1295,10.);
#314=VECTOR('',#1296,10.);
#315=VECTOR('',#1305,10.);
#316=VECTOR('',#1306,10.);
#317=VECTOR('',#1309,10.);
#318=VECTOR('',#1312,10.);
#319=VECTOR('',#1315,10.);
#320=VECTOR('',#1318,10.);
#321=VECTOR('',#1321,10.);
#322=VECTOR('',#1322,10.);
#323=VECTOR('',#1323,10.);
#324=VECTOR('',#1324,10.);
#325=VECTOR('',#1327,10.);
#326=VECTOR('',#1330,10.);
#327=VECTOR('',#1337,10.);
#328=VECTOR('',#1340,10.);
#329=VECTOR('',#1343,10.);
#330=VECTOR('',#1352,10.);
#331=VECTOR('',#1355,10.);
#332=VECTOR('',#1356,10.);
#333=VECTOR('',#1363,10.);
#334=VECTOR('',#1366,10.);
#335=VECTOR('',#1367,10.);
#336=VECTOR('',#1370,10.);
#337=VECTOR('',#1373,10.);
#338=VECTOR('',#1376,10.);
#339=VECTOR('',#1379,10.);
#340=VECTOR('',#1382,10.);
#341=VECTOR('',#1383,10.);
#342=VECTOR('',#1388,10.);
#343=VECTOR('',#1389,10.);
#344=VECTOR('',#1394,1.6);
#345=VECTOR('',#1399,1.6);
#346=VECTOR('',#1402,1.6);
#347=VECTOR('',#1407,1.6);
#348=VECTOR('',#1416,10.);
#349=VECTOR('',#1425,10.);
#350=VECTOR('',#1428,10.);
#351=VECTOR('',#1431,10.);
#352=VECTOR('',#1434,10.);
#353=VECTOR('',#1435,10.);
#354=VECTOR('',#1436,10.);
#355=VECTOR('',#1437,10.);
#356=VECTOR('',#1438,10.);
#357=VECTOR('',#1441,10.);
#358=VECTOR('',#1444,10.);
#359=VECTOR('',#1455,10.);
#360=VECTOR('',#1456,10.);
#361=VECTOR('',#1461,10.);
#362=VECTOR('',#1462,10.);
#363=VECTOR('',#1465,10.);
#364=VECTOR('',#1468,10.);
#365=VECTOR('',#1469,10.);
#366=VECTOR('',#1470,10.);
#367=VECTOR('',#1477,10.);
#368=VECTOR('',#1482,10.);
#369=VECTOR('',#1485,10.);
#370=VECTOR('',#1488,10.);
#371=VECTOR('',#1491,10.);
#372=VECTOR('',#1494,10.);
#373=VECTOR('',#1495,10.);
#374=VECTOR('',#1498,10.);
#375=VECTOR('',#1503,10.);
#376=VECTOR('',#1506,10.);
#377=VECTOR('',#1509,10.);
#378=VECTOR('',#1512,10.);
#379=VECTOR('',#1513,10.);
#380=VECTOR('',#1514,10.);
#381=VECTOR('',#1517,10.);
#382=VECTOR('',#1520,10.);
#383=VECTOR('',#1523,10.);
#384=VECTOR('',#1532,10.);
#385=VECTOR('',#1539,10.);
#386=VECTOR('',#1542,10.);
#387=VECTOR('',#1545,10.);
#388=VECTOR('',#1548,10.);
#389=VECTOR('',#1551,10.);
#390=VECTOR('',#1554,10.);
#391=VECTOR('',#1557,10.);
#392=VECTOR('',#1558,10.);
#393=VECTOR('',#1563,10.);
#394=VECTOR('',#1564,10.);
#395=VECTOR('',#1569,1.6);
#396=VECTOR('',#1572,1.6);
#397=VECTOR('',#1575,1.6);
#398=VECTOR('',#1578,1.6);
#399=CIRCLE('',#1139,1.);
#400=CIRCLE('',#1140,1.);
#401=CIRCLE('',#1142,1.);
#402=CIRCLE('',#1143,1.);
#403=CIRCLE('',#1144,1.5);
#404=CIRCLE('',#1145,1.5);
#405=CIRCLE('',#1146,1.5);
#406=CIRCLE('',#1147,1.5);
#407=CIRCLE('',#1149,1.);
#408=CIRCLE('',#1150,1.6);
#409=CIRCLE('',#1151,1.6);
#410=CIRCLE('',#1153,1.);
#411=CIRCLE('',#1155,1.5);
#412=CIRCLE('',#1156,1.5);
#413=CIRCLE('',#1157,1.5);
#414=CIRCLE('',#1158,1.5);
#415=CIRCLE('',#1159,1.);
#416=CIRCLE('',#1160,1.);
#417=CIRCLE('',#1162,1.);
#418=CIRCLE('',#1163,1.);
#419=CIRCLE('',#1165,1.);
#420=CIRCLE('',#1166,1.6);
#421=CIRCLE('',#1167,1.6);
#422=CIRCLE('',#1169,1.);
#423=CIRCLE('',#1171,1.6);
#424=CIRCLE('',#1172,1.6);
#425=CIRCLE('',#1185,1.6);
#426=CIRCLE('',#1188,1.6);
#427=CIRCLE('',#1196,3.);
#428=CIRCLE('',#1197,3.);
#429=CIRCLE('',#1199,1.);
#430=CIRCLE('',#1200,1.);
#431=CIRCLE('',#1201,3.);
#432=CIRCLE('',#1202,1.6);
#433=CIRCLE('',#1203,1.6);
#434=CIRCLE('',#1204,1.6);
#435=CIRCLE('',#1205,1.6);
#436=CIRCLE('',#1208,3.);
#437=CIRCLE('',#1210,1.);
#438=CIRCLE('',#1211,1.6);
#439=CIRCLE('',#1212,1.6);
#440=CIRCLE('',#1215,1.5);
#441=CIRCLE('',#1216,1.5);
#442=CIRCLE('',#1217,1.5);
#443=CIRCLE('',#1218,1.5);
#444=CIRCLE('',#1220,1.);
#445=CIRCLE('',#1221,1.);
#446=CIRCLE('',#1224,1.);
#447=CIRCLE('',#1225,1.);
#448=CIRCLE('',#1226,1.5);
#449=CIRCLE('',#1227,1.5);
#450=CIRCLE('',#1228,1.5);
#451=CIRCLE('',#1229,1.5);
#452=CIRCLE('',#1231,1.);
#453=CIRCLE('',#1233,1.6);
#454=CIRCLE('',#1234,1.6);
#455=VERTEX_POINT('',#1590);
#456=VERTEX_POINT('',#1591);
#457=VERTEX_POINT('',#1593);
#458=VERTEX_POINT('',#1595);
#459=VERTEX_POINT('',#1599);
#460=VERTEX_POINT('',#1601);
#461=VERTEX_POINT('',#1603);
#462=VERTEX_POINT('',#1605);
#463=VERTEX_POINT('',#1607);
#464=VERTEX_POINT('',#1609);
#465=VERTEX_POINT('',#1611);
#466=VERTEX_POINT('',#1613);
#467=VERTEX_POINT('',#1615);
#468=VERTEX_POINT('',#1617);
#469=VERTEX_POINT('',#1619);
#470=VERTEX_POINT('',#1621);
#471=VERTEX_POINT('',#1623);
#472=VERTEX_POINT('',#1625);
#473=VERTEX_POINT('',#1627);
#474=VERTEX_POINT('',#1629);
#475=VERTEX_POINT('',#1633);
#476=VERTEX_POINT('',#1635);
#477=VERTEX_POINT('',#1637);
#478=VERTEX_POINT('',#1640);
#479=VERTEX_POINT('',#1642);
#480=VERTEX_POINT('',#1645);
#481=VERTEX_POINT('',#1646);
#482=VERTEX_POINT('',#1651);
#483=VERTEX_POINT('',#1653);
#484=VERTEX_POINT('',#1655);
#485=VERTEX_POINT('',#1657);
#486=VERTEX_POINT('',#1659);
#487=VERTEX_POINT('',#1661);
#488=VERTEX_POINT('',#1663);
#489=VERTEX_POINT('',#1665);
#490=VERTEX_POINT('',#1667);
#491=VERTEX_POINT('',#1669);
#492=VERTEX_POINT('',#1671);
#493=VERTEX_POINT('',#1673);
#494=VERTEX_POINT('',#1675);
#495=VERTEX_POINT('',#1677);
#496=VERTEX_POINT('',#1679);
#497=VERTEX_POINT('',#1683);
#498=VERTEX_POINT('',#1685);
#499=VERTEX_POINT('',#1689);
#500=VERTEX_POINT('',#1693);
#501=VERTEX_POINT('',#1695);
#502=VERTEX_POINT('',#1698);
#503=VERTEX_POINT('',#1704);
#504=VERTEX_POINT('',#1706);
#505=VERTEX_POINT('',#1732);
#506=VERTEX_POINT('',#1738);
#507=VERTEX_POINT('',#1749);
#508=VERTEX_POINT('',#1750);
#509=VERTEX_POINT('',#1752);
#510=VERTEX_POINT('',#1754);
#511=VERTEX_POINT('',#1758);
#512=VERTEX_POINT('',#1760);
#513=VERTEX_POINT('',#1762);
#514=VERTEX_POINT('',#1764);
#515=VERTEX_POINT('',#1766);
#516=VERTEX_POINT('',#1768);
#517=VERTEX_POINT('',#1770);
#518=VERTEX_POINT('',#1772);
#519=VERTEX_POINT('',#1774);
#520=VERTEX_POINT('',#1776);
#521=VERTEX_POINT('',#1779);
#522=VERTEX_POINT('',#1781);
#523=VERTEX_POINT('',#1783);
#524=VERTEX_POINT('',#1785);
#525=VERTEX_POINT('',#1788);
#526=VERTEX_POINT('',#1792);
#527=VERTEX_POINT('',#1793);
#528=VERTEX_POINT('',#1798);
#529=VERTEX_POINT('',#1800);
#530=VERTEX_POINT('',#1802);
#531=VERTEX_POINT('',#1804);
#532=VERTEX_POINT('',#1807);
#533=VERTEX_POINT('',#1809);
#534=VERTEX_POINT('',#1814);
#535=VERTEX_POINT('',#1816);
#536=VERTEX_POINT('',#1818);
#537=VERTEX_POINT('',#1820);
#538=VERTEX_POINT('',#1822);
#539=VERTEX_POINT('',#1824);
#540=VERTEX_POINT('',#1826);
#541=VERTEX_POINT('',#1830);
#542=VERTEX_POINT('',#1832);
#543=VERTEX_POINT('',#1834);
#544=VERTEX_POINT('',#1836);
#545=VERTEX_POINT('',#1842);
#546=VERTEX_POINT('',#1844);
#547=VERTEX_POINT('',#1846);
#548=VERTEX_POINT('',#1848);
#549=VERTEX_POINT('',#1851);
#550=VERTEX_POINT('',#1853);
#551=VERTEX_POINT('',#1855);
#552=VERTEX_POINT('',#1857);
#553=VERTEX_POINT('',#1859);
#554=VERTEX_POINT('',#1861);
#555=VERTEX_POINT('',#1863);
#556=VERTEX_POINT('',#1865);
#557=VERTEX_POINT('',#1872);
#558=VERTEX_POINT('',#1874);
#559=EDGE_CURVE('',#455,#456,#399,.T.);
#560=EDGE_CURVE('',#456,#457,#199,.T.);
#561=EDGE_CURVE('',#457,#458,#400,.T.);
#562=EDGE_CURVE('',#458,#455,#200,.T.);
#563=EDGE_CURVE('',#459,#458,#201,.T.);
#564=EDGE_CURVE('',#460,#459,#202,.T.);
#565=EDGE_CURVE('',#461,#460,#401,.T.);
#566=EDGE_CURVE('',#462,#461,#203,.T.);
#567=EDGE_CURVE('',#463,#462,#402,.T.);
#568=EDGE_CURVE('',#463,#464,#204,.T.);
#569=EDGE_CURVE('',#464,#465,#205,.T.);
#570=EDGE_CURVE('',#466,#465,#206,.T.);
#571=EDGE_CURVE('',#466,#467,#207,.T.);
#572=EDGE_CURVE('',#468,#467,#403,.T.);
#573=EDGE_CURVE('',#468,#469,#208,.T.);
#574=EDGE_CURVE('',#470,#469,#404,.T.);
#575=EDGE_CURVE('',#470,#471,#209,.T.);
#576=EDGE_CURVE('',#472,#471,#405,.T.);
#577=EDGE_CURVE('',#473,#472,#210,.T.);
#578=EDGE_CURVE('',#474,#473,#406,.T.);
#579=EDGE_CURVE('',#455,#474,#211,.T.);
#580=EDGE_CURVE('',#457,#475,#212,.T.);
#581=EDGE_CURVE('',#476,#475,#407,.T.);
#582=EDGE_CURVE('',#477,#476,#213,.T.);
#583=EDGE_CURVE('',#459,#477,#214,.T.);
#584=EDGE_CURVE('',#478,#478,#408,.T.);
#585=EDGE_CURVE('',#479,#479,#409,.T.);
#586=EDGE_CURVE('',#480,#481,#410,.T.);
#587=EDGE_CURVE('',#481,#476,#215,.T.);
#588=EDGE_CURVE('',#475,#480,#216,.T.);
#589=EDGE_CURVE('',#481,#482,#217,.T.);
#590=EDGE_CURVE('',#483,#482,#411,.T.);
#591=EDGE_CURVE('',#483,#484,#218,.T.);
#592=EDGE_CURVE('',#485,#484,#412,.T.);
#593=EDGE_CURVE('',#485,#486,#219,.T.);
#594=EDGE_CURVE('',#487,#486,#413,.T.);
#595=EDGE_CURVE('',#487,#488,#220,.T.);
#596=EDGE_CURVE('',#489,#488,#414,.T.);
#597=EDGE_CURVE('',#489,#490,#221,.T.);
#598=EDGE_CURVE('',#491,#490,#222,.T.);
#599=EDGE_CURVE('',#491,#492,#223,.T.);
#600=EDGE_CURVE('',#492,#493,#224,.T.);
#601=EDGE_CURVE('',#494,#493,#415,.T.);
#602=EDGE_CURVE('',#494,#495,#225,.T.);
#603=EDGE_CURVE('',#496,#495,#416,.T.);
#604=EDGE_CURVE('',#496,#477,#226,.T.);
#605=EDGE_CURVE('',#497,#491,#417,.T.);
#606=EDGE_CURVE('',#490,#498,#418,.T.);
#607=EDGE_CURVE('',#498,#497,#227,.T.);
#608=EDGE_CURVE('',#499,#497,#228,.T.);
#609=EDGE_CURVE('',#465,#499,#419,.T.);
#610=EDGE_CURVE('',#464,#492,#229,.T.);
#611=EDGE_CURVE('',#500,#500,#420,.T.);
#612=EDGE_CURVE('',#501,#501,#421,.T.);
#613=EDGE_CURVE('',#502,#466,#422,.T.);
#614=EDGE_CURVE('',#499,#502,#230,.T.);
#615=EDGE_CURVE('',#467,#489,#231,.T.);
#616=EDGE_CURVE('',#502,#498,#232,.T.);
#617=EDGE_CURVE('',#503,#503,#423,.T.);
#618=EDGE_CURVE('',#504,#504,#424,.T.);
#619=EDGE_CURVE('',#488,#468,#233,.T.);
#620=EDGE_CURVE('',#473,#483,#234,.T.);
#621=EDGE_CURVE('',#482,#474,#235,.T.);
#622=EDGE_CURVE('',#484,#472,#236,.T.);
#623=EDGE_CURVE('',#471,#485,#237,.T.);
#624=EDGE_CURVE('',#486,#470,#238,.T.);
#625=EDGE_CURVE('',#469,#487,#239,.T.);
#626=EDGE_CURVE('',#460,#496,#240,.T.);
#627=EDGE_CURVE('',#495,#461,#241,.T.);
#628=EDGE_CURVE('',#462,#494,#242,.T.);
#629=EDGE_CURVE('',#493,#463,#243,.T.);
#630=EDGE_CURVE('',#503,#501,#244,.T.);
#631=EDGE_CURVE('',#505,#505,#425,.T.);
#632=EDGE_CURVE('',#505,#478,#245,.T.);
#633=EDGE_CURVE('',#504,#500,#246,.T.);
#634=EDGE_CURVE('',#506,#506,#426,.T.);
#635=EDGE_CURVE('',#506,#479,#247,.T.);
#636=EDGE_CURVE('',#456,#480,#248,.T.);
#637=EDGE_CURVE('',#507,#508,#427,.T.);
#638=EDGE_CURVE('',#508,#509,#249,.T.);
#639=EDGE_CURVE('',#509,#510,#428,.T.);
#640=EDGE_CURVE('',#510,#507,#250,.T.);
#641=EDGE_CURVE('',#511,#507,#251,.T.);
#642=EDGE_CURVE('',#512,#511,#429,.T.);
#643=EDGE_CURVE('',#513,#512,#252,.T.);
#644=EDGE_CURVE('',#513,#514,#253,.T.);
#645=EDGE_CURVE('',#514,#515,#254,.T.);
#646=EDGE_CURVE('',#516,#515,#255,.T.);
#647=EDGE_CURVE('',#516,#517,#256,.T.);
#648=EDGE_CURVE('',#518,#517,#430,.T.);
#649=EDGE_CURVE('',#518,#519,#257,.T.);
#650=EDGE_CURVE('',#520,#519,#431,.T.);
#651=EDGE_CURVE('',#508,#520,#258,.T.);
#652=EDGE_CURVE('',#521,#521,#432,.T.);
#653=EDGE_CURVE('',#522,#522,#433,.T.);
#654=EDGE_CURVE('',#523,#523,#434,.T.);
#655=EDGE_CURVE('',#524,#524,#435,.T.);
#656=EDGE_CURVE('',#525,#510,#259,.T.);
#657=EDGE_CURVE('',#511,#525,#260,.T.);
#658=EDGE_CURVE('',#526,#527,#436,.T.);
#659=EDGE_CURVE('',#527,#520,#261,.T.);
#660=EDGE_CURVE('',#519,#526,#262,.T.);
#661=EDGE_CURVE('',#528,#526,#263,.T.);
#662=EDGE_CURVE('',#529,#528,#437,.T.);
#663=EDGE_CURVE('',#529,#530,#264,.T.);
#664=EDGE_CURVE('',#531,#530,#265,.T.);
#665=EDGE_CURVE('',#527,#531,#266,.T.);
#666=EDGE_CURVE('',#532,#532,#438,.T.);
#667=EDGE_CURVE('',#533,#533,#439,.T.);
#668=EDGE_CURVE('',#528,#518,#267,.T.);
#669=EDGE_CURVE('',#531,#534,#440,.T.);
#670=EDGE_CURVE('',#534,#535,#268,.T.);
#671=EDGE_CURVE('',#535,#536,#441,.T.);
#672=EDGE_CURVE('',#536,#537,#269,.T.);
#673=EDGE_CURVE('',#537,#538,#442,.T.);
#674=EDGE_CURVE('',#538,#539,#270,.T.);
#675=EDGE_CURVE('',#539,#540,#443,.T.);
#676=EDGE_CURVE('',#540,#509,#271,.T.);
#677=EDGE_CURVE('',#541,#515,#272,.T.);
#678=EDGE_CURVE('',#514,#542,#273,.T.);
#679=EDGE_CURVE('',#543,#542,#444,.T.);
#680=EDGE_CURVE('',#543,#544,#274,.T.);
#681=EDGE_CURVE('',#541,#544,#445,.T.);
#682=EDGE_CURVE('',#517,#529,#275,.T.);
#683=EDGE_CURVE('',#545,#516,#276,.T.);
#684=EDGE_CURVE('',#546,#545,#446,.T.);
#685=EDGE_CURVE('',#547,#546,#277,.T.);
#686=EDGE_CURVE('',#548,#547,#447,.T.);
#687=EDGE_CURVE('',#548,#513,#278,.T.);
#688=EDGE_CURVE('',#549,#512,#279,.T.);
#689=EDGE_CURVE('',#549,#550,#280,.T.);
#690=EDGE_CURVE('',#551,#550,#448,.T.);
#691=EDGE_CURVE('',#551,#552,#281,.T.);
#692=EDGE_CURVE('',#553,#552,#449,.T.);
#693=EDGE_CURVE('',#553,#554,#282,.T.);
#694=EDGE_CURVE('',#555,#554,#450,.T.);
#695=EDGE_CURVE('',#556,#555,#283,.T.);
#696=EDGE_CURVE('',#530,#556,#451,.T.);
#697=EDGE_CURVE('',#525,#549,#452,.T.);
#698=EDGE_CURVE('',#550,#540,#284,.T.);
#699=EDGE_CURVE('',#557,#557,#453,.T.);
#700=EDGE_CURVE('',#558,#558,#454,.T.);
#701=EDGE_CURVE('',#539,#551,#285,.T.);
#702=EDGE_CURVE('',#556,#534,#286,.T.);
#703=EDGE_CURVE('',#535,#555,#287,.T.);
#704=EDGE_CURVE('',#554,#536,#288,.T.);
#705=EDGE_CURVE('',#537,#553,#289,.T.);
#706=EDGE_CURVE('',#552,#538,#290,.T.);
#707=EDGE_CURVE('',#545,#541,#291,.T.);
#708=EDGE_CURVE('',#544,#546,#292,.T.);
#709=EDGE_CURVE('',#547,#543,#293,.T.);
#710=EDGE_CURVE('',#542,#548,#294,.T.);
#711=EDGE_CURVE('',#557,#524,#295,.T.);
#712=EDGE_CURVE('',#533,#522,#296,.T.);
#713=EDGE_CURVE('',#558,#523,#297,.T.);
#714=EDGE_CURVE('',#532,#521,#298,.T.);
#715=ORIENTED_EDGE('',*,*,#559,.T.);
#716=ORIENTED_EDGE('',*,*,#560,.T.);
#717=ORIENTED_EDGE('',*,*,#561,.T.);
#718=ORIENTED_EDGE('',*,*,#562,.T.);
#719=ORIENTED_EDGE('',*,*,#562,.F.);
#720=ORIENTED_EDGE('',*,*,#563,.F.);
#721=ORIENTED_EDGE('',*,*,#564,.F.);
#722=ORIENTED_EDGE('',*,*,#565,.F.);
#723=ORIENTED_EDGE('',*,*,#566,.F.);
#724=ORIENTED_EDGE('',*,*,#567,.F.);
#725=ORIENTED_EDGE('',*,*,#568,.T.);
#726=ORIENTED_EDGE('',*,*,#569,.T.);
#727=ORIENTED_EDGE('',*,*,#570,.F.);
#728=ORIENTED_EDGE('',*,*,#571,.T.);
#729=ORIENTED_EDGE('',*,*,#572,.F.);
#730=ORIENTED_EDGE('',*,*,#573,.T.);
#731=ORIENTED_EDGE('',*,*,#574,.F.);
#732=ORIENTED_EDGE('',*,*,#575,.T.);
#733=ORIENTED_EDGE('',*,*,#576,.F.);
#734=ORIENTED_EDGE('',*,*,#577,.F.);
#735=ORIENTED_EDGE('',*,*,#578,.F.);
#736=ORIENTED_EDGE('',*,*,#579,.F.);
#737=ORIENTED_EDGE('',*,*,#561,.F.);
#738=ORIENTED_EDGE('',*,*,#580,.T.);
#739=ORIENTED_EDGE('',*,*,#581,.F.);
#740=ORIENTED_EDGE('',*,*,#582,.F.);
#741=ORIENTED_EDGE('',*,*,#583,.F.);
#742=ORIENTED_EDGE('',*,*,#563,.T.);
#743=ORIENTED_EDGE('',*,*,#584,.T.);
#744=ORIENTED_EDGE('',*,*,#585,.T.);
#745=ORIENTED_EDGE('',*,*,#586,.T.);
#746=ORIENTED_EDGE('',*,*,#587,.T.);
#747=ORIENTED_EDGE('',*,*,#581,.T.);
#748=ORIENTED_EDGE('',*,*,#588,.T.);
#749=ORIENTED_EDGE('',*,*,#587,.F.);
#750=ORIENTED_EDGE('',*,*,#589,.T.);
#751=ORIENTED_EDGE('',*,*,#590,.F.);
#752=ORIENTED_EDGE('',*,*,#591,.T.);
#753=ORIENTED_EDGE('',*,*,#592,.F.);
#754=ORIENTED_EDGE('',*,*,#593,.T.);
#755=ORIENTED_EDGE('',*,*,#594,.F.);
#756=ORIENTED_EDGE('',*,*,#595,.T.);
#757=ORIENTED_EDGE('',*,*,#596,.F.);
#758=ORIENTED_EDGE('',*,*,#597,.T.);
#759=ORIENTED_EDGE('',*,*,#598,.F.);
#760=ORIENTED_EDGE('',*,*,#599,.T.);
#761=ORIENTED_EDGE('',*,*,#600,.T.);
#762=ORIENTED_EDGE('',*,*,#601,.F.);
#763=ORIENTED_EDGE('',*,*,#602,.T.);
#764=ORIENTED_EDGE('',*,*,#603,.F.);
#765=ORIENTED_EDGE('',*,*,#604,.T.);
#766=ORIENTED_EDGE('',*,*,#582,.T.);
#767=ORIENTED_EDGE('',*,*,#605,.T.);
#768=ORIENTED_EDGE('',*,*,#598,.T.);
#769=ORIENTED_EDGE('',*,*,#606,.T.);
#770=ORIENTED_EDGE('',*,*,#607,.T.);
#771=ORIENTED_EDGE('',*,*,#605,.F.);
#772=ORIENTED_EDGE('',*,*,#608,.F.);
#773=ORIENTED_EDGE('',*,*,#609,.F.);
#774=ORIENTED_EDGE('',*,*,#569,.F.);
#775=ORIENTED_EDGE('',*,*,#610,.T.);
#776=ORIENTED_EDGE('',*,*,#599,.F.);
#777=ORIENTED_EDGE('',*,*,#611,.T.);
#778=ORIENTED_EDGE('',*,*,#612,.T.);
#779=ORIENTED_EDGE('',*,*,#613,.T.);
#780=ORIENTED_EDGE('',*,*,#570,.T.);
#781=ORIENTED_EDGE('',*,*,#609,.T.);
#782=ORIENTED_EDGE('',*,*,#614,.T.);
#783=ORIENTED_EDGE('',*,*,#606,.F.);
#784=ORIENTED_EDGE('',*,*,#597,.F.);
#785=ORIENTED_EDGE('',*,*,#615,.F.);
#786=ORIENTED_EDGE('',*,*,#571,.F.);
#787=ORIENTED_EDGE('',*,*,#613,.F.);
#788=ORIENTED_EDGE('',*,*,#616,.T.);
#789=ORIENTED_EDGE('',*,*,#617,.T.);
#790=ORIENTED_EDGE('',*,*,#618,.T.);
#791=ORIENTED_EDGE('',*,*,#572,.T.);
#792=ORIENTED_EDGE('',*,*,#615,.T.);
#793=ORIENTED_EDGE('',*,*,#596,.T.);
#794=ORIENTED_EDGE('',*,*,#619,.T.);
#795=ORIENTED_EDGE('',*,*,#578,.T.);
#796=ORIENTED_EDGE('',*,*,#620,.T.);
#797=ORIENTED_EDGE('',*,*,#590,.T.);
#798=ORIENTED_EDGE('',*,*,#621,.T.);
#799=ORIENTED_EDGE('',*,*,#620,.F.);
#800=ORIENTED_EDGE('',*,*,#577,.T.);
#801=ORIENTED_EDGE('',*,*,#622,.F.);
#802=ORIENTED_EDGE('',*,*,#591,.F.);
#803=ORIENTED_EDGE('',*,*,#592,.T.);
#804=ORIENTED_EDGE('',*,*,#622,.T.);
#805=ORIENTED_EDGE('',*,*,#576,.T.);
#806=ORIENTED_EDGE('',*,*,#623,.T.);
#807=ORIENTED_EDGE('',*,*,#623,.F.);
#808=ORIENTED_EDGE('',*,*,#575,.F.);
#809=ORIENTED_EDGE('',*,*,#624,.F.);
#810=ORIENTED_EDGE('',*,*,#593,.F.);
#811=ORIENTED_EDGE('',*,*,#594,.T.);
#812=ORIENTED_EDGE('',*,*,#624,.T.);
#813=ORIENTED_EDGE('',*,*,#574,.T.);
#814=ORIENTED_EDGE('',*,*,#625,.T.);
#815=ORIENTED_EDGE('',*,*,#565,.T.);
#816=ORIENTED_EDGE('',*,*,#626,.T.);
#817=ORIENTED_EDGE('',*,*,#603,.T.);
#818=ORIENTED_EDGE('',*,*,#627,.T.);
#819=ORIENTED_EDGE('',*,*,#626,.F.);
#820=ORIENTED_EDGE('',*,*,#564,.T.);
#821=ORIENTED_EDGE('',*,*,#583,.T.);
#822=ORIENTED_EDGE('',*,*,#604,.F.);
#823=ORIENTED_EDGE('',*,*,#567,.T.);
#824=ORIENTED_EDGE('',*,*,#628,.T.);
#825=ORIENTED_EDGE('',*,*,#601,.T.);
#826=ORIENTED_EDGE('',*,*,#629,.T.);
#827=ORIENTED_EDGE('',*,*,#627,.F.);
#828=ORIENTED_EDGE('',*,*,#602,.F.);
#829=ORIENTED_EDGE('',*,*,#628,.F.);
#830=ORIENTED_EDGE('',*,*,#566,.T.);
#831=ORIENTED_EDGE('',*,*,#617,.F.);
#832=ORIENTED_EDGE('',*,*,#630,.T.);
#833=ORIENTED_EDGE('',*,*,#612,.F.);
#834=ORIENTED_EDGE('',*,*,#630,.F.);
#835=ORIENTED_EDGE('',*,*,#631,.F.);
#836=ORIENTED_EDGE('',*,*,#632,.T.);
#837=ORIENTED_EDGE('',*,*,#584,.F.);
#838=ORIENTED_EDGE('',*,*,#632,.F.);
#839=ORIENTED_EDGE('',*,*,#618,.F.);
#840=ORIENTED_EDGE('',*,*,#633,.T.);
#841=ORIENTED_EDGE('',*,*,#611,.F.);
#842=ORIENTED_EDGE('',*,*,#633,.F.);
#843=ORIENTED_EDGE('',*,*,#634,.F.);
#844=ORIENTED_EDGE('',*,*,#635,.T.);
#845=ORIENTED_EDGE('',*,*,#585,.F.);
#846=ORIENTED_EDGE('',*,*,#635,.F.);
#847=ORIENTED_EDGE('',*,*,#629,.F.);
#848=ORIENTED_EDGE('',*,*,#600,.F.);
#849=ORIENTED_EDGE('',*,*,#610,.F.);
#850=ORIENTED_EDGE('',*,*,#568,.F.);
#851=ORIENTED_EDGE('',*,*,#607,.F.);
#852=ORIENTED_EDGE('',*,*,#616,.F.);
#853=ORIENTED_EDGE('',*,*,#614,.F.);
#854=ORIENTED_EDGE('',*,*,#608,.T.);
#855=ORIENTED_EDGE('',*,*,#619,.F.);
#856=ORIENTED_EDGE('',*,*,#595,.F.);
#857=ORIENTED_EDGE('',*,*,#625,.F.);
#858=ORIENTED_EDGE('',*,*,#573,.F.);
#859=ORIENTED_EDGE('',*,*,#559,.F.);
#860=ORIENTED_EDGE('',*,*,#579,.T.);
#861=ORIENTED_EDGE('',*,*,#621,.F.);
#862=ORIENTED_EDGE('',*,*,#589,.F.);
#863=ORIENTED_EDGE('',*,*,#586,.F.);
#864=ORIENTED_EDGE('',*,*,#636,.F.);
#865=ORIENTED_EDGE('',*,*,#631,.T.);
#866=ORIENTED_EDGE('',*,*,#634,.T.);
#867=ORIENTED_EDGE('',*,*,#560,.F.);
#868=ORIENTED_EDGE('',*,*,#636,.T.);
#869=ORIENTED_EDGE('',*,*,#588,.F.);
#870=ORIENTED_EDGE('',*,*,#580,.F.);
#871=ORIENTED_EDGE('',*,*,#637,.T.);
#872=ORIENTED_EDGE('',*,*,#638,.T.);
#873=ORIENTED_EDGE('',*,*,#639,.T.);
#874=ORIENTED_EDGE('',*,*,#640,.T.);
#875=ORIENTED_EDGE('',*,*,#637,.F.);
#876=ORIENTED_EDGE('',*,*,#641,.F.);
#877=ORIENTED_EDGE('',*,*,#642,.F.);
#878=ORIENTED_EDGE('',*,*,#643,.F.);
#879=ORIENTED_EDGE('',*,*,#644,.T.);
#880=ORIENTED_EDGE('',*,*,#645,.T.);
#881=ORIENTED_EDGE('',*,*,#646,.F.);
#882=ORIENTED_EDGE('',*,*,#647,.T.);
#883=ORIENTED_EDGE('',*,*,#648,.F.);
#884=ORIENTED_EDGE('',*,*,#649,.T.);
#885=ORIENTED_EDGE('',*,*,#650,.F.);
#886=ORIENTED_EDGE('',*,*,#651,.F.);
#887=ORIENTED_EDGE('',*,*,#652,.T.);
#888=ORIENTED_EDGE('',*,*,#653,.T.);
#889=ORIENTED_EDGE('',*,*,#654,.T.);
#890=ORIENTED_EDGE('',*,*,#655,.T.);
#891=ORIENTED_EDGE('',*,*,#640,.F.);
#892=ORIENTED_EDGE('',*,*,#656,.F.);
#893=ORIENTED_EDGE('',*,*,#657,.F.);
#894=ORIENTED_EDGE('',*,*,#641,.T.);
#895=ORIENTED_EDGE('',*,*,#658,.T.);
#896=ORIENTED_EDGE('',*,*,#659,.T.);
#897=ORIENTED_EDGE('',*,*,#650,.T.);
#898=ORIENTED_EDGE('',*,*,#660,.T.);
#899=ORIENTED_EDGE('',*,*,#658,.F.);
#900=ORIENTED_EDGE('',*,*,#661,.F.);
#901=ORIENTED_EDGE('',*,*,#662,.F.);
#902=ORIENTED_EDGE('',*,*,#663,.T.);
#903=ORIENTED_EDGE('',*,*,#664,.F.);
#904=ORIENTED_EDGE('',*,*,#665,.F.);
#905=ORIENTED_EDGE('',*,*,#666,.T.);
#906=ORIENTED_EDGE('',*,*,#667,.T.);
#907=ORIENTED_EDGE('',*,*,#660,.F.);
#908=ORIENTED_EDGE('',*,*,#649,.F.);
#909=ORIENTED_EDGE('',*,*,#668,.F.);
#910=ORIENTED_EDGE('',*,*,#661,.T.);
#911=ORIENTED_EDGE('',*,*,#638,.F.);
#912=ORIENTED_EDGE('',*,*,#651,.T.);
#913=ORIENTED_EDGE('',*,*,#659,.F.);
#914=ORIENTED_EDGE('',*,*,#665,.T.);
#915=ORIENTED_EDGE('',*,*,#669,.T.);
#916=ORIENTED_EDGE('',*,*,#670,.T.);
#917=ORIENTED_EDGE('',*,*,#671,.T.);
#918=ORIENTED_EDGE('',*,*,#672,.T.);
#919=ORIENTED_EDGE('',*,*,#673,.T.);
#920=ORIENTED_EDGE('',*,*,#674,.T.);
#921=ORIENTED_EDGE('',*,*,#675,.T.);
#922=ORIENTED_EDGE('',*,*,#676,.T.);
#923=ORIENTED_EDGE('',*,*,#677,.T.);
#924=ORIENTED_EDGE('',*,*,#645,.F.);
#925=ORIENTED_EDGE('',*,*,#678,.T.);
#926=ORIENTED_EDGE('',*,*,#679,.F.);
#927=ORIENTED_EDGE('',*,*,#680,.T.);
#928=ORIENTED_EDGE('',*,*,#681,.F.);
#929=ORIENTED_EDGE('',*,*,#662,.T.);
#930=ORIENTED_EDGE('',*,*,#668,.T.);
#931=ORIENTED_EDGE('',*,*,#648,.T.);
#932=ORIENTED_EDGE('',*,*,#682,.T.);
#933=ORIENTED_EDGE('',*,*,#682,.F.);
#934=ORIENTED_EDGE('',*,*,#647,.F.);
#935=ORIENTED_EDGE('',*,*,#683,.F.);
#936=ORIENTED_EDGE('',*,*,#684,.F.);
#937=ORIENTED_EDGE('',*,*,#685,.F.);
#938=ORIENTED_EDGE('',*,*,#686,.F.);
#939=ORIENTED_EDGE('',*,*,#687,.T.);
#940=ORIENTED_EDGE('',*,*,#643,.T.);
#941=ORIENTED_EDGE('',*,*,#688,.F.);
#942=ORIENTED_EDGE('',*,*,#689,.T.);
#943=ORIENTED_EDGE('',*,*,#690,.F.);
#944=ORIENTED_EDGE('',*,*,#691,.T.);
#945=ORIENTED_EDGE('',*,*,#692,.F.);
#946=ORIENTED_EDGE('',*,*,#693,.T.);
#947=ORIENTED_EDGE('',*,*,#694,.F.);
#948=ORIENTED_EDGE('',*,*,#695,.F.);
#949=ORIENTED_EDGE('',*,*,#696,.F.);
#950=ORIENTED_EDGE('',*,*,#663,.F.);
#951=ORIENTED_EDGE('',*,*,#697,.T.);
#952=ORIENTED_EDGE('',*,*,#688,.T.);
#953=ORIENTED_EDGE('',*,*,#642,.T.);
#954=ORIENTED_EDGE('',*,*,#657,.T.);
#955=ORIENTED_EDGE('',*,*,#639,.F.);
#956=ORIENTED_EDGE('',*,*,#676,.F.);
#957=ORIENTED_EDGE('',*,*,#698,.F.);
#958=ORIENTED_EDGE('',*,*,#689,.F.);
#959=ORIENTED_EDGE('',*,*,#697,.F.);
#960=ORIENTED_EDGE('',*,*,#656,.T.);
#961=ORIENTED_EDGE('',*,*,#699,.T.);
#962=ORIENTED_EDGE('',*,*,#700,.T.);
#963=ORIENTED_EDGE('',*,*,#690,.T.);
#964=ORIENTED_EDGE('',*,*,#698,.T.);
#965=ORIENTED_EDGE('',*,*,#675,.F.);
#966=ORIENTED_EDGE('',*,*,#701,.T.);
#967=ORIENTED_EDGE('',*,*,#696,.T.);
#968=ORIENTED_EDGE('',*,*,#702,.T.);
#969=ORIENTED_EDGE('',*,*,#669,.F.);
#970=ORIENTED_EDGE('',*,*,#664,.T.);
#971=ORIENTED_EDGE('',*,*,#702,.F.);
#972=ORIENTED_EDGE('',*,*,#695,.T.);
#973=ORIENTED_EDGE('',*,*,#703,.F.);
#974=ORIENTED_EDGE('',*,*,#670,.F.);
#975=ORIENTED_EDGE('',*,*,#703,.T.);
#976=ORIENTED_EDGE('',*,*,#694,.T.);
#977=ORIENTED_EDGE('',*,*,#704,.T.);
#978=ORIENTED_EDGE('',*,*,#671,.F.);
#979=ORIENTED_EDGE('',*,*,#704,.F.);
#980=ORIENTED_EDGE('',*,*,#693,.F.);
#981=ORIENTED_EDGE('',*,*,#705,.F.);
#982=ORIENTED_EDGE('',*,*,#672,.F.);
#983=ORIENTED_EDGE('',*,*,#705,.T.);
#984=ORIENTED_EDGE('',*,*,#692,.T.);
#985=ORIENTED_EDGE('',*,*,#706,.T.);
#986=ORIENTED_EDGE('',*,*,#673,.F.);
#987=ORIENTED_EDGE('',*,*,#684,.T.);
#988=ORIENTED_EDGE('',*,*,#707,.T.);
#989=ORIENTED_EDGE('',*,*,#681,.T.);
#990=ORIENTED_EDGE('',*,*,#708,.T.);
#991=ORIENTED_EDGE('',*,*,#707,.F.);
#992=ORIENTED_EDGE('',*,*,#683,.T.);
#993=ORIENTED_EDGE('',*,*,#646,.T.);
#994=ORIENTED_EDGE('',*,*,#677,.F.);
#995=ORIENTED_EDGE('',*,*,#686,.T.);
#996=ORIENTED_EDGE('',*,*,#709,.T.);
#997=ORIENTED_EDGE('',*,*,#679,.T.);
#998=ORIENTED_EDGE('',*,*,#710,.T.);
#999=ORIENTED_EDGE('',*,*,#708,.F.);
#1000=ORIENTED_EDGE('',*,*,#680,.F.);
#1001=ORIENTED_EDGE('',*,*,#709,.F.);
#1002=ORIENTED_EDGE('',*,*,#685,.T.);
#1003=ORIENTED_EDGE('',*,*,#699,.F.);
#1004=ORIENTED_EDGE('',*,*,#711,.T.);
#1005=ORIENTED_EDGE('',*,*,#655,.F.);
#1006=ORIENTED_EDGE('',*,*,#711,.F.);
#1007=ORIENTED_EDGE('',*,*,#667,.F.);
#1008=ORIENTED_EDGE('',*,*,#712,.T.);
#1009=ORIENTED_EDGE('',*,*,#653,.F.);
#1010=ORIENTED_EDGE('',*,*,#712,.F.);
#1011=ORIENTED_EDGE('',*,*,#700,.F.);
#1012=ORIENTED_EDGE('',*,*,#713,.T.);
#1013=ORIENTED_EDGE('',*,*,#654,.F.);
#1014=ORIENTED_EDGE('',*,*,#713,.F.);
#1015=ORIENTED_EDGE('',*,*,#666,.F.);
#1016=ORIENTED_EDGE('',*,*,#714,.T.);
#1017=ORIENTED_EDGE('',*,*,#652,.F.);
#1018=ORIENTED_EDGE('',*,*,#714,.F.);
#1019=ORIENTED_EDGE('',*,*,#710,.F.);
#1020=ORIENTED_EDGE('',*,*,#678,.F.);
#1021=ORIENTED_EDGE('',*,*,#644,.F.);
#1022=ORIENTED_EDGE('',*,*,#687,.F.);
#1023=ORIENTED_EDGE('',*,*,#701,.F.);
#1024=ORIENTED_EDGE('',*,*,#674,.F.);
#1025=ORIENTED_EDGE('',*,*,#706,.F.);
#1026=ORIENTED_EDGE('',*,*,#691,.F.);
#1027=CYLINDRICAL_SURFACE('',#1138,1.);
#1028=CYLINDRICAL_SURFACE('',#1152,1.);
#1029=CYLINDRICAL_SURFACE('',#1161,1.);
#1030=CYLINDRICAL_SURFACE('',#1168,1.);
#1031=CYLINDRICAL_SURFACE('',#1173,1.5);
#1032=CYLINDRICAL_SURFACE('',#1174,1.5);
#1033=CYLINDRICAL_SURFACE('',#1176,1.5);
#1034=CYLINDRICAL_SURFACE('',#1178,1.5);
#1035=CYLINDRICAL_SURFACE('',#1179,1.);
#1036=CYLINDRICAL_SURFACE('',#1181,1.);
#1037=CYLINDRICAL_SURFACE('',#1183,1.6);
#1038=CYLINDRICAL_SURFACE('',#1184,1.6);
#1039=CYLINDRICAL_SURFACE('',#1186,1.6);
#1040=CYLINDRICAL_SURFACE('',#1187,1.6);
#1041=CYLINDRICAL_SURFACE('',#1195,3.);
#1042=CYLINDRICAL_SURFACE('',#1207,3.);
#1043=CYLINDRICAL_SURFACE('',#1222,1.);
#1044=CYLINDRICAL_SURFACE('',#1230,1.);
#1045=CYLINDRICAL_SURFACE('',#1235,1.5);
#1046=CYLINDRICAL_SURFACE('',#1236,1.5);
#1047=CYLINDRICAL_SURFACE('',#1238,1.5);
#1048=CYLINDRICAL_SURFACE('',#1240,1.5);
#1049=CYLINDRICAL_SURFACE('',#1241,1.);
#1050=CYLINDRICAL_SURFACE('',#1243,1.);
#1051=CYLINDRICAL_SURFACE('',#1245,1.6);
#1052=CYLINDRICAL_SURFACE('',#1246,1.6);
#1053=CYLINDRICAL_SURFACE('',#1247,1.6);
#1054=CYLINDRICAL_SURFACE('',#1248,1.6);
#1055=ADVANCED_FACE('',(#71),#1027,.T.);
#1056=ADVANCED_FACE('',(#72),#43,.F.);
#1057=ADVANCED_FACE('',(#73,#27,#28),#44,.T.);
#1058=ADVANCED_FACE('',(#74),#1028,.T.);
#1059=ADVANCED_FACE('',(#75),#45,.T.);
#1060=ADVANCED_FACE('',(#76),#1029,.T.);
#1061=ADVANCED_FACE('',(#77,#29,#30),#46,.T.);
#1062=ADVANCED_FACE('',(#78),#1030,.T.);
#1063=ADVANCED_FACE('',(#79,#31,#32),#47,.T.);
#1064=ADVANCED_FACE('',(#80),#1031,.F.);
#1065=ADVANCED_FACE('',(#81),#1032,.F.);
#1066=ADVANCED_FACE('',(#82),#48,.T.);
#1067=ADVANCED_FACE('',(#83),#1033,.T.);
#1068=ADVANCED_FACE('',(#84),#49,.T.);
#1069=ADVANCED_FACE('',(#85),#1034,.T.);
#1070=ADVANCED_FACE('',(#86),#1035,.F.);
#1071=ADVANCED_FACE('',(#87),#50,.T.);
#1072=ADVANCED_FACE('',(#88),#1036,.F.);
#1073=ADVANCED_FACE('',(#89),#51,.T.);
#1074=ADVANCED_FACE('',(#90),#1037,.F.);
#1075=ADVANCED_FACE('',(#91),#1038,.F.);
#1076=ADVANCED_FACE('',(#92),#1039,.F.);
#1077=ADVANCED_FACE('',(#93),#1040,.F.);
#1078=ADVANCED_FACE('',(#94),#52,.T.);
#1079=ADVANCED_FACE('',(#95),#53,.T.);
#1080=ADVANCED_FACE('',(#96),#54,.T.);
#1081=ADVANCED_FACE('',(#97,#33,#34),#55,.T.);
#1082=ADVANCED_FACE('',(#98),#56,.T.);
#1083=ADVANCED_FACE('',(#99),#1041,.T.);
#1084=ADVANCED_FACE('',(#100,#35,#36,#37,#38),#57,.T.);
#1085=ADVANCED_FACE('',(#101),#58,.T.);
#1086=ADVANCED_FACE('',(#102),#1042,.T.);
#1087=ADVANCED_FACE('',(#103,#39,#40),#59,.T.);
#1088=ADVANCED_FACE('',(#104),#60,.T.);
#1089=ADVANCED_FACE('',(#105),#61,.T.);
#1090=ADVANCED_FACE('',(#106),#62,.F.);
#1091=ADVANCED_FACE('',(#107),#1043,.T.);
#1092=ADVANCED_FACE('',(#108),#63,.F.);
#1093=ADVANCED_FACE('',(#109),#1044,.T.);
#1094=ADVANCED_FACE('',(#110,#41,#42),#64,.T.);
#1095=ADVANCED_FACE('',(#111),#1045,.F.);
#1096=ADVANCED_FACE('',(#112),#1046,.F.);
#1097=ADVANCED_FACE('',(#113),#65,.T.);
#1098=ADVANCED_FACE('',(#114),#1047,.T.);
#1099=ADVANCED_FACE('',(#115),#66,.T.);
#1100=ADVANCED_FACE('',(#116),#1048,.T.);
#1101=ADVANCED_FACE('',(#117),#1049,.F.);
#1102=ADVANCED_FACE('',(#118),#67,.T.);
#1103=ADVANCED_FACE('',(#119),#1050,.F.);
#1104=ADVANCED_FACE('',(#120),#68,.T.);
#1105=ADVANCED_FACE('',(#121),#1051,.F.);
#1106=ADVANCED_FACE('',(#122),#1052,.F.);
#1107=ADVANCED_FACE('',(#123),#1053,.F.);
#1108=ADVANCED_FACE('',(#124),#1054,.F.);
#1109=ADVANCED_FACE('',(#125),#69,.T.);
#1110=ADVANCED_FACE('',(#126),#70,.T.);
#1111=CLOSED_SHELL('',(#1055,#1056,#1057,#1058,#1059,#1060,#1061,#1062,
#1063,#1064,#1065,#1066,#1067,#1068,#1069,#1070,#1071,#1072,#1073,#1074,
#1075,#1076,#1077,#1078,#1079,#1080,#1081,#1082));
#1112=CLOSED_SHELL('',(#1083,#1084,#1085,#1086,#1087,#1088,#1089,#1090,
#1091,#1092,#1093,#1094,#1095,#1096,#1097,#1098,#1099,#1100,#1101,#1102,
#1103,#1104,#1105,#1106,#1107,#1108,#1109,#1110));
#1113=DERIVED_UNIT_ELEMENT(#1117,1.);
#1114=DERIVED_UNIT_ELEMENT(#1917,-3.);
#1115=DERIVED_UNIT_ELEMENT(#1117,1.);
#1116=DERIVED_UNIT_ELEMENT(#1917,-3.);
#1117=(
MASS_UNIT()
NAMED_UNIT(*)
SI_UNIT(.KILO.,.GRAM.)
);
#1118=DERIVED_UNIT((#1113,#1114));
#1119=DERIVED_UNIT((#1115,#1116));
#1120=MEASURE_REPRESENTATION_ITEM('density measure',
POSITIVE_RATIO_MEASURE(7850.),#1118);
#1121=MEASURE_REPRESENTATION_ITEM('density measure',
POSITIVE_RATIO_MEASURE(7850.),#1119);
#1122=PROPERTY_DEFINITION_REPRESENTATION(#1132,#1126);
#1123=PROPERTY_DEFINITION_REPRESENTATION(#1133,#1127);
#1124=PROPERTY_DEFINITION_REPRESENTATION(#1134,#1128);
#1125=PROPERTY_DEFINITION_REPRESENTATION(#1135,#1129);
#1126=REPRESENTATION('material name',(#1130),#1913);
#1127=REPRESENTATION('density',(#1120),#1913);
#1128=REPRESENTATION('material name',(#1131),#1914);
#1129=REPRESENTATION('density',(#1121),#1914);
#1130=DESCRIPTIVE_REPRESENTATION_ITEM('Steel','Steel');
#1131=DESCRIPTIVE_REPRESENTATION_ITEM('Steel','Steel');
#1132=PROPERTY_DEFINITION('material property','material name',#1933);
#1133=PROPERTY_DEFINITION('material property','density of part',#1933);
#1134=PROPERTY_DEFINITION('material property','material name',#1934);
#1135=PROPERTY_DEFINITION('material property','density of part',#1934);
#1136=AXIS2_PLACEMENT_3D('',#1587,#1253,#1254);
#1137=AXIS2_PLACEMENT_3D('',#1588,#1255,#1256);
#1138=AXIS2_PLACEMENT_3D('',#1589,#1257,#1258);
#1139=AXIS2_PLACEMENT_3D('',#1592,#1259,#1260);
#1140=AXIS2_PLACEMENT_3D('',#1596,#1262,#1263);
#1141=AXIS2_PLACEMENT_3D('',#1598,#1265,#1266);
#1142=AXIS2_PLACEMENT_3D('',#1604,#1269,#1270);
#1143=AXIS2_PLACEMENT_3D('',#1608,#1272,#1273);
#1144=AXIS2_PLACEMENT_3D('',#1618,#1278,#1279);
#1145=AXIS2_PLACEMENT_3D('',#1622,#1281,#1282);
#1146=AXIS2_PLACEMENT_3D('',#1626,#1284,#1285);
#1147=AXIS2_PLACEMENT_3D('',#1630,#1287,#1288);
#1148=AXIS2_PLACEMENT_3D('',#1632,#1290,#1291);
#1149=AXIS2_PLACEMENT_3D('',#1636,#1293,#1294);
#1150=AXIS2_PLACEMENT_3D('',#1641,#1297,#1298);
#1151=AXIS2_PLACEMENT_3D('',#1643,#1299,#1300);
#1152=AXIS2_PLACEMENT_3D('',#1644,#1301,#1302);
#1153=AXIS2_PLACEMENT_3D('',#1647,#1303,#1304);
#1154=AXIS2_PLACEMENT_3D('',#1650,#1307,#1308);
#1155=AXIS2_PLACEMENT_3D('',#1654,#1310,#1311);
#1156=AXIS2_PLACEMENT_3D('',#1658,#1313,#1314);
#1157=AXIS2_PLACEMENT_3D('',#1662,#1316,#1317);
#1158=AXIS2_PLACEMENT_3D('',#1666,#1319,#1320);
#1159=AXIS2_PLACEMENT_3D('',#1676,#1325,#1326);
#1160=AXIS2_PLACEMENT_3D('',#1680,#1328,#1329);
#1161=AXIS2_PLACEMENT_3D('',#1682,#1331,#1332);
#1162=AXIS2_PLACEMENT_3D('',#1684,#1333,#1334);
#1163=AXIS2_PLACEMENT_3D('',#1686,#1335,#1336);
#1164=AXIS2_PLACEMENT_3D('',#1688,#1338,#1339);
#1165=AXIS2_PLACEMENT_3D('',#1691,#1341,#1342);
#1166=AXIS2_PLACEMENT_3D('',#1694,#1344,#1345);
#1167=AXIS2_PLACEMENT_3D('',#1696,#1346,#1347);
#1168=AXIS2_PLACEMENT_3D('',#1697,#1348,#1349);
#1169=AXIS2_PLACEMENT_3D('',#1699,#1350,#1351);
#1170=AXIS2_PLACEMENT_3D('',#1701,#1353,#1354);
#1171=AXIS2_PLACEMENT_3D('',#1705,#1357,#1358);
#1172=AXIS2_PLACEMENT_3D('',#1707,#1359,#1360);
#1173=AXIS2_PLACEMENT_3D('',#1708,#1361,#1362);
#1174=AXIS2_PLACEMENT_3D('',#1710,#1364,#1365);
#1175=AXIS2_PLACEMENT_3D('',#1713,#1368,#1369);
#1176=AXIS2_PLACEMENT_3D('',#1715,#1371,#1372);
#1177=AXIS2_PLACEMENT_3D('',#1717,#1374,#1375);
#1178=AXIS2_PLACEMENT_3D('',#1719,#1377,#1378);
#1179=AXIS2_PLACEMENT_3D('',#1721,#1380,#1381);
#1180=AXIS2_PLACEMENT_3D('',#1724,#1384,#1385);
#1181=AXIS2_PLACEMENT_3D('',#1725,#1386,#1387);
#1182=AXIS2_PLACEMENT_3D('',#1728,#1390,#1391);
#1183=AXIS2_PLACEMENT_3D('',#1729,#1392,#1393);
#1184=AXIS2_PLACEMENT_3D('',#1731,#1395,#1396);
#1185=AXIS2_PLACEMENT_3D('',#1733,#1397,#1398);
#1186=AXIS2_PLACEMENT_3D('',#1735,#1400,#1401);
#1187=AXIS2_PLACEMENT_3D('',#1737,#1403,#1404);
#1188=AXIS2_PLACEMENT_3D('',#1739,#1405,#1406);
#1189=AXIS2_PLACEMENT_3D('',#1741,#1408,#1409);
#1190=AXIS2_PLACEMENT_3D('',#1742,#1410,#1411);
#1191=AXIS2_PLACEMENT_3D('',#1743,#1412,#1413);
#1192=AXIS2_PLACEMENT_3D('',#1744,#1414,#1415);
#1193=AXIS2_PLACEMENT_3D('',#1746,#1417,#1418);
#1194=AXIS2_PLACEMENT_3D('',#1747,#1419,#1420);
#1195=AXIS2_PLACEMENT_3D('',#1748,#1421,#1422);
#1196=AXIS2_PLACEMENT_3D('',#1751,#1423,#1424);
#1197=AXIS2_PLACEMENT_3D('',#1755,#1426,#1427);
#1198=AXIS2_PLACEMENT_3D('',#1757,#1429,#1430);
#1199=AXIS2_PLACEMENT_3D('',#1761,#1432,#1433);
#1200=AXIS2_PLACEMENT_3D('',#1773,#1439,#1440);
#1201=AXIS2_PLACEMENT_3D('',#1777,#1442,#1443);
#1202=AXIS2_PLACEMENT_3D('',#1780,#1445,#1446);
#1203=AXIS2_PLACEMENT_3D('',#1782,#1447,#1448);
#1204=AXIS2_PLACEMENT_3D('',#1784,#1449,#1450);
#1205=AXIS2_PLACEMENT_3D('',#1786,#1451,#1452);
#1206=AXIS2_PLACEMENT_3D('',#1787,#1453,#1454);
#1207=AXIS2_PLACEMENT_3D('',#1791,#1457,#1458);
#1208=AXIS2_PLACEMENT_3D('',#1794,#1459,#1460);
#1209=AXIS2_PLACEMENT_3D('',#1797,#1463,#1464);
#1210=AXIS2_PLACEMENT_3D('',#1801,#1466,#1467);
#1211=AXIS2_PLACEMENT_3D('',#1808,#1471,#1472);
#1212=AXIS2_PLACEMENT_3D('',#1810,#1473,#1474);
#1213=AXIS2_PLACEMENT_3D('',#1811,#1475,#1476);
#1214=AXIS2_PLACEMENT_3D('',#1813,#1478,#1479);
#1215=AXIS2_PLACEMENT_3D('',#1815,#1480,#1481);
#1216=AXIS2_PLACEMENT_3D('',#1819,#1483,#1484);
#1217=AXIS2_PLACEMENT_3D('',#1823,#1486,#1487);
#1218=AXIS2_PLACEMENT_3D('',#1827,#1489,#1490);
#1219=AXIS2_PLACEMENT_3D('',#1829,#1492,#1493);
#1220=AXIS2_PLACEMENT_3D('',#1835,#1496,#1497);
#1221=AXIS2_PLACEMENT_3D('',#1838,#1499,#1500);
#1222=AXIS2_PLACEMENT_3D('',#1839,#1501,#1502);
#1223=AXIS2_PLACEMENT_3D('',#1841,#1504,#1505);
#1224=AXIS2_PLACEMENT_3D('',#1845,#1507,#1508);
#1225=AXIS2_PLACEMENT_3D('',#1849,#1510,#1511);
#1226=AXIS2_PLACEMENT_3D('',#1856,#1515,#1516);
#1227=AXIS2_PLACEMENT_3D('',#1860,#1518,#1519);
#1228=AXIS2_PLACEMENT_3D('',#1864,#1521,#1522);
#1229=AXIS2_PLACEMENT_3D('',#1867,#1524,#1525);
#1230=AXIS2_PLACEMENT_3D('',#1868,#1526,#1527);
#1231=AXIS2_PLACEMENT_3D('',#1869,#1528,#1529);
#1232=AXIS2_PLACEMENT_3D('',#1870,#1530,#1531);
#1233=AXIS2_PLACEMENT_3D('',#1873,#1533,#1534);
#1234=AXIS2_PLACEMENT_3D('',#1875,#1535,#1536);
#1235=AXIS2_PLACEMENT_3D('',#1876,#1537,#1538);
#1236=AXIS2_PLACEMENT_3D('',#1878,#1540,#1541);
#1237=AXIS2_PLACEMENT_3D('',#1880,#1543,#1544);
#1238=AXIS2_PLACEMENT_3D('',#1882,#1546,#1547);
#1239=AXIS2_PLACEMENT_3D('',#1884,#1549,#1550);
#1240=AXIS2_PLACEMENT_3D('',#1886,#1552,#1553);
#1241=AXIS2_PLACEMENT_3D('',#1888,#1555,#1556);
#1242=AXIS2_PLACEMENT_3D('',#1891,#1559,#1560);
#1243=AXIS2_PLACEMENT_3D('',#1892,#1561,#1562);
#1244=AXIS2_PLACEMENT_3D('',#1895,#1565,#1566);
#1245=AXIS2_PLACEMENT_3D('',#1896,#1567,#1568);
#1246=AXIS2_PLACEMENT_3D('',#1898,#1570,#1571);
#1247=AXIS2_PLACEMENT_3D('',#1900,#1573,#1574);
#1248=AXIS2_PLACEMENT_3D('',#1902,#1576,#1577);
#1249=AXIS2_PLACEMENT_3D('',#1904,#1579,#1580);
#1250=AXIS2_PLACEMENT_3D('',#1905,#1581,#1582);
#1251=AXIS2_PLACEMENT_3D('',#1906,#1583,#1584);
#1252=AXIS2_PLACEMENT_3D('',#1907,#1585,#1586);
#1253=DIRECTION('axis',(0.,0.,1.));
#1254=DIRECTION('refdir',(1.,0.,0.));
#1255=DIRECTION('axis',(0.,0.,1.));
#1256=DIRECTION('refdir',(1.,0.,0.));
#1257=DIRECTION('center_axis',(0.,0.,-1.));
#1258=DIRECTION('ref_axis',(0.707106781186549,-0.707106781186546,0.));
#1259=DIRECTION('center_axis',(0.,0.,1.));
#1260=DIRECTION('ref_axis',(0.707106781186549,-0.707106781186546,0.));
#1261=DIRECTION('',(0.,0.,1.));
#1262=DIRECTION('center_axis',(0.,0.,-1.));
#1263=DIRECTION('ref_axis',(0.707106781186549,-0.707106781186546,0.));
#1264=DIRECTION('',(0.,0.,-1.));
#1265=DIRECTION('center_axis',(0.,1.,0.));
#1266=DIRECTION('ref_axis',(1.,0.,0.));
#1267=DIRECTION('',(1.,0.,0.));
#1268=DIRECTION('',(0.,0.,1.));
#1269=DIRECTION('center_axis',(0.,-1.,0.));
#1270=DIRECTION('ref_axis',(0.707106781186546,0.,-0.707106781186549));
#1271=DIRECTION('',(1.,0.,0.));
#1272=DIRECTION('center_axis',(0.,-1.,0.));
#1273=DIRECTION('ref_axis',(-0.707106781186546,0.,-0.707106781186549));
#1274=DIRECTION('',(0.,0.,1.));
#1275=DIRECTION('',(-1.,0.,0.));
#1276=DIRECTION('',(0.,0.,1.));
#1277=DIRECTION('',(1.,0.,0.));
#1278=DIRECTION('center_axis',(0.,-1.,0.));
#1279=DIRECTION('ref_axis',(0.707106781186548,0.,0.707106781186548));
#1280=DIRECTION('',(0.,0.,-1.));
#1281=DIRECTION('center_axis',(0.,1.,0.));
#1282=DIRECTION('ref_axis',(-0.707106781186548,0.,-0.707106781186547));
#1283=DIRECTION('',(1.,0.,0.));
#1284=DIRECTION('center_axis',(0.,1.,0.));
#1285=DIRECTION('ref_axis',(0.707106781186549,0.,-0.707106781186546));
#1286=DIRECTION('',(0.,0.,-1.));
#1287=DIRECTION('center_axis',(0.,-1.,0.));
#1288=DIRECTION('ref_axis',(-0.707106781186545,0.,0.70710678118655));
#1289=DIRECTION('',(-1.,0.,0.));
#1290=DIRECTION('center_axis',(0.,0.,1.));
#1291=DIRECTION('ref_axis',(1.,0.,0.));
#1292=DIRECTION('',(0.,1.,0.));
#1293=DIRECTION('center_axis',(0.,0.,-1.));
#1294=DIRECTION('ref_axis',(0.707106781186549,0.707106781186546,0.));
#1295=DIRECTION('',(1.,0.,0.));
#1296=DIRECTION('',(0.,1.,0.));
#1297=DIRECTION('center_axis',(0.,0.,-1.));
#1298=DIRECTION('ref_axis',(1.,0.,0.));
#1299=DIRECTION('center_axis',(0.,0.,-1.));
#1300=DIRECTION('ref_axis',(1.,0.,0.));
#1301=DIRECTION('center_axis',(0.,0.,-1.));
#1302=DIRECTION('ref_axis',(0.707106781186549,0.707106781186546,0.));
#1303=DIRECTION('center_axis',(0.,0.,1.));
#1304=DIRECTION('ref_axis',(0.707106781186549,0.707106781186546,0.));
#1305=DIRECTION('',(0.,0.,1.));
#1306=DIRECTION('',(0.,0.,-1.));
#1307=DIRECTION('center_axis',(0.,1.,0.));
#1308=DIRECTION('ref_axis',(0.,0.,1.));
#1309=DIRECTION('',(-1.,0.,0.));
#1310=DIRECTION('center_axis',(0.,1.,0.));
#1311=DIRECTION('ref_axis',(-0.707106781186545,0.,0.70710678118655));
#1312=DIRECTION('',(0.,0.,-1.));
#1313=DIRECTION('center_axis',(0.,-1.,0.));
#1314=DIRECTION('ref_axis',(0.707106781186549,0.,-0.707106781186546));
#1315=DIRECTION('',(-1.,0.,0.));
#1316=DIRECTION('center_axis',(0.,-1.,0.));
#1317=DIRECTION('ref_axis',(-0.707106781186548,0.,-0.707106781186547));
#1318=DIRECTION('',(0.,0.,1.));
#1319=DIRECTION('center_axis',(0.,1.,0.));
#1320=DIRECTION('ref_axis',(0.707106781186548,0.,0.707106781186548));
#1321=DIRECTION('',(-1.,0.,0.));
#1322=DIRECTION('',(0.,0.,-1.));
#1323=DIRECTION('',(1.,0.,0.));
#1324=DIRECTION('',(0.,0.,-1.));
#1325=DIRECTION('center_axis',(0.,1.,0.));
#1326=DIRECTION('ref_axis',(-0.707106781186546,0.,-0.707106781186549));
#1327=DIRECTION('',(1.,0.,0.));
#1328=DIRECTION('center_axis',(0.,1.,0.));
#1329=DIRECTION('ref_axis',(0.707106781186546,0.,-0.707106781186549));
#1330=DIRECTION('',(0.,0.,1.));
#1331=DIRECTION('center_axis',(0.,0.,1.));
#1332=DIRECTION('ref_axis',(-0.707106781186549,0.707106781186546,0.));
#1333=DIRECTION('center_axis',(0.,0.,-1.));
#1334=DIRECTION('ref_axis',(-0.707106781186549,0.707106781186546,0.));
#1335=DIRECTION('center_axis',(0.,0.,1.));
#1336=DIRECTION('ref_axis',(-0.707106781186549,0.707106781186546,0.));
#1337=DIRECTION('',(0.,0.,1.));
#1338=DIRECTION('center_axis',(0.,0.,1.));
#1339=DIRECTION('ref_axis',(1.,0.,0.));
#1340=DIRECTION('',(0.,1.,0.));
#1341=DIRECTION('center_axis',(0.,0.,-1.));
#1342=DIRECTION('ref_axis',(-0.707106781186549,-0.707106781186546,0.));
#1343=DIRECTION('',(0.,1.,0.));
#1344=DIRECTION('center_axis',(0.,0.,-1.));
#1345=DIRECTION('ref_axis',(1.,0.,0.));
#1346=DIRECTION('center_axis',(0.,0.,-1.));
#1347=DIRECTION('ref_axis',(1.,0.,0.));
#1348=DIRECTION('center_axis',(0.,0.,-1.));
#1349=DIRECTION('ref_axis',(-0.707106781186549,-0.707106781186546,0.));
#1350=DIRECTION('center_axis',(0.,0.,1.));
#1351=DIRECTION('ref_axis',(-0.707106781186549,-0.707106781186546,0.));
#1352=DIRECTION('',(0.,0.,-1.));
#1353=DIRECTION('center_axis',(0.,0.,-1.));
#1354=DIRECTION('ref_axis',(-1.,0.,0.));
#1355=DIRECTION('',(0.,1.,0.));
#1356=DIRECTION('',(0.,1.,0.));
#1357=DIRECTION('center_axis',(0.,0.,1.));
#1358=DIRECTION('ref_axis',(1.,0.,0.));
#1359=DIRECTION('center_axis',(0.,0.,1.));
#1360=DIRECTION('ref_axis',(1.,0.,0.));
#1361=DIRECTION('center_axis',(0.,1.,0.));
#1362=DIRECTION('ref_axis',(0.707106781186548,0.,0.707106781186548));
#1363=DIRECTION('',(0.,-1.,0.));
#1364=DIRECTION('center_axis',(0.,1.,0.));
#1365=DIRECTION('ref_axis',(-0.707106781186545,0.,0.70710678118655));
#1366=DIRECTION('',(0.,1.,0.));
#1367=DIRECTION('',(0.,-1.,0.));
#1368=DIRECTION('center_axis',(1.,0.,0.));
#1369=DIRECTION('ref_axis',(0.,0.,-1.));
#1370=DIRECTION('',(0.,-1.,0.));
#1371=DIRECTION('center_axis',(0.,1.,0.));
#1372=DIRECTION('ref_axis',(0.707106781186549,0.,-0.707106781186546));
#1373=DIRECTION('',(0.,1.,0.));
#1374=DIRECTION('center_axis',(0.,0.,-1.));
#1375=DIRECTION('ref_axis',(-1.,0.,0.));
#1376=DIRECTION('',(0.,-1.,0.));
#1377=DIRECTION('center_axis',(0.,1.,0.));
#1378=DIRECTION('ref_axis',(-0.707106781186548,0.,-0.707106781186547));
#1379=DIRECTION('',(0.,1.,0.));
#1380=DIRECTION('center_axis',(0.,1.,0.));
#1381=DIRECTION('ref_axis',(0.707106781186546,0.,-0.707106781186549));
#1382=DIRECTION('',(0.,1.,0.));
#1383=DIRECTION('',(0.,-1.,0.));
#1384=DIRECTION('center_axis',(-1.,0.,0.));
#1385=DIRECTION('ref_axis',(0.,0.,1.));
#1386=DIRECTION('center_axis',(0.,1.,0.));
#1387=DIRECTION('ref_axis',(-0.707106781186546,0.,-0.707106781186549));
#1388=DIRECTION('',(0.,1.,0.));
#1389=DIRECTION('',(0.,-1.,0.));
#1390=DIRECTION('center_axis',(0.,0.,1.));
#1391=DIRECTION('ref_axis',(1.,0.,0.));
#1392=DIRECTION('center_axis',(0.,0.,1.));
#1393=DIRECTION('ref_axis',(1.,0.,0.));
#1394=DIRECTION('',(0.,0.,1.));
#1395=DIRECTION('center_axis',(0.,0.,1.));
#1396=DIRECTION('ref_axis',(1.,0.,0.));
#1397=DIRECTION('center_axis',(0.,0.,1.));
#1398=DIRECTION('ref_axis',(1.,0.,0.));
#1399=DIRECTION('',(0.,0.,1.));
#1400=DIRECTION('center_axis',(0.,0.,1.));
#1401=DIRECTION('ref_axis',(1.,0.,0.));
#1402=DIRECTION('',(0.,0.,1.));
#1403=DIRECTION('center_axis',(0.,0.,1.));
#1404=DIRECTION('ref_axis',(1.,0.,0.));
#1405=DIRECTION('center_axis',(0.,0.,1.));
#1406=DIRECTION('ref_axis',(1.,0.,0.));
#1407=DIRECTION('',(0.,0.,1.));
#1408=DIRECTION('center_axis',(1.,0.,0.));
#1409=DIRECTION('ref_axis',(0.,0.,-1.));
#1410=DIRECTION('center_axis',(-1.,0.,0.));
#1411=DIRECTION('ref_axis',(0.,0.,1.));
#1412=DIRECTION('center_axis',(-1.,0.,0.));
#1413=DIRECTION('ref_axis',(0.,0.,1.));
#1414=DIRECTION('center_axis',(0.,0.,-1.));
#1415=DIRECTION('ref_axis',(-1.,0.,0.));
#1416=DIRECTION('',(0.,1.,0.));
#1417=DIRECTION('center_axis',(1.,0.,0.));
#1418=DIRECTION('ref_axis',(0.,0.,-1.));
#1419=DIRECTION('axis',(0.,0.,1.));
#1420=DIRECTION('refdir',(1.,0.,0.));
#1421=DIRECTION('center_axis',(0.,0.,1.));
#1422=DIRECTION('ref_axis',(-0.707106781186547,0.707106781186548,0.));
#1423=DIRECTION('center_axis',(0.,0.,-1.));
#1424=DIRECTION('ref_axis',(-0.707106781186547,0.707106781186548,0.));
#1425=DIRECTION('',(0.,0.,-1.));
#1426=DIRECTION('center_axis',(0.,0.,1.));
#1427=DIRECTION('ref_axis',(-0.707106781186547,0.707106781186548,0.));
#1428=DIRECTION('',(0.,0.,1.));
#1429=DIRECTION('center_axis',(0.,0.,1.));
#1430=DIRECTION('ref_axis',(1.,0.,0.));
#1431=DIRECTION('',(0.,1.,0.));
#1432=DIRECTION('center_axis',(0.,0.,-1.));
#1433=DIRECTION('ref_axis',(-0.707106781186549,-0.707106781186546,0.));
#1434=DIRECTION('',(-1.,0.,0.));
#1435=DIRECTION('',(0.,1.,0.));
#1436=DIRECTION('',(1.,0.,0.));
#1437=DIRECTION('',(0.,1.,0.));
#1438=DIRECTION('',(1.,0.,0.));
#1439=DIRECTION('center_axis',(0.,0.,-1.));
#1440=DIRECTION('ref_axis',(0.707106781186549,-0.707106781186546,0.));
#1441=DIRECTION('',(0.,1.,0.));
#1442=DIRECTION('center_axis',(0.,0.,-1.));
#1443=DIRECTION('ref_axis',(0.707106781186547,0.707106781186548,0.));
#1444=DIRECTION('',(1.,0.,0.));
#1445=DIRECTION('center_axis',(0.,0.,-1.));
#1446=DIRECTION('ref_axis',(1.,0.,0.));
#1447=DIRECTION('center_axis',(0.,0.,-1.));
#1448=DIRECTION('ref_axis',(1.,0.,0.));
#1449=DIRECTION('center_axis',(0.,0.,-1.));
#1450=DIRECTION('ref_axis',(1.,0.,0.));
#1451=DIRECTION('center_axis',(0.,0.,-1.));
#1452=DIRECTION('ref_axis',(1.,0.,0.));
#1453=DIRECTION('center_axis',(-1.,0.,0.));
#1454=DIRECTION('ref_axis',(0.,0.,1.));
#1455=DIRECTION('',(0.,1.,0.));
#1456=DIRECTION('',(0.,0.,-1.));
#1457=DIRECTION('center_axis',(0.,0.,-1.));
#1458=DIRECTION('ref_axis',(0.707106781186547,0.707106781186548,0.));
#1459=DIRECTION('center_axis',(0.,0.,1.));
#1460=DIRECTION('ref_axis',(0.707106781186547,0.707106781186548,0.));
#1461=DIRECTION('',(0.,0.,1.));
#1462=DIRECTION('',(0.,0.,-1.));
#1463=DIRECTION('center_axis',(0.,0.,-1.));
#1464=DIRECTION('ref_axis',(-1.,0.,0.));
#1465=DIRECTION('',(0.,1.,0.));
#1466=DIRECTION('center_axis',(0.,0.,1.));
#1467=DIRECTION('ref_axis',(0.707106781186549,-0.707106781186546,0.));
#1468=DIRECTION('',(-1.,0.,0.));
#1469=DIRECTION('',(0.,-1.,0.));
#1470=DIRECTION('',(-1.,0.,0.));
#1471=DIRECTION('center_axis',(0.,0.,1.));
#1472=DIRECTION('ref_axis',(1.,0.,0.));
#1473=DIRECTION('center_axis',(0.,0.,1.));
#1474=DIRECTION('ref_axis',(1.,0.,0.));
#1475=DIRECTION('center_axis',(1.,0.,0.));
#1476=DIRECTION('ref_axis',(0.,0.,-1.));
#1477=DIRECTION('',(0.,0.,1.));
#1478=DIRECTION('center_axis',(0.,1.,0.));
#1479=DIRECTION('ref_axis',(-1.,0.,0.));
#1480=DIRECTION('center_axis',(0.,-1.,0.));
#1481=DIRECTION('ref_axis',(-1.,0.,0.));
#1482=DIRECTION('',(0.,0.,-1.));
#1483=DIRECTION('center_axis',(0.,1.,0.));
#1484=DIRECTION('ref_axis',(1.,0.,2.59052039079203E-15));
#1485=DIRECTION('',(-1.,0.,8.54017711250121E-17));
#1486=DIRECTION('center_axis',(0.,1.,0.));
#1487=DIRECTION('ref_axis',(0.,0.,-1.));
#1488=DIRECTION('',(-3.1720657846433E-16,0.,1.));
#1489=DIRECTION('center_axis',(0.,-1.,0.));
#1490=DIRECTION('ref_axis',(0.,0.,1.));
#1491=DIRECTION('',(-1.,0.,0.));
#1492=DIRECTION('center_axis',(0.,1.,0.));
#1493=DIRECTION('ref_axis',(-1.,0.,0.));
#1494=DIRECTION('',(0.,0.,1.));
#1495=DIRECTION('',(0.,0.,-1.));
#1496=DIRECTION('center_axis',(0.,1.,0.));
#1497=DIRECTION('ref_axis',(-0.707106781186546,0.,-0.707106781186549));
#1498=DIRECTION('',(1.,0.,0.));
#1499=DIRECTION('center_axis',(0.,1.,0.));
#1500=DIRECTION('ref_axis',(0.707106781186546,0.,-0.707106781186549));
#1501=DIRECTION('center_axis',(0.,0.,-1.));
#1502=DIRECTION('ref_axis',(0.707106781186549,-0.707106781186546,0.));
#1503=DIRECTION('',(0.,0.,-1.));
#1504=DIRECTION('center_axis',(0.,1.,0.));
#1505=DIRECTION('ref_axis',(1.,0.,0.));
#1506=DIRECTION('',(0.,0.,1.));
#1507=DIRECTION('center_axis',(0.,-1.,0.));
#1508=DIRECTION('ref_axis',(0.707106781186546,0.,-0.707106781186549));
#1509=DIRECTION('',(1.,0.,0.));
#1510=DIRECTION('center_axis',(0.,-1.,0.));
#1511=DIRECTION('ref_axis',(-0.707106781186546,0.,-0.707106781186549));
#1512=DIRECTION('',(0.,0.,1.));
#1513=DIRECTION('',(0.,0.,1.));
#1514=DIRECTION('',(1.,0.,0.));
#1515=DIRECTION('center_axis',(0.,-1.,0.));
#1516=DIRECTION('ref_axis',(0.707106781186548,0.,0.707106781186548));
#1517=DIRECTION('',(0.,0.,-1.));
#1518=DIRECTION('center_axis',(0.,1.,0.));
#1519=DIRECTION('ref_axis',(-0.707106781186548,0.,-0.707106781186547));
#1520=DIRECTION('',(1.,0.,0.));
#1521=DIRECTION('center_axis',(0.,1.,0.));
#1522=DIRECTION('ref_axis',(0.707106781186549,0.,-0.707106781186546));
#1523=DIRECTION('',(0.,0.,-1.));
#1524=DIRECTION('center_axis',(0.,-1.,0.));
#1525=DIRECTION('ref_axis',(-0.707106781186545,0.,0.70710678118655));
#1526=DIRECTION('center_axis',(0.,0.,-1.));
#1527=DIRECTION('ref_axis',(-0.707106781186549,-0.707106781186546,0.));
#1528=DIRECTION('center_axis',(0.,0.,1.));
#1529=DIRECTION('ref_axis',(-0.707106781186549,-0.707106781186546,0.));
#1530=DIRECTION('center_axis',(0.,0.,-1.));
#1531=DIRECTION('ref_axis',(-1.,0.,0.));
#1532=DIRECTION('',(0.,1.,0.));
#1533=DIRECTION('center_axis',(0.,0.,1.));
#1534=DIRECTION('ref_axis',(1.,0.,0.));
#1535=DIRECTION('center_axis',(0.,0.,1.));
#1536=DIRECTION('ref_axis',(1.,0.,0.));
#1537=DIRECTION('center_axis',(0.,1.,0.));
#1538=DIRECTION('ref_axis',(0.707106781186548,0.,0.707106781186548));
#1539=DIRECTION('',(0.,-1.,0.));
#1540=DIRECTION('center_axis',(0.,1.,0.));
#1541=DIRECTION('ref_axis',(-0.707106781186545,0.,0.70710678118655));
#1542=DIRECTION('',(0.,1.,0.));
#1543=DIRECTION('center_axis',(1.,0.,0.));
#1544=DIRECTION('ref_axis',(0.,0.,-1.));
#1545=DIRECTION('',(0.,-1.,0.));
#1546=DIRECTION('center_axis',(0.,1.,0.));
#1547=DIRECTION('ref_axis',(0.707106781186549,0.,-0.707106781186546));
#1548=DIRECTION('',(0.,1.,0.));
#1549=DIRECTION('center_axis',(0.,0.,-1.));
#1550=DIRECTION('ref_axis',(-1.,0.,0.));
#1551=DIRECTION('',(0.,-1.,0.));
#1552=DIRECTION('center_axis',(0.,1.,0.));
#1553=DIRECTION('ref_axis',(-0.707106781186548,0.,-0.707106781186547));
#1554=DIRECTION('',(0.,1.,0.));
#1555=DIRECTION('center_axis',(0.,1.,0.));
#1556=DIRECTION('ref_axis',(0.707106781186546,0.,-0.707106781186549));
#1557=DIRECTION('',(0.,1.,0.));
#1558=DIRECTION('',(0.,-1.,0.));
#1559=DIRECTION('center_axis',(-1.,0.,0.));
#1560=DIRECTION('ref_axis',(0.,0.,1.));
#1561=DIRECTION('center_axis',(0.,1.,0.));
#1562=DIRECTION('ref_axis',(-0.707106781186546,0.,-0.707106781186549));
#1563=DIRECTION('',(0.,1.,0.));
#1564=DIRECTION('',(0.,-1.,0.));
#1565=DIRECTION('center_axis',(0.,0.,1.));
#1566=DIRECTION('ref_axis',(1.,0.,0.));
#1567=DIRECTION('center_axis',(0.,0.,1.));
#1568=DIRECTION('ref_axis',(1.,0.,0.));
#1569=DIRECTION('',(0.,0.,1.));
#1570=DIRECTION('center_axis',(0.,0.,1.));
#1571=DIRECTION('ref_axis',(1.,0.,0.));
#1572=DIRECTION('',(0.,0.,1.));
#1573=DIRECTION('center_axis',(0.,0.,1.));
#1574=DIRECTION('ref_axis',(1.,0.,0.));
#1575=DIRECTION('',(0.,0.,1.));
#1576=DIRECTION('center_axis',(0.,0.,1.));
#1577=DIRECTION('ref_axis',(1.,0.,0.));
#1578=DIRECTION('',(0.,0.,1.));
#1579=DIRECTION('center_axis',(1.,0.,0.));
#1580=DIRECTION('ref_axis',(0.,0.,-1.));
#1581=DIRECTION('center_axis',(-1.,0.,0.));
#1582=DIRECTION('ref_axis',(0.,0.,1.));
#1583=DIRECTION('',(0.,0.,1.));
#1584=DIRECTION('',(1.,0.,0.));
#1585=DIRECTION('',(0.,0.,1.));
#1586=DIRECTION('',(1.,-2.71171374545689E-73,0.));
#1587=CARTESIAN_POINT('',(0.,0.,0.));
#1588=CARTESIAN_POINT('',(0.,0.,0.));
#1589=CARTESIAN_POINT('Origin',(36.5,1.,22.));
#1590=CARTESIAN_POINT('',(36.5,0.,26.));
#1591=CARTESIAN_POINT('',(37.5,1.,26.));
#1592=CARTESIAN_POINT('Origin',(36.5,1.,26.));
#1593=CARTESIAN_POINT('',(37.5,1.,31.));
#1594=CARTESIAN_POINT('',(37.5,1.,22.));
#1595=CARTESIAN_POINT('',(36.5,0.,31.));
#1596=CARTESIAN_POINT('Origin',(36.5,1.,31.));
#1597=CARTESIAN_POINT('',(36.5,0.,22.));
#1598=CARTESIAN_POINT('Origin',(0.,0.,13.));
#1599=CARTESIAN_POINT('',(22.5,0.,31.));
#1600=CARTESIAN_POINT('',(22.5,0.,31.));
#1601=CARTESIAN_POINT('',(22.5,0.,1.));
#1602=CARTESIAN_POINT('',(22.5,0.,0.));
#1603=CARTESIAN_POINT('',(21.5,0.,0.));
#1604=CARTESIAN_POINT('Origin',(21.5,0.,1.));
#1605=CARTESIAN_POINT('',(-21.5,0.,0.));
#1606=CARTESIAN_POINT('',(-22.5,0.,0.));
#1607=CARTESIAN_POINT('',(-22.5,0.,1.));
#1608=CARTESIAN_POINT('Origin',(-21.5,0.,1.));
#1609=CARTESIAN_POINT('',(-22.5,0.,31.));
#1610=CARTESIAN_POINT('',(-22.5,0.,0.));
#1611=CARTESIAN_POINT('',(-36.5,0.,31.));
#1612=CARTESIAN_POINT('',(-22.5,0.,31.));
#1613=CARTESIAN_POINT('',(-36.5,0.,26.));
#1614=CARTESIAN_POINT('',(-36.5,0.,19.5));
#1615=CARTESIAN_POINT('',(-29.,0.,26.));
#1616=CARTESIAN_POINT('',(-37.5,0.,26.));
#1617=CARTESIAN_POINT('',(-27.5,0.,24.5));
#1618=CARTESIAN_POINT('Origin',(-29.,0.,24.5));
#1619=CARTESIAN_POINT('',(-27.5,0.,-3.5));
#1620=CARTESIAN_POINT('',(-27.5,0.,26.));
#1621=CARTESIAN_POINT('',(-26.,0.,-5.));
#1622=CARTESIAN_POINT('Origin',(-26.,0.,-3.5));
#1623=CARTESIAN_POINT('',(26.,0.,-5.));
#1624=CARTESIAN_POINT('',(-27.5,0.,-5.));
#1625=CARTESIAN_POINT('',(27.5,0.,-3.5));
#1626=CARTESIAN_POINT('Origin',(26.,0.,-3.5));
#1627=CARTESIAN_POINT('',(27.5,0.,24.5));
#1628=CARTESIAN_POINT('',(27.5,0.,26.));
#1629=CARTESIAN_POINT('',(29.,0.,26.));
#1630=CARTESIAN_POINT('Origin',(29.,0.,24.5));
#1631=CARTESIAN_POINT('',(37.5,0.,26.));
#1632=CARTESIAN_POINT('Origin',(22.5,0.,31.));
#1633=CARTESIAN_POINT('',(37.5,19.,31.));
#1634=CARTESIAN_POINT('',(37.5,0.,31.));
#1635=CARTESIAN_POINT('',(36.5,20.,31.));
#1636=CARTESIAN_POINT('Origin',(36.5,19.,31.));
#1637=CARTESIAN_POINT('',(22.5,20.,31.));
#1638=CARTESIAN_POINT('',(22.5,20.,31.));
#1639=CARTESIAN_POINT('',(22.5,0.,31.));
#1640=CARTESIAN_POINT('',(30.9,4.00000000000001,31.));
#1641=CARTESIAN_POINT('Origin',(32.5,4.00000000000001,31.));
#1642=CARTESIAN_POINT('',(30.9,16.,31.));
#1643=CARTESIAN_POINT('Origin',(32.5,16.,31.));
#1644=CARTESIAN_POINT('Origin',(36.5,19.,22.));
#1645=CARTESIAN_POINT('',(37.5,19.,26.));
#1646=CARTESIAN_POINT('',(36.5,20.,26.));
#1647=CARTESIAN_POINT('Origin',(36.5,19.,26.));
#1648=CARTESIAN_POINT('',(36.5,20.,22.));
#1649=CARTESIAN_POINT('',(37.5,19.,22.));
#1650=CARTESIAN_POINT('Origin',(0.,20.,13.));
#1651=CARTESIAN_POINT('',(29.,20.,26.));
#1652=CARTESIAN_POINT('',(37.5,20.,26.));
#1653=CARTESIAN_POINT('',(27.5,20.,24.5));
#1654=CARTESIAN_POINT('Origin',(29.,20.,24.5));
#1655=CARTESIAN_POINT('',(27.5,20.,-3.5));
#1656=CARTESIAN_POINT('',(27.5,20.,26.));
#1657=CARTESIAN_POINT('',(26.,20.,-5.));
#1658=CARTESIAN_POINT('Origin',(26.,20.,-3.5));
#1659=CARTESIAN_POINT('',(-26.,20.,-5.));
#1660=CARTESIAN_POINT('',(-27.5,20.,-5.));
#1661=CARTESIAN_POINT('',(-27.5,20.,-3.5));
#1662=CARTESIAN_POINT('Origin',(-26.,20.,-3.5));
#1663=CARTESIAN_POINT('',(-27.5,20.,24.5));
#1664=CARTESIAN_POINT('',(-27.5,20.,26.));
#1665=CARTESIAN_POINT('',(-29.,20.,26.));
#1666=CARTESIAN_POINT('Origin',(-29.,20.,24.5));
#1667=CARTESIAN_POINT('',(-36.5,20.,26.));
#1668=CARTESIAN_POINT('',(-37.5,20.,26.));
#1669=CARTESIAN_POINT('',(-36.5,20.,31.));
#1670=CARTESIAN_POINT('',(-36.5,20.,19.5));
#1671=CARTESIAN_POINT('',(-22.5,20.,31.));
#1672=CARTESIAN_POINT('',(-22.5,20.,31.));
#1673=CARTESIAN_POINT('',(-22.5,20.,1.));
#1674=CARTESIAN_POINT('',(-22.5,20.,0.));
#1675=CARTESIAN_POINT('',(-21.5,20.,0.));
#1676=CARTESIAN_POINT('Origin',(-21.5,20.,1.));
#1677=CARTESIAN_POINT('',(21.5,20.,0.));
#1678=CARTESIAN_POINT('',(-22.5,20.,0.));
#1679=CARTESIAN_POINT('',(22.5,20.,1.));
#1680=CARTESIAN_POINT('Origin',(21.5,20.,1.));
#1681=CARTESIAN_POINT('',(22.5,20.,0.));
#1682=CARTESIAN_POINT('Origin',(-36.5,19.,19.5));
#1683=CARTESIAN_POINT('',(-37.5,19.,31.));
#1684=CARTESIAN_POINT('Origin',(-36.5,19.,31.));
#1685=CARTESIAN_POINT('',(-37.5,19.,26.));
#1686=CARTESIAN_POINT('Origin',(-36.5,19.,26.));
#1687=CARTESIAN_POINT('',(-37.5,19.,19.5));
#1688=CARTESIAN_POINT('Origin',(-37.5,0.,31.));
#1689=CARTESIAN_POINT('',(-37.5,1.,31.));
#1690=CARTESIAN_POINT('',(-37.5,0.,31.));
#1691=CARTESIAN_POINT('Origin',(-36.5,1.,31.));
#1692=CARTESIAN_POINT('',(-22.5,0.,31.));
#1693=CARTESIAN_POINT('',(-34.1,4.,31.));
#1694=CARTESIAN_POINT('Origin',(-32.5,4.,31.));
#1695=CARTESIAN_POINT('',(-34.1,16.,31.));
#1696=CARTESIAN_POINT('Origin',(-32.5,16.,31.));
#1697=CARTESIAN_POINT('Origin',(-36.5,1.,19.5));
#1698=CARTESIAN_POINT('',(-37.5,1.,26.));
#1699=CARTESIAN_POINT('Origin',(-36.5,1.,26.));
#1700=CARTESIAN_POINT('',(-37.5,1.,19.5));
#1701=CARTESIAN_POINT('Origin',(-27.5,0.,26.));
#1702=CARTESIAN_POINT('',(-29.,0.,26.));
#1703=CARTESIAN_POINT('',(-37.5,0.,26.));
#1704=CARTESIAN_POINT('',(-34.1,16.,26.));
#1705=CARTESIAN_POINT('Origin',(-32.5,16.,26.));
#1706=CARTESIAN_POINT('',(-34.1,4.,26.));
#1707=CARTESIAN_POINT('Origin',(-32.5,4.,26.));
#1708=CARTESIAN_POINT('Origin',(-29.,0.,24.5));
#1709=CARTESIAN_POINT('',(-27.5,0.,24.5));
#1710=CARTESIAN_POINT('Origin',(29.,0.,24.5));
#1711=CARTESIAN_POINT('',(27.5,0.,24.5));
#1712=CARTESIAN_POINT('',(29.,0.,26.));
#1713=CARTESIAN_POINT('Origin',(27.5,0.,26.));
#1714=CARTESIAN_POINT('',(27.5,0.,-3.5));
#1715=CARTESIAN_POINT('Origin',(26.,0.,-3.5));
#1716=CARTESIAN_POINT('',(26.,0.,-5.));
#1717=CARTESIAN_POINT('Origin',(27.5,0.,-5.));
#1718=CARTESIAN_POINT('',(-26.,0.,-5.));
#1719=CARTESIAN_POINT('Origin',(-26.,0.,-3.5));
#1720=CARTESIAN_POINT('',(-27.5,0.,-3.5));
#1721=CARTESIAN_POINT('Origin',(21.5,0.,1.));
#1722=CARTESIAN_POINT('',(22.5,0.,1.));
#1723=CARTESIAN_POINT('',(21.5,0.,0.));
#1724=CARTESIAN_POINT('Origin',(22.5,0.,0.));
#1725=CARTESIAN_POINT('Origin',(-21.5,0.,1.));
#1726=CARTESIAN_POINT('',(-21.5,0.,0.));
#1727=CARTESIAN_POINT('',(-22.5,0.,1.));
#1728=CARTESIAN_POINT('Origin',(-22.5,0.,0.));
#1729=CARTESIAN_POINT('Origin',(-32.5,16.,26.));
#1730=CARTESIAN_POINT('',(-34.1,16.,26.));
#1731=CARTESIAN_POINT('Origin',(32.5,4.00000000000001,26.));
#1732=CARTESIAN_POINT('',(30.9,4.00000000000001,26.));
#1733=CARTESIAN_POINT('Origin',(32.5,4.00000000000001,26.));
#1734=CARTESIAN_POINT('',(30.9,4.00000000000001,26.));
#1735=CARTESIAN_POINT('Origin',(-32.5,4.,26.));
#1736=CARTESIAN_POINT('',(-34.1,4.,26.));
#1737=CARTESIAN_POINT('Origin',(32.5,16.,26.));
#1738=CARTESIAN_POINT('',(30.9,16.,26.));
#1739=CARTESIAN_POINT('Origin',(32.5,16.,26.));
#1740=CARTESIAN_POINT('',(30.9,16.,26.));
#1741=CARTESIAN_POINT('Origin',(-22.5,0.,31.));
#1742=CARTESIAN_POINT('Origin',(-37.5,0.,26.));
#1743=CARTESIAN_POINT('Origin',(-27.5,0.,-5.));
#1744=CARTESIAN_POINT('Origin',(37.5,0.,26.));
#1745=CARTESIAN_POINT('',(37.5,0.,26.));
#1746=CARTESIAN_POINT('Origin',(37.5,0.,31.));
#1747=CARTESIAN_POINT('',(0.,0.,0.));
#1748=CARTESIAN_POINT('Origin',(-34.5,20.,19.5));
#1749=CARTESIAN_POINT('',(-37.5,20.,31.));
#1750=CARTESIAN_POINT('',(-34.5,23.,31.));
#1751=CARTESIAN_POINT('Origin',(-34.5,20.,31.));
#1752=CARTESIAN_POINT('',(-34.5,23.,26.));
#1753=CARTESIAN_POINT('',(-34.5,23.,19.5));
#1754=CARTESIAN_POINT('',(-37.5,20.,26.));
#1755=CARTESIAN_POINT('Origin',(-34.5,20.,26.));
#1756=CARTESIAN_POINT('',(-37.5,20.,19.5));
#1757=CARTESIAN_POINT('Origin',(22.5,0.,31.));
#1758=CARTESIAN_POINT('',(-37.5,1.,31.));
#1759=CARTESIAN_POINT('',(-37.5,20.,31.));
#1760=CARTESIAN_POINT('',(-36.5,0.,31.));
#1761=CARTESIAN_POINT('Origin',(-36.5,1.,31.));
#1762=CARTESIAN_POINT('',(-22.5,0.,31.));
#1763=CARTESIAN_POINT('',(-22.5,0.,31.));
#1764=CARTESIAN_POINT('',(-22.5,20.,31.));
#1765=CARTESIAN_POINT('',(-22.5,0.,31.));
#1766=CARTESIAN_POINT('',(22.5,20.,31.));
#1767=CARTESIAN_POINT('',(-37.5,20.,31.));
#1768=CARTESIAN_POINT('',(22.5,0.,31.));
#1769=CARTESIAN_POINT('',(22.5,0.,31.));
#1770=CARTESIAN_POINT('',(36.5,0.,31.));
#1771=CARTESIAN_POINT('',(22.5,0.,31.));
#1772=CARTESIAN_POINT('',(37.5,1.,31.));
#1773=CARTESIAN_POINT('Origin',(36.5,1.,31.));
#1774=CARTESIAN_POINT('',(37.5,20.,31.));
#1775=CARTESIAN_POINT('',(37.5,20.,31.));
#1776=CARTESIAN_POINT('',(34.5,23.,31.));
#1777=CARTESIAN_POINT('Origin',(34.5,20.,31.));
#1778=CARTESIAN_POINT('',(-37.5,23.,31.));
#1779=CARTESIAN_POINT('',(30.9,16.,31.));
#1780=CARTESIAN_POINT('Origin',(32.5,16.,31.));
#1781=CARTESIAN_POINT('',(30.9,4.00000000000001,31.));
#1782=CARTESIAN_POINT('Origin',(32.5,4.00000000000001,31.));
#1783=CARTESIAN_POINT('',(-34.1,4.,31.));
#1784=CARTESIAN_POINT('Origin',(-32.5,4.,31.));
#1785=CARTESIAN_POINT('',(-34.1,16.,31.));
#1786=CARTESIAN_POINT('Origin',(-32.5,16.,31.));
#1787=CARTESIAN_POINT('Origin',(-37.5,0.,26.));
#1788=CARTESIAN_POINT('',(-37.5,1.,26.));
#1789=CARTESIAN_POINT('',(-37.5,0.,26.));
#1790=CARTESIAN_POINT('',(-37.5,1.,19.5));
#1791=CARTESIAN_POINT('Origin',(34.5,20.,22.));
#1792=CARTESIAN_POINT('',(37.5,20.,26.));
#1793=CARTESIAN_POINT('',(34.5,23.,26.));
#1794=CARTESIAN_POINT('Origin',(34.5,20.,26.));
#1795=CARTESIAN_POINT('',(34.5,23.,22.));
#1796=CARTESIAN_POINT('',(37.5,20.,22.));
#1797=CARTESIAN_POINT('Origin',(37.5,0.,26.));
#1798=CARTESIAN_POINT('',(37.5,1.,26.));
#1799=CARTESIAN_POINT('',(37.5,0.,26.));
#1800=CARTESIAN_POINT('',(36.5,0.,26.));
#1801=CARTESIAN_POINT('Origin',(36.5,1.,26.));
#1802=CARTESIAN_POINT('',(29.,0.,26.));
#1803=CARTESIAN_POINT('',(37.5,0.,26.));
#1804=CARTESIAN_POINT('',(29.,23.,26.));
#1805=CARTESIAN_POINT('',(29.,0.,26.));
#1806=CARTESIAN_POINT('',(37.5,23.,26.));
#1807=CARTESIAN_POINT('',(30.9,16.,26.));
#1808=CARTESIAN_POINT('Origin',(32.5,16.,26.));
#1809=CARTESIAN_POINT('',(30.9,4.00000000000001,26.));
#1810=CARTESIAN_POINT('Origin',(32.5,4.00000000000001,26.));
#1811=CARTESIAN_POINT('Origin',(37.5,0.,31.));
#1812=CARTESIAN_POINT('',(37.5,1.,22.));
#1813=CARTESIAN_POINT('Origin',(0.,23.,13.));
#1814=CARTESIAN_POINT('',(27.5,23.,24.5));
#1815=CARTESIAN_POINT('Origin',(29.,23.,24.5));
#1816=CARTESIAN_POINT('',(27.5,23.,-3.5));
#1817=CARTESIAN_POINT('',(27.5,23.,24.5));
#1818=CARTESIAN_POINT('',(26.,23.,-5.));
#1819=CARTESIAN_POINT('Origin',(26.,23.,-3.5));
#1820=CARTESIAN_POINT('',(-26.,23.,-5.));
#1821=CARTESIAN_POINT('',(26.,23.,-5.));
#1822=CARTESIAN_POINT('',(-27.5,23.,-3.5));
#1823=CARTESIAN_POINT('Origin',(-26.,23.,-3.5));
#1824=CARTESIAN_POINT('',(-27.5,23.,24.5));
#1825=CARTESIAN_POINT('',(-27.5,23.,-3.5));
#1826=CARTESIAN_POINT('',(-29.,23.,26.));
#1827=CARTESIAN_POINT('Origin',(-29.,23.,24.5));
#1828=CARTESIAN_POINT('',(-29.,23.,26.));
#1829=CARTESIAN_POINT('Origin',(0.,20.,13.));
#1830=CARTESIAN_POINT('',(22.5,20.,1.));
#1831=CARTESIAN_POINT('',(22.5,20.,0.));
#1832=CARTESIAN_POINT('',(-22.5,20.,1.));
#1833=CARTESIAN_POINT('',(-22.5,20.,0.));
#1834=CARTESIAN_POINT('',(-21.5,20.,0.));
#1835=CARTESIAN_POINT('Origin',(-21.5,20.,1.));
#1836=CARTESIAN_POINT('',(21.5,20.,0.));
#1837=CARTESIAN_POINT('',(-22.5,20.,0.));
#1838=CARTESIAN_POINT('Origin',(21.5,20.,1.));
#1839=CARTESIAN_POINT('Origin',(36.5,1.,22.));
#1840=CARTESIAN_POINT('',(36.5,0.,22.));
#1841=CARTESIAN_POINT('Origin',(0.,0.,13.));
#1842=CARTESIAN_POINT('',(22.5,0.,1.));
#1843=CARTESIAN_POINT('',(22.5,0.,0.));
#1844=CARTESIAN_POINT('',(21.5,0.,0.));
#1845=CARTESIAN_POINT('Origin',(21.5,0.,1.));
#1846=CARTESIAN_POINT('',(-21.5,0.,0.));
#1847=CARTESIAN_POINT('',(-22.5,0.,0.));
#1848=CARTESIAN_POINT('',(-22.5,0.,1.));
#1849=CARTESIAN_POINT('Origin',(-21.5,0.,1.));
#1850=CARTESIAN_POINT('',(-22.5,0.,0.));
#1851=CARTESIAN_POINT('',(-36.5,0.,26.));
#1852=CARTESIAN_POINT('',(-36.5,0.,19.5));
#1853=CARTESIAN_POINT('',(-29.,0.,26.));
#1854=CARTESIAN_POINT('',(-37.5,0.,26.));
#1855=CARTESIAN_POINT('',(-27.5,0.,24.5));
#1856=CARTESIAN_POINT('Origin',(-29.,0.,24.5));
#1857=CARTESIAN_POINT('',(-27.5,0.,-3.5));
#1858=CARTESIAN_POINT('',(-27.5,0.,26.));
#1859=CARTESIAN_POINT('',(-26.,0.,-5.));
#1860=CARTESIAN_POINT('Origin',(-26.,0.,-3.5));
#1861=CARTESIAN_POINT('',(26.,0.,-5.));
#1862=CARTESIAN_POINT('',(-27.5,0.,-5.));
#1863=CARTESIAN_POINT('',(27.5,0.,-3.5));
#1864=CARTESIAN_POINT('Origin',(26.,0.,-3.5));
#1865=CARTESIAN_POINT('',(27.5,0.,24.5));
#1866=CARTESIAN_POINT('',(27.5,0.,26.));
#1867=CARTESIAN_POINT('Origin',(29.,0.,24.5));
#1868=CARTESIAN_POINT('Origin',(-36.5,1.,19.5));
#1869=CARTESIAN_POINT('Origin',(-36.5,1.,26.));
#1870=CARTESIAN_POINT('Origin',(37.5,0.,26.));
#1871=CARTESIAN_POINT('',(-29.,0.,26.));
#1872=CARTESIAN_POINT('',(-34.1,16.,26.));
#1873=CARTESIAN_POINT('Origin',(-32.5,16.,26.));
#1874=CARTESIAN_POINT('',(-34.1,4.,26.));
#1875=CARTESIAN_POINT('Origin',(-32.5,4.,26.));
#1876=CARTESIAN_POINT('Origin',(-29.,0.,24.5));
#1877=CARTESIAN_POINT('',(-27.5,0.,24.5));
#1878=CARTESIAN_POINT('Origin',(29.,0.,24.5));
#1879=CARTESIAN_POINT('',(27.5,0.,24.5));
#1880=CARTESIAN_POINT('Origin',(27.5,0.,26.));
#1881=CARTESIAN_POINT('',(27.5,0.,-3.5));
#1882=CARTESIAN_POINT('Origin',(26.,0.,-3.5));
#1883=CARTESIAN_POINT('',(26.,0.,-5.));
#1884=CARTESIAN_POINT('Origin',(27.5,0.,-5.));
#1885=CARTESIAN_POINT('',(-26.,0.,-5.));
#1886=CARTESIAN_POINT('Origin',(-26.,0.,-3.5));
#1887=CARTESIAN_POINT('',(-27.5,0.,-3.5));
#1888=CARTESIAN_POINT('Origin',(21.5,0.,1.));
#1889=CARTESIAN_POINT('',(22.5,0.,1.));
#1890=CARTESIAN_POINT('',(21.5,0.,0.));
#1891=CARTESIAN_POINT('Origin',(22.5,0.,0.));
#1892=CARTESIAN_POINT('Origin',(-21.5,0.,1.));
#1893=CARTESIAN_POINT('',(-21.5,0.,0.));
#1894=CARTESIAN_POINT('',(-22.5,0.,1.));
#1895=CARTESIAN_POINT('Origin',(-22.5,0.,0.));
#1896=CARTESIAN_POINT('Origin',(-32.5,16.,26.));
#1897=CARTESIAN_POINT('',(-34.1,16.,26.));
#1898=CARTESIAN_POINT('Origin',(32.5,4.00000000000001,26.));
#1899=CARTESIAN_POINT('',(30.9,4.00000000000001,26.));
#1900=CARTESIAN_POINT('Origin',(-32.5,4.,26.));
#1901=CARTESIAN_POINT('',(-34.1,4.,26.));
#1902=CARTESIAN_POINT('Origin',(32.5,16.,26.));
#1903=CARTESIAN_POINT('',(30.9,16.,26.));
#1904=CARTESIAN_POINT('Origin',(-22.5,0.,31.));
#1905=CARTESIAN_POINT('Origin',(-27.5,0.,-5.));
#1906=CARTESIAN_POINT('',(0.,0.,0.));
#1907=CARTESIAN_POINT('',(1.77635683940025E-14,55.,0.));
#1908=UNCERTAINTY_MEASURE_WITH_UNIT(LENGTH_MEASURE(0.01),#1916,
'DISTANCE_ACCURACY_VALUE',
'Maximum model space distance between geometric entities at asserted c
onnectivities');
#1909=UNCERTAINTY_MEASURE_WITH_UNIT(LENGTH_MEASURE(0.01),#1916,
'DISTANCE_ACCURACY_VALUE',
'Maximum model space distance between geometric entities at asserted c
onnectivities');
#1910=UNCERTAINTY_MEASURE_WITH_UNIT(LENGTH_MEASURE(0.01),#1916,
'DISTANCE_ACCURACY_VALUE',
'Maximum model space distance between geometric entities at asserted c
onnectivities');
#1911=UNCERTAINTY_MEASURE_WITH_UNIT(LENGTH_MEASURE(0.01),#1916,
'DISTANCE_ACCURACY_VALUE',
'Maximum model space distance between geometric entities at asserted c
onnectivities');
#1912=(
GEOMETRIC_REPRESENTATION_CONTEXT(3)
GLOBAL_UNCERTAINTY_ASSIGNED_CONTEXT((#1908))
GLOBAL_UNIT_ASSIGNED_CONTEXT((#1916,#1918,#1919))
REPRESENTATION_CONTEXT('','3D')
);
#1913=(
GEOMETRIC_REPRESENTATION_CONTEXT(3)
GLOBAL_UNCERTAINTY_ASSIGNED_CONTEXT((#1909))
GLOBAL_UNIT_ASSIGNED_CONTEXT((#1916,#1918,#1919))
REPRESENTATION_CONTEXT('','3D')
);
#1914=(
GEOMETRIC_REPRESENTATION_CONTEXT(3)
GLOBAL_UNCERTAINTY_ASSIGNED_CONTEXT((#1910))
GLOBAL_UNIT_ASSIGNED_CONTEXT((#1916,#1918,#1919))
REPRESENTATION_CONTEXT('','3D')
);
#1915=(
GEOMETRIC_REPRESENTATION_CONTEXT(3)
GLOBAL_UNCERTAINTY_ASSIGNED_CONTEXT((#1911))
GLOBAL_UNIT_ASSIGNED_CONTEXT((#1916,#1918,#1919))
REPRESENTATION_CONTEXT('','3D')
);
#1916=(
LENGTH_UNIT()
NAMED_UNIT(*)
SI_UNIT(.MILLI.,.METRE.)
);
#1917=(
LENGTH_UNIT()
NAMED_UNIT(*)
SI_UNIT($,.METRE.)
);
#1918=(
NAMED_UNIT(*)
PLANE_ANGLE_UNIT()
SI_UNIT($,.RADIAN.)
);
#1919=(
NAMED_UNIT(*)
SI_UNIT($,.STERADIAN.)
SOLID_ANGLE_UNIT()
);
#1920=SHAPE_DEFINITION_REPRESENTATION(#1923,#1928);
#1921=SHAPE_DEFINITION_REPRESENTATION(#1924,#1929);
#1922=SHAPE_DEFINITION_REPRESENTATION(#1925,#1930);
#1923=PRODUCT_DEFINITION_SHAPE('',$,#1932);
#1924=PRODUCT_DEFINITION_SHAPE('',$,#1933);
#1925=PRODUCT_DEFINITION_SHAPE('',$,#1934);
#1926=PRODUCT_DEFINITION_SHAPE($,$,#17);
#1927=PRODUCT_DEFINITION_SHAPE($,$,#18);
#1928=SHAPE_REPRESENTATION('',(#1136,#1251,#1252),#1912);
#1929=SHAPE_REPRESENTATION('',(#1137),#1913);
#1930=SHAPE_REPRESENTATION('',(#1194),#1914);
#1931=PRODUCT_DEFINITION_CONTEXT('part definition',#1942,'design');
#1932=PRODUCT_DEFINITION('2026-08-29-22-54-59-664',
'Battery_Mount_Assembly',#1935,#1931);
#1933=PRODUCT_DEFINITION('2026-08-29-22-54-59-666',
'Battery_Mount_Front',#1936,#1931);
#1934=PRODUCT_DEFINITION('2026-08-29-22-54-59-666_1',
'Battery_Mount_Back',#1937,#1931);
#1935=PRODUCT_DEFINITION_FORMATION('',$,#1944);
#1936=PRODUCT_DEFINITION_FORMATION('',$,#1945);
#1937=PRODUCT_DEFINITION_FORMATION('',$,#1946);
#1938=PRODUCT_RELATED_PRODUCT_CATEGORY('Battery_Mount_Assembly',
'Battery_Mount_Assembly',(#1944));
#1939=PRODUCT_RELATED_PRODUCT_CATEGORY('Battery_Mount_Front',
'Battery_Mount_Front',(#1945));
#1940=PRODUCT_RELATED_PRODUCT_CATEGORY('Battery_Mount_Back',
'Battery_Mount_Back',(#1946));
#1941=APPLICATION_PROTOCOL_DEFINITION('international standard',
'automotive_design',2009,#1942);
#1942=APPLICATION_CONTEXT(
'Core Data for Automotive Mechanical Design Process');
#1943=PRODUCT_CONTEXT('part definition',#1942,'mechanical');
#1944=PRODUCT('2026-08-29-22-54-59-664','Battery_Mount_Assembly',$,(#1943));
#1945=PRODUCT('2026-08-29-22-54-59-666','Battery_Mount_Front',$,(#1943));
#1946=PRODUCT('2026-08-29-22-54-59-666_1','Battery_Mount_Back',$,(#1943));
#1947=PRESENTATION_STYLE_ASSIGNMENT((#1948));
#1948=SURFACE_STYLE_USAGE(.BOTH.,#1949);
#1949=SURFACE_SIDE_STYLE('',(#1950));
#1950=SURFACE_STYLE_FILL_AREA(#1951);
#1951=FILL_AREA_STYLE('Steel - Satin',(#1952));
#1952=FILL_AREA_STYLE_COLOUR('Steel - Satin',#1953);
#1953=COLOUR_RGB('Steel - Satin',0.627450980392157,0.627450980392157,0.627450980392157);
ENDSEC;
END-ISO-10303-21;
