ISO-10303-21;
HEADER;
/* Generated by software containing ST-Developer
 * from STEP Tools, Inc. (www.steptools.com) 
 */

FILE_DESCRIPTION(
/* description */ (''),
/* implementation_level */ '2;1');

FILE_NAME(
/* name */ 'Motor_Hub.step',
/* time_stamp */ '2026-08-29T23:01:00-05:00',
/* author */ (''),
/* organization */ (''),
/* preprocessor_version */ 'ST-DEVELOPER v20.1',
/* originating_system */ 'Autodesk Translation Framework v15.8.0.0',
/* authorisation */ '');

FILE_SCHEMA (('AUTOMOTIVE_DESIGN { 1 0 10303 214 3 1 1 }'));
ENDSEC;

DATA;
#10=MECHANICAL_DESIGN_GEOMETRIC_PRESENTATION_REPRESENTATION('',(#13),#546);
#11=SHAPE_REPRESENTATION_RELATIONSHIP('SRR','None',#553,#12);
#12=ADVANCED_BREP_SHAPE_REPRESENTATION('',(#14),#545);
#13=STYLED_ITEM('',(#562),#14);
#14=MANIFOLD_SOLID_BREP('Body1',#311);
#15=FACE_BOUND('',#66,.T.);
#16=FACE_BOUND('',#67,.T.);
#17=FACE_BOUND('',#68,.T.);
#18=FACE_BOUND('',#69,.T.);
#19=FACE_BOUND('',#75,.T.);
#20=FACE_BOUND('',#76,.T.);
#21=FACE_BOUND('',#77,.T.);
#22=FACE_BOUND('',#78,.T.);
#23=FACE_BOUND('',#79,.T.);
#24=FACE_BOUND('',#80,.T.);
#25=FACE_BOUND('',#81,.T.);
#26=FACE_BOUND('',#83,.T.);
#27=FACE_BOUND('',#84,.T.);
#28=FACE_BOUND('',#85,.T.);
#29=FACE_BOUND('',#86,.T.);
#30=FACE_BOUND('',#87,.T.);
#31=FACE_BOUND('',#88,.T.);
#32=FACE_BOUND('',#89,.T.);
#33=FACE_BOUND('',#90,.T.);
#34=FACE_BOUND('',#91,.T.);
#35=FACE_BOUND('',#92,.T.);
#36=PLANE('',#351);
#37=PLANE('',#364);
#38=PLANE('',#365);
#39=CONICAL_SURFACE('',#346,13.375,0.174532925199433);
#40=FACE_OUTER_BOUND('',#56,.T.);
#41=FACE_OUTER_BOUND('',#57,.T.);
#42=FACE_OUTER_BOUND('',#58,.T.);
#43=FACE_OUTER_BOUND('',#59,.T.);
#44=FACE_OUTER_BOUND('',#60,.T.);
#45=FACE_OUTER_BOUND('',#61,.T.);
#46=FACE_OUTER_BOUND('',#62,.T.);
#47=FACE_OUTER_BOUND('',#63,.T.);
#48=FACE_OUTER_BOUND('',#64,.T.);
#49=FACE_OUTER_BOUND('',#65,.T.);
#50=FACE_OUTER_BOUND('',#70,.T.);
#51=FACE_OUTER_BOUND('',#71,.T.);
#52=FACE_OUTER_BOUND('',#72,.T.);
#53=FACE_OUTER_BOUND('',#73,.T.);
#54=FACE_OUTER_BOUND('',#74,.T.);
#55=FACE_OUTER_BOUND('',#82,.T.);
#56=EDGE_LOOP('',(#207,#208,#209,#210));
#57=EDGE_LOOP('',(#211,#212,#213,#214));
#58=EDGE_LOOP('',(#215,#216,#217,#218));
#59=EDGE_LOOP('',(#219,#220,#221,#222));
#60=EDGE_LOOP('',(#223,#224,#225,#226));
#61=EDGE_LOOP('',(#227,#228,#229,#230));
#62=EDGE_LOOP('',(#231,#232,#233,#234));
#63=EDGE_LOOP('',(#235,#236,#237,#238));
#64=EDGE_LOOP('',(#239,#240,#241,#242));
#65=EDGE_LOOP('',(#243));
#66=EDGE_LOOP('',(#244));
#67=EDGE_LOOP('',(#245));
#68=EDGE_LOOP('',(#246));
#69=EDGE_LOOP('',(#247));
#70=EDGE_LOOP('',(#248,#249,#250,#251));
#71=EDGE_LOOP('',(#252,#253,#254,#255));
#72=EDGE_LOOP('',(#256,#257,#258,#259));
#73=EDGE_LOOP('',(#260,#261,#262,#263));
#74=EDGE_LOOP('',(#264));
#75=EDGE_LOOP('',(#265));
#76=EDGE_LOOP('',(#266));
#77=EDGE_LOOP('',(#267));
#78=EDGE_LOOP('',(#268));
#79=EDGE_LOOP('',(#269));
#80=EDGE_LOOP('',(#270));
#81=EDGE_LOOP('',(#271));
#82=EDGE_LOOP('',(#272));
#83=EDGE_LOOP('',(#273));
#84=EDGE_LOOP('',(#274));
#85=EDGE_LOOP('',(#275));
#86=EDGE_LOOP('',(#276));
#87=EDGE_LOOP('',(#277));
#88=EDGE_LOOP('',(#278));
#89=EDGE_LOOP('',(#279));
#90=EDGE_LOOP('',(#280));
#91=EDGE_LOOP('',(#281));
#92=EDGE_LOOP('',(#282));
#93=LINE('',#468,#106);
#94=LINE('',#474,#107);
#95=LINE('',#480,#108);
#96=LINE('',#486,#109);
#97=LINE('',#492,#110);
#98=LINE('',#498,#111);
#99=LINE('',#504,#112);
#100=LINE('',#510,#113);
#101=LINE('',#514,#114);
#102=LINE('',#521,#115);
#103=LINE('',#527,#116);
#104=LINE('',#533,#117);
#105=LINE('',#539,#118);
#106=VECTOR('',#372,3.);
#107=VECTOR('',#379,3.);
#108=VECTOR('',#386,3.);
#109=VECTOR('',#393,2.);
#110=VECTOR('',#400,2.);
#111=VECTOR('',#407,2.);
#112=VECTOR('',#414,2.);
#113=VECTOR('',#421,13.375);
#114=VECTOR('',#426,13.75);
#115=VECTOR('',#435,2.625);
#116=VECTOR('',#442,2.625);
#117=VECTOR('',#449,2.625);
#118=VECTOR('',#456,28.8);
#119=CIRCLE('',#326,3.);
#120=CIRCLE('',#327,3.);
#121=CIRCLE('',#329,3.);
#122=CIRCLE('',#330,3.);
#123=CIRCLE('',#332,3.);
#124=CIRCLE('',#333,3.);
#125=CIRCLE('',#335,2.);
#126=CIRCLE('',#336,2.);
#127=CIRCLE('',#338,2.);
#128=CIRCLE('',#339,2.);
#129=CIRCLE('',#341,2.);
#130=CIRCLE('',#342,2.);
#131=CIRCLE('',#344,2.);
#132=CIRCLE('',#345,2.);
#133=CIRCLE('',#347,13.);
#134=CIRCLE('',#348,13.75);
#135=CIRCLE('',#350,13.75);
#136=CIRCLE('',#353,2.625);
#137=CIRCLE('',#354,2.625);
#138=CIRCLE('',#356,2.625);
#139=CIRCLE('',#357,2.625);
#140=CIRCLE('',#359,2.625);
#141=CIRCLE('',#360,2.625);
#142=CIRCLE('',#362,28.8);
#143=CIRCLE('',#363,28.8);
#144=VERTEX_POINT('',#465);
#145=VERTEX_POINT('',#467);
#146=VERTEX_POINT('',#471);
#147=VERTEX_POINT('',#473);
#148=VERTEX_POINT('',#477);
#149=VERTEX_POINT('',#479);
#150=VERTEX_POINT('',#483);
#151=VERTEX_POINT('',#485);
#152=VERTEX_POINT('',#489);
#153=VERTEX_POINT('',#491);
#154=VERTEX_POINT('',#495);
#155=VERTEX_POINT('',#497);
#156=VERTEX_POINT('',#501);
#157=VERTEX_POINT('',#503);
#158=VERTEX_POINT('',#507);
#159=VERTEX_POINT('',#509);
#160=VERTEX_POINT('',#513);
#161=VERTEX_POINT('',#518);
#162=VERTEX_POINT('',#520);
#163=VERTEX_POINT('',#524);
#164=VERTEX_POINT('',#526);
#165=VERTEX_POINT('',#530);
#166=VERTEX_POINT('',#532);
#167=VERTEX_POINT('',#536);
#168=VERTEX_POINT('',#538);
#169=EDGE_CURVE('',#144,#144,#119,.T.);
#170=EDGE_CURVE('',#144,#145,#93,.T.);
#171=EDGE_CURVE('',#145,#145,#120,.T.);
#172=EDGE_CURVE('',#146,#146,#121,.T.);
#173=EDGE_CURVE('',#146,#147,#94,.T.);
#174=EDGE_CURVE('',#147,#147,#122,.T.);
#175=EDGE_CURVE('',#148,#148,#123,.T.);
#176=EDGE_CURVE('',#148,#149,#95,.T.);
#177=EDGE_CURVE('',#149,#149,#124,.T.);
#178=EDGE_CURVE('',#150,#150,#125,.T.);
#179=EDGE_CURVE('',#150,#151,#96,.T.);
#180=EDGE_CURVE('',#151,#151,#126,.T.);
#181=EDGE_CURVE('',#152,#152,#127,.T.);
#182=EDGE_CURVE('',#152,#153,#97,.T.);
#183=EDGE_CURVE('',#153,#153,#128,.T.);
#184=EDGE_CURVE('',#154,#154,#129,.T.);
#185=EDGE_CURVE('',#154,#155,#98,.T.);
#186=EDGE_CURVE('',#155,#155,#130,.T.);
#187=EDGE_CURVE('',#156,#156,#131,.T.);
#188=EDGE_CURVE('',#156,#157,#99,.T.);
#189=EDGE_CURVE('',#157,#157,#132,.T.);
#190=EDGE_CURVE('',#158,#158,#133,.T.);
#191=EDGE_CURVE('',#158,#159,#100,.T.);
#192=EDGE_CURVE('',#159,#159,#134,.T.);
#193=EDGE_CURVE('',#159,#160,#101,.T.);
#194=EDGE_CURVE('',#160,#160,#135,.T.);
#195=EDGE_CURVE('',#161,#161,#136,.T.);
#196=EDGE_CURVE('',#161,#162,#102,.T.);
#197=EDGE_CURVE('',#162,#162,#137,.T.);
#198=EDGE_CURVE('',#163,#163,#138,.T.);
#199=EDGE_CURVE('',#163,#164,#103,.T.);
#200=EDGE_CURVE('',#164,#164,#139,.T.);
#201=EDGE_CURVE('',#165,#165,#140,.T.);
#202=EDGE_CURVE('',#165,#166,#104,.T.);
#203=EDGE_CURVE('',#166,#166,#141,.T.);
#204=EDGE_CURVE('',#167,#167,#142,.T.);
#205=EDGE_CURVE('',#167,#168,#105,.T.);
#206=EDGE_CURVE('',#168,#168,#143,.T.);
#207=ORIENTED_EDGE('',*,*,#169,.F.);
#208=ORIENTED_EDGE('',*,*,#170,.T.);
#209=ORIENTED_EDGE('',*,*,#171,.F.);
#210=ORIENTED_EDGE('',*,*,#170,.F.);
#211=ORIENTED_EDGE('',*,*,#172,.F.);
#212=ORIENTED_EDGE('',*,*,#173,.T.);
#213=ORIENTED_EDGE('',*,*,#174,.F.);
#214=ORIENTED_EDGE('',*,*,#173,.F.);
#215=ORIENTED_EDGE('',*,*,#175,.F.);
#216=ORIENTED_EDGE('',*,*,#176,.T.);
#217=ORIENTED_EDGE('',*,*,#177,.F.);
#218=ORIENTED_EDGE('',*,*,#176,.F.);
#219=ORIENTED_EDGE('',*,*,#178,.F.);
#220=ORIENTED_EDGE('',*,*,#179,.T.);
#221=ORIENTED_EDGE('',*,*,#180,.F.);
#222=ORIENTED_EDGE('',*,*,#179,.F.);
#223=ORIENTED_EDGE('',*,*,#181,.F.);
#224=ORIENTED_EDGE('',*,*,#182,.T.);
#225=ORIENTED_EDGE('',*,*,#183,.F.);
#226=ORIENTED_EDGE('',*,*,#182,.F.);
#227=ORIENTED_EDGE('',*,*,#184,.F.);
#228=ORIENTED_EDGE('',*,*,#185,.T.);
#229=ORIENTED_EDGE('',*,*,#186,.F.);
#230=ORIENTED_EDGE('',*,*,#185,.F.);
#231=ORIENTED_EDGE('',*,*,#187,.F.);
#232=ORIENTED_EDGE('',*,*,#188,.T.);
#233=ORIENTED_EDGE('',*,*,#189,.F.);
#234=ORIENTED_EDGE('',*,*,#188,.F.);
#235=ORIENTED_EDGE('',*,*,#190,.T.);
#236=ORIENTED_EDGE('',*,*,#191,.T.);
#237=ORIENTED_EDGE('',*,*,#192,.T.);
#238=ORIENTED_EDGE('',*,*,#191,.F.);
#239=ORIENTED_EDGE('',*,*,#192,.F.);
#240=ORIENTED_EDGE('',*,*,#193,.T.);
#241=ORIENTED_EDGE('',*,*,#194,.F.);
#242=ORIENTED_EDGE('',*,*,#193,.F.);
#243=ORIENTED_EDGE('',*,*,#190,.F.);
#244=ORIENTED_EDGE('',*,*,#180,.T.);
#245=ORIENTED_EDGE('',*,*,#183,.T.);
#246=ORIENTED_EDGE('',*,*,#186,.T.);
#247=ORIENTED_EDGE('',*,*,#189,.T.);
#248=ORIENTED_EDGE('',*,*,#195,.F.);
#249=ORIENTED_EDGE('',*,*,#196,.T.);
#250=ORIENTED_EDGE('',*,*,#197,.F.);
#251=ORIENTED_EDGE('',*,*,#196,.F.);
#252=ORIENTED_EDGE('',*,*,#198,.F.);
#253=ORIENTED_EDGE('',*,*,#199,.T.);
#254=ORIENTED_EDGE('',*,*,#200,.F.);
#255=ORIENTED_EDGE('',*,*,#199,.F.);
#256=ORIENTED_EDGE('',*,*,#201,.F.);
#257=ORIENTED_EDGE('',*,*,#202,.T.);
#258=ORIENTED_EDGE('',*,*,#203,.F.);
#259=ORIENTED_EDGE('',*,*,#202,.F.);
#260=ORIENTED_EDGE('',*,*,#204,.F.);
#261=ORIENTED_EDGE('',*,*,#205,.T.);
#262=ORIENTED_EDGE('',*,*,#206,.T.);
#263=ORIENTED_EDGE('',*,*,#205,.F.);
#264=ORIENTED_EDGE('',*,*,#204,.T.);
#265=ORIENTED_EDGE('',*,*,#169,.T.);
#266=ORIENTED_EDGE('',*,*,#172,.T.);
#267=ORIENTED_EDGE('',*,*,#175,.T.);
#268=ORIENTED_EDGE('',*,*,#194,.T.);
#269=ORIENTED_EDGE('',*,*,#203,.T.);
#270=ORIENTED_EDGE('',*,*,#200,.T.);
#271=ORIENTED_EDGE('',*,*,#197,.T.);
#272=ORIENTED_EDGE('',*,*,#206,.F.);
#273=ORIENTED_EDGE('',*,*,#171,.T.);
#274=ORIENTED_EDGE('',*,*,#174,.T.);
#275=ORIENTED_EDGE('',*,*,#177,.T.);
#276=ORIENTED_EDGE('',*,*,#195,.T.);
#277=ORIENTED_EDGE('',*,*,#198,.T.);
#278=ORIENTED_EDGE('',*,*,#201,.T.);
#279=ORIENTED_EDGE('',*,*,#187,.T.);
#280=ORIENTED_EDGE('',*,*,#184,.T.);
#281=ORIENTED_EDGE('',*,*,#181,.T.);
#282=ORIENTED_EDGE('',*,*,#178,.T.);
#283=CYLINDRICAL_SURFACE('',#325,3.);
#284=CYLINDRICAL_SURFACE('',#328,3.);
#285=CYLINDRICAL_SURFACE('',#331,3.);
#286=CYLINDRICAL_SURFACE('',#334,2.);
#287=CYLINDRICAL_SURFACE('',#337,2.);
#288=CYLINDRICAL_SURFACE('',#340,2.);
#289=CYLINDRICAL_SURFACE('',#343,2.);
#290=CYLINDRICAL_SURFACE('',#349,13.75);
#291=CYLINDRICAL_SURFACE('',#352,2.625);
#292=CYLINDRICAL_SURFACE('',#355,2.625);
#293=CYLINDRICAL_SURFACE('',#358,2.625);
#294=CYLINDRICAL_SURFACE('',#361,28.8);
#295=ADVANCED_FACE('',(#40),#283,.F.);
#296=ADVANCED_FACE('',(#41),#284,.F.);
#297=ADVANCED_FACE('',(#42),#285,.F.);
#298=ADVANCED_FACE('',(#43),#286,.F.);
#299=ADVANCED_FACE('',(#44),#287,.F.);
#300=ADVANCED_FACE('',(#45),#288,.F.);
#301=ADVANCED_FACE('',(#46),#289,.F.);
#302=ADVANCED_FACE('',(#47),#39,.T.);
#303=ADVANCED_FACE('',(#48),#290,.T.);
#304=ADVANCED_FACE('',(#49,#15,#16,#17,#18),#36,.T.);
#305=ADVANCED_FACE('',(#50),#291,.F.);
#306=ADVANCED_FACE('',(#51),#292,.F.);
#307=ADVANCED_FACE('',(#52),#293,.F.);
#308=ADVANCED_FACE('',(#53),#294,.T.);
#309=ADVANCED_FACE('',(#54,#19,#20,#21,#22,#23,#24,#25),#37,.T.);
#310=ADVANCED_FACE('',(#55,#26,#27,#28,#29,#30,#31,#32,#33,#34,#35),#38,
 .F.);
#311=CLOSED_SHELL('',(#295,#296,#297,#298,#299,#300,#301,#302,#303,#304,
#305,#306,#307,#308,#309,#310));
#312=DERIVED_UNIT_ELEMENT(#314,1.);
#313=DERIVED_UNIT_ELEMENT(#548,-3.);
#314=(
MASS_UNIT()
NAMED_UNIT(*)
SI_UNIT(.KILO.,.GRAM.)
);
#315=DERIVED_UNIT((#312,#313));
#316=MEASURE_REPRESENTATION_ITEM('density measure',
POSITIVE_RATIO_MEASURE(7850.),#315);
#317=PROPERTY_DEFINITION_REPRESENTATION(#322,#319);
#318=PROPERTY_DEFINITION_REPRESENTATION(#323,#320);
#319=REPRESENTATION('material name',(#321),#545);
#320=REPRESENTATION('density',(#316),#545);
#321=DESCRIPTIVE_REPRESENTATION_ITEM('Steel','Steel');
#322=PROPERTY_DEFINITION('material property','material name',#555);
#323=PROPERTY_DEFINITION('material property','density of part',#555);
#324=AXIS2_PLACEMENT_3D('',#463,#366,#367);
#325=AXIS2_PLACEMENT_3D('',#464,#368,#369);
#326=AXIS2_PLACEMENT_3D('',#466,#370,#371);
#327=AXIS2_PLACEMENT_3D('',#469,#373,#374);
#328=AXIS2_PLACEMENT_3D('',#470,#375,#376);
#329=AXIS2_PLACEMENT_3D('',#472,#377,#378);
#330=AXIS2_PLACEMENT_3D('',#475,#380,#381);
#331=AXIS2_PLACEMENT_3D('',#476,#382,#383);
#332=AXIS2_PLACEMENT_3D('',#478,#384,#385);
#333=AXIS2_PLACEMENT_3D('',#481,#387,#388);
#334=AXIS2_PLACEMENT_3D('',#482,#389,#390);
#335=AXIS2_PLACEMENT_3D('',#484,#391,#392);
#336=AXIS2_PLACEMENT_3D('',#487,#394,#395);
#337=AXIS2_PLACEMENT_3D('',#488,#396,#397);
#338=AXIS2_PLACEMENT_3D('',#490,#398,#399);
#339=AXIS2_PLACEMENT_3D('',#493,#401,#402);
#340=AXIS2_PLACEMENT_3D('',#494,#403,#404);
#341=AXIS2_PLACEMENT_3D('',#496,#405,#406);
#342=AXIS2_PLACEMENT_3D('',#499,#408,#409);
#343=AXIS2_PLACEMENT_3D('',#500,#410,#411);
#344=AXIS2_PLACEMENT_3D('',#502,#412,#413);
#345=AXIS2_PLACEMENT_3D('',#505,#415,#416);
#346=AXIS2_PLACEMENT_3D('',#506,#417,#418);
#347=AXIS2_PLACEMENT_3D('',#508,#419,#420);
#348=AXIS2_PLACEMENT_3D('',#511,#422,#423);
#349=AXIS2_PLACEMENT_3D('',#512,#424,#425);
#350=AXIS2_PLACEMENT_3D('',#515,#427,#428);
#351=AXIS2_PLACEMENT_3D('',#516,#429,#430);
#352=AXIS2_PLACEMENT_3D('',#517,#431,#432);
#353=AXIS2_PLACEMENT_3D('',#519,#433,#434);
#354=AXIS2_PLACEMENT_3D('',#522,#436,#437);
#355=AXIS2_PLACEMENT_3D('',#523,#438,#439);
#356=AXIS2_PLACEMENT_3D('',#525,#440,#441);
#357=AXIS2_PLACEMENT_3D('',#528,#443,#444);
#358=AXIS2_PLACEMENT_3D('',#529,#445,#446);
#359=AXIS2_PLACEMENT_3D('',#531,#447,#448);
#360=AXIS2_PLACEMENT_3D('',#534,#450,#451);
#361=AXIS2_PLACEMENT_3D('',#535,#452,#453);
#362=AXIS2_PLACEMENT_3D('',#537,#454,#455);
#363=AXIS2_PLACEMENT_3D('',#540,#457,#458);
#364=AXIS2_PLACEMENT_3D('',#541,#459,#460);
#365=AXIS2_PLACEMENT_3D('',#542,#461,#462);
#366=DIRECTION('axis',(0.,0.,1.));
#367=DIRECTION('refdir',(1.,0.,0.));
#368=DIRECTION('center_axis',(0.,0.,1.));
#369=DIRECTION('ref_axis',(1.,0.,0.));
#370=DIRECTION('center_axis',(0.,0.,-1.));
#371=DIRECTION('ref_axis',(1.,0.,0.));
#372=DIRECTION('',(0.,0.,-1.));
#373=DIRECTION('center_axis',(0.,0.,1.));
#374=DIRECTION('ref_axis',(1.,0.,0.));
#375=DIRECTION('center_axis',(0.,0.,1.));
#376=DIRECTION('ref_axis',(1.,0.,0.));
#377=DIRECTION('center_axis',(0.,0.,-1.));
#378=DIRECTION('ref_axis',(1.,0.,0.));
#379=DIRECTION('',(0.,0.,-1.));
#380=DIRECTION('center_axis',(0.,0.,1.));
#381=DIRECTION('ref_axis',(1.,0.,0.));
#382=DIRECTION('center_axis',(0.,0.,1.));
#383=DIRECTION('ref_axis',(1.,0.,0.));
#384=DIRECTION('center_axis',(0.,0.,-1.));
#385=DIRECTION('ref_axis',(1.,0.,0.));
#386=DIRECTION('',(0.,0.,-1.));
#387=DIRECTION('center_axis',(0.,0.,1.));
#388=DIRECTION('ref_axis',(1.,0.,0.));
#389=DIRECTION('center_axis',(0.,0.,1.));
#390=DIRECTION('ref_axis',(-1.83697019872103E-16,-1.,0.));
#391=DIRECTION('center_axis',(0.,0.,1.));
#392=DIRECTION('ref_axis',(-1.83697019872103E-16,-1.,0.));
#393=DIRECTION('',(0.,0.,1.));
#394=DIRECTION('center_axis',(0.,0.,-1.));
#395=DIRECTION('ref_axis',(-1.83697019872103E-16,-1.,0.));
#396=DIRECTION('center_axis',(0.,0.,1.));
#397=DIRECTION('ref_axis',(-1.,1.22464679914735E-16,0.));
#398=DIRECTION('center_axis',(0.,0.,1.));
#399=DIRECTION('ref_axis',(-1.,1.22464679914735E-16,0.));
#400=DIRECTION('',(0.,0.,1.));
#401=DIRECTION('center_axis',(0.,0.,-1.));
#402=DIRECTION('ref_axis',(-1.,1.22464679914735E-16,0.));
#403=DIRECTION('center_axis',(0.,0.,1.));
#404=DIRECTION('ref_axis',(6.12323399573676E-17,1.,0.));
#405=DIRECTION('center_axis',(0.,0.,1.));
#406=DIRECTION('ref_axis',(6.12323399573676E-17,1.,0.));
#407=DIRECTION('',(0.,0.,1.));
#408=DIRECTION('center_axis',(0.,0.,-1.));
#409=DIRECTION('ref_axis',(6.12323399573676E-17,1.,0.));
#410=DIRECTION('center_axis',(0.,0.,1.));
#411=DIRECTION('ref_axis',(1.,0.,0.));
#412=DIRECTION('center_axis',(0.,0.,1.));
#413=DIRECTION('ref_axis',(1.,0.,0.));
#414=DIRECTION('',(0.,0.,1.));
#415=DIRECTION('center_axis',(0.,0.,-1.));
#416=DIRECTION('ref_axis',(1.,0.,0.));
#417=DIRECTION('center_axis',(0.,0.,-1.));
#418=DIRECTION('ref_axis',(-1.,0.,0.));
#419=DIRECTION('center_axis',(0.,0.,-1.));
#420=DIRECTION('ref_axis',(-1.,0.,0.));
#421=DIRECTION('',(0.17364817766693,2.12657684957577E-17,-0.984807753012208));
#422=DIRECTION('center_axis',(0.,0.,1.));
#423=DIRECTION('ref_axis',(-1.,0.,0.));
#424=DIRECTION('center_axis',(0.,0.,1.));
#425=DIRECTION('ref_axis',(-1.,0.,0.));
#426=DIRECTION('',(0.,0.,-1.));
#427=DIRECTION('center_axis',(0.,0.,-1.));
#428=DIRECTION('ref_axis',(-1.,0.,0.));
#429=DIRECTION('center_axis',(0.,0.,1.));
#430=DIRECTION('ref_axis',(-1.,0.,0.));
#431=DIRECTION('center_axis',(0.,0.,1.));
#432=DIRECTION('ref_axis',(1.,0.,0.));
#433=DIRECTION('center_axis',(0.,0.,1.));
#434=DIRECTION('ref_axis',(1.,0.,0.));
#435=DIRECTION('',(0.,0.,1.));
#436=DIRECTION('center_axis',(0.,0.,-1.));
#437=DIRECTION('ref_axis',(1.,0.,0.));
#438=DIRECTION('center_axis',(0.,0.,1.));
#439=DIRECTION('ref_axis',(1.,0.,0.));
#440=DIRECTION('center_axis',(0.,0.,1.));
#441=DIRECTION('ref_axis',(1.,0.,0.));
#442=DIRECTION('',(0.,0.,1.));
#443=DIRECTION('center_axis',(0.,0.,-1.));
#444=DIRECTION('ref_axis',(1.,0.,0.));
#445=DIRECTION('center_axis',(0.,0.,1.));
#446=DIRECTION('ref_axis',(1.,0.,0.));
#447=DIRECTION('center_axis',(0.,0.,1.));
#448=DIRECTION('ref_axis',(1.,0.,0.));
#449=DIRECTION('',(0.,0.,1.));
#450=DIRECTION('center_axis',(0.,0.,-1.));
#451=DIRECTION('ref_axis',(1.,0.,0.));
#452=DIRECTION('center_axis',(0.,0.,1.));
#453=DIRECTION('ref_axis',(1.,0.,0.));
#454=DIRECTION('center_axis',(0.,0.,1.));
#455=DIRECTION('ref_axis',(1.,0.,0.));
#456=DIRECTION('',(0.,0.,-1.));
#457=DIRECTION('center_axis',(0.,0.,1.));
#458=DIRECTION('ref_axis',(1.,0.,0.));
#459=DIRECTION('center_axis',(0.,0.,1.));
#460=DIRECTION('ref_axis',(1.,0.,0.));
#461=DIRECTION('center_axis',(0.,0.,1.));
#462=DIRECTION('ref_axis',(1.,0.,0.));
#463=CARTESIAN_POINT('',(0.,0.,0.));
#464=CARTESIAN_POINT('Origin',(-2.48134846003722E-13,-23.7499999999996,
0.));
#465=CARTESIAN_POINT('',(-3.00000000000025,-23.7499999999996,5.));
#466=CARTESIAN_POINT('Origin',(-2.48134846003722E-13,-23.7499999999996,
5.));
#467=CARTESIAN_POINT('',(-3.00000000000025,-23.7499999999996,0.));
#468=CARTESIAN_POINT('',(-3.00000000000025,-23.7499999999996,0.));
#469=CARTESIAN_POINT('Origin',(-2.48134846003722E-13,-23.7499999999996,
0.));
#470=CARTESIAN_POINT('Origin',(-20.5681033398802,11.8750000000004,0.));
#471=CARTESIAN_POINT('',(-23.5681033398802,11.8750000000004,5.));
#472=CARTESIAN_POINT('Origin',(-20.5681033398802,11.8750000000004,5.));
#473=CARTESIAN_POINT('',(-23.5681033398802,11.8750000000004,0.));
#474=CARTESIAN_POINT('',(-23.5681033398802,11.8750000000004,0.));
#475=CARTESIAN_POINT('Origin',(-20.5681033398802,11.8750000000004,0.));
#476=CARTESIAN_POINT('Origin',(20.5681033398804,11.8749999999992,0.));
#477=CARTESIAN_POINT('',(17.5681033398804,11.8749999999992,5.));
#478=CARTESIAN_POINT('Origin',(20.5681033398804,11.8749999999992,5.));
#479=CARTESIAN_POINT('',(17.5681033398804,11.8749999999992,0.));
#480=CARTESIAN_POINT('',(17.5681033398804,11.8749999999992,0.));
#481=CARTESIAN_POINT('Origin',(20.5681033398804,11.8749999999992,0.));
#482=CARTESIAN_POINT('Origin',(-0.0483881683825516,-7.87485133733714,0.));
#483=CARTESIAN_POINT('',(-0.048388168382551,-5.87485133733714,0.));
#484=CARTESIAN_POINT('Origin',(-0.0483881683825516,-7.87485133733714,0.));
#485=CARTESIAN_POINT('',(-0.048388168382551,-5.87485133733714,11.));
#486=CARTESIAN_POINT('',(-0.0483881683825515,-5.87485133733714,0.));
#487=CARTESIAN_POINT('Origin',(-0.0483881683825516,-7.87485133733714,11.));
#488=CARTESIAN_POINT('Origin',(-7.87485133733714,0.0483881683825537,0.));
#489=CARTESIAN_POINT('',(-5.87485133733714,0.0483881683825532,0.));
#490=CARTESIAN_POINT('Origin',(-7.87485133733714,0.0483881683825537,0.));
#491=CARTESIAN_POINT('',(-5.87485133733714,0.0483881683825532,11.));
#492=CARTESIAN_POINT('',(-5.87485133733714,0.0483881683825537,0.));
#493=CARTESIAN_POINT('Origin',(-7.87485133733714,0.0483881683825537,11.));
#494=CARTESIAN_POINT('Origin',(0.0483881683825505,7.87485133733715,0.));
#495=CARTESIAN_POINT('',(0.0483881683825501,5.87485133733714,0.));
#496=CARTESIAN_POINT('Origin',(0.0483881683825505,7.87485133733715,0.));
#497=CARTESIAN_POINT('',(0.0483881683825501,5.87485133733714,11.));
#498=CARTESIAN_POINT('',(0.0483881683825506,5.87485133733714,0.));
#499=CARTESIAN_POINT('Origin',(0.0483881683825505,7.87485133733715,11.));
#500=CARTESIAN_POINT('Origin',(7.87485133733714,-0.0483881683825474,0.));
#501=CARTESIAN_POINT('',(5.87485133733714,-0.0483881683825472,0.));
#502=CARTESIAN_POINT('Origin',(7.87485133733714,-0.0483881683825474,0.));
#503=CARTESIAN_POINT('',(5.87485133733714,-0.0483881683825472,11.));
#504=CARTESIAN_POINT('',(5.87485133733714,-0.0483881683825477,0.));
#505=CARTESIAN_POINT('Origin',(7.87485133733714,-0.0483881683825474,11.));
#506=CARTESIAN_POINT('Origin',(-9.07722382069434E-17,2.64555576857095E-15,
8.87326931764336));
#507=CARTESIAN_POINT('',(13.,1.0535149296794E-15,11.));
#508=CARTESIAN_POINT('Origin',(-9.07722382069434E-17,2.64555576857095E-15,
11.));
#509=CARTESIAN_POINT('',(13.75,4.32944511739856E-15,6.74653863528672));
#510=CARTESIAN_POINT('',(13.375,4.28352086243054E-15,8.87326931764336));
#511=CARTESIAN_POINT('Origin',(-9.07722382069434E-17,2.64555576857095E-15,
6.74653863528672));
#512=CARTESIAN_POINT('Origin',(-9.07722382069434E-17,2.64555576857095E-15,
5.));
#513=CARTESIAN_POINT('',(13.75,4.32944511739856E-15,5.));
#514=CARTESIAN_POINT('',(13.75,4.32944511739856E-15,5.));
#515=CARTESIAN_POINT('Origin',(-9.07722382069434E-17,2.64555576857095E-15,
5.));
#516=CARTESIAN_POINT('Origin',(0.,2.22044604925031E-15,11.));
#517=CARTESIAN_POINT('Origin',(2.38697950294409E-13,23.7499999999996,0.));
#518=CARTESIAN_POINT('',(-2.62499999999976,23.7499999999996,0.));
#519=CARTESIAN_POINT('Origin',(2.38697950294409E-13,23.7499999999996,0.));
#520=CARTESIAN_POINT('',(-2.62499999999976,23.7499999999996,5.));
#521=CARTESIAN_POINT('',(-2.62499999999976,23.7499999999996,0.));
#522=CARTESIAN_POINT('Origin',(2.38697950294409E-13,23.7499999999996,5.));
#523=CARTESIAN_POINT('Origin',(20.5681033398802,-11.8750000000004,0.));
#524=CARTESIAN_POINT('',(17.9431033398802,-11.8750000000004,0.));
#525=CARTESIAN_POINT('Origin',(20.5681033398802,-11.8750000000004,0.));
#526=CARTESIAN_POINT('',(17.9431033398802,-11.8750000000004,5.));
#527=CARTESIAN_POINT('',(17.9431033398802,-11.8750000000004,0.));
#528=CARTESIAN_POINT('Origin',(20.5681033398802,-11.8750000000004,5.));
#529=CARTESIAN_POINT('Origin',(-20.5681033398804,-11.8749999999993,0.));
#530=CARTESIAN_POINT('',(-23.1931033398804,-11.8749999999993,0.));
#531=CARTESIAN_POINT('Origin',(-20.5681033398804,-11.8749999999993,0.));
#532=CARTESIAN_POINT('',(-23.1931033398804,-11.8749999999993,5.));
#533=CARTESIAN_POINT('',(-23.1931033398804,-11.8749999999993,0.));
#534=CARTESIAN_POINT('Origin',(-20.5681033398804,-11.8749999999993,5.));
#535=CARTESIAN_POINT('Origin',(-9.07722382069434E-17,2.64555576857095E-15,
0.));
#536=CARTESIAN_POINT('',(-28.8,-8.81427012973411E-16,5.));
#537=CARTESIAN_POINT('Origin',(-9.07722382069434E-17,2.64555576857095E-15,
5.));
#538=CARTESIAN_POINT('',(-28.8,-8.81427012973424E-16,0.));
#539=CARTESIAN_POINT('',(-28.8,-8.81427012973424E-16,0.));
#540=CARTESIAN_POINT('Origin',(-9.07722382069434E-17,2.64555576857095E-15,
0.));
#541=CARTESIAN_POINT('Origin',(0.,4.44089209850063E-15,5.));
#542=CARTESIAN_POINT('Origin',(0.,4.44089209850063E-15,0.));
#543=UNCERTAINTY_MEASURE_WITH_UNIT(LENGTH_MEASURE(0.01),#547,
'DISTANCE_ACCURACY_VALUE',
'Maximum model space distance between geometric entities at asserted c
onnectivities');
#544=UNCERTAINTY_MEASURE_WITH_UNIT(LENGTH_MEASURE(0.01),#547,
'DISTANCE_ACCURACY_VALUE',
'Maximum model space distance between geometric entities at asserted c
onnectivities');
#545=(
GEOMETRIC_REPRESENTATION_CONTEXT(3)
GLOBAL_UNCERTAINTY_ASSIGNED_CONTEXT((#543))
GLOBAL_UNIT_ASSIGNED_CONTEXT((#547,#549,#550))
REPRESENTATION_CONTEXT('','3D')
);
#546=(
GEOMETRIC_REPRESENTATION_CONTEXT(3)
GLOBAL_UNCERTAINTY_ASSIGNED_CONTEXT((#544))
GLOBAL_UNIT_ASSIGNED_CONTEXT((#547,#549,#550))
REPRESENTATION_CONTEXT('','3D')
);
#547=(
LENGTH_UNIT()
NAMED_UNIT(*)
SI_UNIT(.MILLI.,.METRE.)
);
#548=(
LENGTH_UNIT()
NAMED_UNIT(*)
SI_UNIT($,.METRE.)
);
#549=(
NAMED_UNIT(*)
PLANE_ANGLE_UNIT()
SI_UNIT($,.RADIAN.)
);
#550=(
NAMED_UNIT(*)
SI_UNIT($,.STERADIAN.)
SOLID_ANGLE_UNIT()
);
#551=SHAPE_DEFINITION_REPRESENTATION(#552,#553);
#552=PRODUCT_DEFINITION_SHAPE('',$,#555);
#553=SHAPE_REPRESENTATION('',(#324),#545);
#554=PRODUCT_DEFINITION_CONTEXT('part definition',#559,'design');
#555=PRODUCT_DEFINITION('2026-08-29-23-01-00-168','Motor_Hub',#556,#554);
#556=PRODUCT_DEFINITION_FORMATION('',$,#561);
#557=PRODUCT_RELATED_PRODUCT_CATEGORY('Motor_Hub','Motor_Hub',(#561));
#558=APPLICATION_PROTOCOL_DEFINITION('international standard',
'automotive_design',2009,#559);
#559=APPLICATION_CONTEXT(
'Core Data for Automotive Mechanical Design Process');
#560=PRODUCT_CONTEXT('part definition',#559,'mechanical');
#561=PRODUCT('2026-08-29-23-01-00-168','Motor_Hub',$,(#560));
#562=PRESENTATION_STYLE_ASSIGNMENT((#563));
#563=SURFACE_STYLE_USAGE(.BOTH.,#564);
#564=SURFACE_SIDE_STYLE('',(#565));
#565=SURFACE_STYLE_FILL_AREA(#566);
#566=FILL_AREA_STYLE('Steel - Satin',(#567));
#567=FILL_AREA_STYLE_COLOUR('Steel - Satin',#568);
#568=COLOUR_RGB('Steel - Satin',0.627450980392157,0.627450980392157,0.627450980392157);
ENDSEC;
END-ISO-10303-21;
