ISO-10303-21;
HEADER;
/* Generated by software containing ST-Developer
 * from STEP Tools, Inc. (www.steptools.com) 
 */

FILE_DESCRIPTION(
/* description */ (''),
/* implementation_level */ '2;1');

FILE_NAME(
/* name */ 'JGA25-370DC_Motor.step',
/* time_stamp */ '2026-08-29T23:03:38-05:00',
/* author */ (''),
/* organization */ (''),
/* preprocessor_version */ 'ST-DEVELOPER v20.1',
/* originating_system */ 'Autodesk Translation Framework v15.8.0.0',
/* authorisation */ '');

FILE_SCHEMA (('AUTOMOTIVE_DESIGN { 1 0 10303 214 3 1 1 }'));
ENDSEC;

DATA;
#10=MECHANICAL_DESIGN_GEOMETRIC_PRESENTATION_REPRESENTATION('',(#13),#1907);
#11=SHAPE_REPRESENTATION_RELATIONSHIP('SRR','None',#1914,#12);
#12=ADVANCED_BREP_SHAPE_REPRESENTATION('',(#14),#1906);
#13=STYLED_ITEM('',(#1923),#14);
#14=MANIFOLD_SOLID_BREP('Body1',#1139);
#15=CONICAL_SURFACE('',#1204,12.25,0.785398163397452);
#16=CYLINDRICAL_SURFACE('',#1167,12.);
#17=CYLINDRICAL_SURFACE('',#1171,12.5);
#18=CYLINDRICAL_SURFACE('',#1177,12.6);
#19=CYLINDRICAL_SURFACE('',#1181,12.5);
#20=CYLINDRICAL_SURFACE('',#1192,3.5);
#21=CYLINDRICAL_SURFACE('',#1193,2.);
#22=CYLINDRICAL_SURFACE('',#1197,1.95);
#23=CYLINDRICAL_SURFACE('',#1205,2.);
#24=CYLINDRICAL_SURFACE('',#1209,2.);
#25=CYLINDRICAL_SURFACE('',#1213,1.75);
#26=CYLINDRICAL_SURFACE('',#1216,1.75);
#27=CYLINDRICAL_SURFACE('',#1245,1.25);
#28=CYLINDRICAL_SURFACE('',#1248,1.25);
#29=CYLINDRICAL_SURFACE('',#1255,1.00080169780159);
#30=CYLINDRICAL_SURFACE('',#1256,1.00080169780159);
#31=CYLINDRICAL_SURFACE('',#1257,0.500000000000001);
#32=CYLINDRICAL_SURFACE('',#1258,0.500000000000001);
#33=FACE_BOUND('',#122,.T.);
#34=FACE_BOUND('',#124,.T.);
#35=FACE_BOUND('',#126,.T.);
#36=FACE_BOUND('',#128,.T.);
#37=FACE_BOUND('',#130,.T.);
#38=FACE_BOUND('',#131,.T.);
#39=FACE_BOUND('',#134,.T.);
#40=FACE_BOUND('',#137,.T.);
#41=FACE_BOUND('',#140,.T.);
#42=FACE_BOUND('',#143,.T.);
#43=FACE_BOUND('',#144,.T.);
#44=FACE_BOUND('',#145,.T.);
#45=FACE_BOUND('',#146,.T.);
#46=FACE_BOUND('',#147,.T.);
#47=FACE_BOUND('',#149,.T.);
#48=FACE_BOUND('',#153,.T.);
#49=FACE_BOUND('',#161,.T.);
#50=FACE_BOUND('',#164,.T.);
#51=FACE_BOUND('',#167,.T.);
#52=FACE_BOUND('',#170,.T.);
#53=FACE_OUTER_BOUND('',#121,.T.);
#54=FACE_OUTER_BOUND('',#123,.T.);
#55=FACE_OUTER_BOUND('',#125,.T.);
#56=FACE_OUTER_BOUND('',#127,.T.);
#57=FACE_OUTER_BOUND('',#129,.T.);
#58=FACE_OUTER_BOUND('',#132,.T.);
#59=FACE_OUTER_BOUND('',#133,.T.);
#60=FACE_OUTER_BOUND('',#135,.T.);
#61=FACE_OUTER_BOUND('',#136,.T.);
#62=FACE_OUTER_BOUND('',#138,.T.);
#63=FACE_OUTER_BOUND('',#139,.T.);
#64=FACE_OUTER_BOUND('',#141,.T.);
#65=FACE_OUTER_BOUND('',#142,.T.);
#66=FACE_OUTER_BOUND('',#148,.T.);
#67=FACE_OUTER_BOUND('',#150,.T.);
#68=FACE_OUTER_BOUND('',#151,.T.);
#69=FACE_OUTER_BOUND('',#152,.T.);
#70=FACE_OUTER_BOUND('',#154,.T.);
#71=FACE_OUTER_BOUND('',#155,.T.);
#72=FACE_OUTER_BOUND('',#156,.T.);
#73=FACE_OUTER_BOUND('',#157,.T.);
#74=FACE_OUTER_BOUND('',#158,.T.);
#75=FACE_OUTER_BOUND('',#159,.T.);
#76=FACE_OUTER_BOUND('',#160,.T.);
#77=FACE_OUTER_BOUND('',#162,.T.);
#78=FACE_OUTER_BOUND('',#163,.T.);
#79=FACE_OUTER_BOUND('',#165,.T.);
#80=FACE_OUTER_BOUND('',#166,.T.);
#81=FACE_OUTER_BOUND('',#168,.T.);
#82=FACE_OUTER_BOUND('',#169,.T.);
#83=FACE_OUTER_BOUND('',#171,.T.);
#84=FACE_OUTER_BOUND('',#172,.T.);
#85=FACE_OUTER_BOUND('',#173,.T.);
#86=FACE_OUTER_BOUND('',#174,.T.);
#87=FACE_OUTER_BOUND('',#175,.T.);
#88=FACE_OUTER_BOUND('',#176,.T.);
#89=FACE_OUTER_BOUND('',#177,.T.);
#90=FACE_OUTER_BOUND('',#178,.T.);
#91=FACE_OUTER_BOUND('',#179,.T.);
#92=FACE_OUTER_BOUND('',#180,.T.);
#93=FACE_OUTER_BOUND('',#181,.T.);
#94=FACE_OUTER_BOUND('',#182,.T.);
#95=FACE_OUTER_BOUND('',#183,.T.);
#96=FACE_OUTER_BOUND('',#184,.T.);
#97=FACE_OUTER_BOUND('',#185,.T.);
#98=FACE_OUTER_BOUND('',#186,.T.);
#99=FACE_OUTER_BOUND('',#187,.T.);
#100=FACE_OUTER_BOUND('',#188,.T.);
#101=FACE_OUTER_BOUND('',#189,.T.);
#102=FACE_OUTER_BOUND('',#190,.T.);
#103=FACE_OUTER_BOUND('',#191,.T.);
#104=FACE_OUTER_BOUND('',#192,.T.);
#105=FACE_OUTER_BOUND('',#193,.T.);
#106=FACE_OUTER_BOUND('',#194,.T.);
#107=FACE_OUTER_BOUND('',#195,.T.);
#108=FACE_OUTER_BOUND('',#196,.T.);
#109=FACE_OUTER_BOUND('',#197,.T.);
#110=FACE_OUTER_BOUND('',#198,.T.);
#111=FACE_OUTER_BOUND('',#199,.T.);
#112=FACE_OUTER_BOUND('',#200,.T.);
#113=FACE_OUTER_BOUND('',#201,.T.);
#114=FACE_OUTER_BOUND('',#202,.T.);
#115=FACE_OUTER_BOUND('',#203,.T.);
#116=FACE_OUTER_BOUND('',#204,.T.);
#117=FACE_OUTER_BOUND('',#205,.T.);
#118=FACE_OUTER_BOUND('',#206,.T.);
#119=FACE_OUTER_BOUND('',#207,.T.);
#120=FACE_OUTER_BOUND('',#208,.T.);
#121=EDGE_LOOP('',(#721,#722,#723,#724));
#122=EDGE_LOOP('',(#725));
#123=EDGE_LOOP('',(#726,#727,#728,#729));
#124=EDGE_LOOP('',(#730));
#125=EDGE_LOOP('',(#731,#732,#733,#734));
#126=EDGE_LOOP('',(#735));
#127=EDGE_LOOP('',(#736,#737,#738,#739));
#128=EDGE_LOOP('',(#740));
#129=EDGE_LOOP('',(#741));
#130=EDGE_LOOP('',(#742,#743,#744,#745));
#131=EDGE_LOOP('',(#746,#747,#748,#749));
#132=EDGE_LOOP('',(#750,#751,#752,#753));
#133=EDGE_LOOP('',(#754));
#134=EDGE_LOOP('',(#755));
#135=EDGE_LOOP('',(#756,#757,#758,#759,#760));
#136=EDGE_LOOP('',(#761));
#137=EDGE_LOOP('',(#762));
#138=EDGE_LOOP('',(#763,#764,#765,#766));
#139=EDGE_LOOP('',(#767));
#140=EDGE_LOOP('',(#768));
#141=EDGE_LOOP('',(#769,#770,#771,#772));
#142=EDGE_LOOP('',(#773));
#143=EDGE_LOOP('',(#774));
#144=EDGE_LOOP('',(#775));
#145=EDGE_LOOP('',(#776));
#146=EDGE_LOOP('',(#777));
#147=EDGE_LOOP('',(#778));
#148=EDGE_LOOP('',(#779));
#149=EDGE_LOOP('',(#780));
#150=EDGE_LOOP('',(#781,#782,#783,#784));
#151=EDGE_LOOP('',(#785,#786,#787,#788));
#152=EDGE_LOOP('',(#789));
#153=EDGE_LOOP('',(#790));
#154=EDGE_LOOP('',(#791,#792,#793,#794,#795,#796,#797,#798));
#155=EDGE_LOOP('',(#799,#800,#801));
#156=EDGE_LOOP('',(#802,#803));
#157=EDGE_LOOP('',(#804,#805,#806,#807));
#158=EDGE_LOOP('',(#808,#809,#810,#811,#812));
#159=EDGE_LOOP('',(#813,#814,#815,#816));
#160=EDGE_LOOP('',(#817));
#161=EDGE_LOOP('',(#818));
#162=EDGE_LOOP('',(#819,#820,#821,#822));
#163=EDGE_LOOP('',(#823));
#164=EDGE_LOOP('',(#824));
#165=EDGE_LOOP('',(#825,#826,#827,#828));
#166=EDGE_LOOP('',(#829));
#167=EDGE_LOOP('',(#830,#831,#832,#833,#834,#835,#836,#837,#838,#839,#840,
#841));
#168=EDGE_LOOP('',(#842,#843,#844,#845));
#169=EDGE_LOOP('',(#846));
#170=EDGE_LOOP('',(#847,#848,#849,#850,#851,#852,#853,#854,#855,#856,#857,
#858));
#171=EDGE_LOOP('',(#859,#860,#861,#862));
#172=EDGE_LOOP('',(#863,#864,#865,#866));
#173=EDGE_LOOP('',(#867,#868,#869,#870));
#174=EDGE_LOOP('',(#871,#872,#873,#874));
#175=EDGE_LOOP('',(#875,#876,#877,#878));
#176=EDGE_LOOP('',(#879,#880,#881,#882));
#177=EDGE_LOOP('',(#883,#884,#885,#886));
#178=EDGE_LOOP('',(#887,#888,#889,#890));
#179=EDGE_LOOP('',(#891,#892,#893,#894));
#180=EDGE_LOOP('',(#895,#896,#897,#898));
#181=EDGE_LOOP('',(#899,#900,#901,#902));
#182=EDGE_LOOP('',(#903,#904,#905,#906));
#183=EDGE_LOOP('',(#907,#908,#909,#910,#911,#912,#913,#914,#915,#916,#917,
#918));
#184=EDGE_LOOP('',(#919,#920,#921,#922));
#185=EDGE_LOOP('',(#923,#924,#925,#926));
#186=EDGE_LOOP('',(#927,#928,#929,#930));
#187=EDGE_LOOP('',(#931,#932,#933,#934));
#188=EDGE_LOOP('',(#935,#936,#937,#938));
#189=EDGE_LOOP('',(#939,#940,#941,#942));
#190=EDGE_LOOP('',(#943,#944,#945,#946));
#191=EDGE_LOOP('',(#947,#948,#949,#950));
#192=EDGE_LOOP('',(#951,#952,#953,#954));
#193=EDGE_LOOP('',(#955,#956,#957,#958));
#194=EDGE_LOOP('',(#959,#960,#961,#962));
#195=EDGE_LOOP('',(#963,#964,#965,#966));
#196=EDGE_LOOP('',(#967,#968,#969,#970,#971,#972,#973,#974,#975,#976,#977,
#978));
#197=EDGE_LOOP('',(#979,#980,#981,#982));
#198=EDGE_LOOP('',(#983));
#199=EDGE_LOOP('',(#984,#985,#986,#987));
#200=EDGE_LOOP('',(#988));
#201=EDGE_LOOP('',(#989,#990,#991,#992));
#202=EDGE_LOOP('',(#993,#994,#995,#996));
#203=EDGE_LOOP('',(#997,#998,#999,#1000));
#204=EDGE_LOOP('',(#1001,#1002,#1003,#1004));
#205=EDGE_LOOP('',(#1005,#1006,#1007,#1008));
#206=EDGE_LOOP('',(#1009,#1010,#1011,#1012));
#207=EDGE_LOOP('',(#1013,#1014,#1015,#1016));
#208=EDGE_LOOP('',(#1017,#1018,#1019,#1020));
#209=CIRCLE('',#1154,1.00080169780159);
#210=CIRCLE('',#1155,0.500000000000001);
#211=CIRCLE('',#1157,1.00080169780159);
#212=CIRCLE('',#1158,0.500000000000001);
#213=CIRCLE('',#1160,1.00080169780159);
#214=CIRCLE('',#1161,0.500000000000001);
#215=CIRCLE('',#1163,1.00080169780159);
#216=CIRCLE('',#1164,0.500000000000001);
#217=CIRCLE('',#1166,12.);
#218=CIRCLE('',#1168,12.);
#219=CIRCLE('',#1170,12.25);
#220=CIRCLE('',#1172,12.5);
#221=CIRCLE('',#1173,12.5);
#222=CIRCLE('',#1174,12.5);
#223=CIRCLE('',#1176,12.6);
#224=CIRCLE('',#1178,12.6);
#225=CIRCLE('',#1180,12.5);
#226=CIRCLE('',#1182,12.5);
#227=CIRCLE('',#1184,1.25);
#228=CIRCLE('',#1185,1.25);
#229=CIRCLE('',#1186,2.);
#230=CIRCLE('',#1187,2.);
#231=CIRCLE('',#1188,3.5);
#232=CIRCLE('',#1190,3.5);
#233=CIRCLE('',#1191,2.);
#234=CIRCLE('',#1194,2.);
#235=CIRCLE('',#1196,1.95);
#236=CIRCLE('',#1198,1.95);
#237=CIRCLE('',#1199,1.95);
#238=CIRCLE('',#1200,1.95);
#239=CIRCLE('',#1206,2.);
#240=CIRCLE('',#1208,1.75);
#241=CIRCLE('',#1210,2.);
#242=CIRCLE('',#1212,1.75);
#243=CIRCLE('',#1214,1.75);
#244=CIRCLE('',#1217,1.75);
#245=CIRCLE('',#1246,1.25);
#246=CIRCLE('',#1249,1.25);
#247=LINE('',#1589,#359);
#248=LINE('',#1593,#360);
#249=LINE('',#1594,#361);
#250=LINE('',#1600,#362);
#251=LINE('',#1604,#363);
#252=LINE('',#1605,#364);
#253=LINE('',#1611,#365);
#254=LINE('',#1615,#366);
#255=LINE('',#1616,#367);
#256=LINE('',#1622,#368);
#257=LINE('',#1626,#369);
#258=LINE('',#1627,#370);
#259=LINE('',#1633,#371);
#260=LINE('',#1634,#372);
#261=LINE('',#1635,#373);
#262=LINE('',#1636,#374);
#263=LINE('',#1639,#375);
#264=LINE('',#1650,#376);
#265=LINE('',#1657,#377);
#266=LINE('',#1664,#378);
#267=LINE('',#1683,#379);
#268=LINE('',#1686,#380);
#269=LINE('',#1693,#381);
#270=LINE('',#1697,#382);
#271=LINE('',#1701,#383);
#272=LINE('',#1704,#384);
#273=LINE('',#1706,#385);
#274=LINE('',#1709,#386);
#275=LINE('',#1713,#387);
#276=LINE('',#1720,#388);
#277=LINE('',#1726,#389);
#278=LINE('',#1731,#390);
#279=LINE('',#1733,#391);
#280=LINE('',#1735,#392);
#281=LINE('',#1737,#393);
#282=LINE('',#1739,#394);
#283=LINE('',#1741,#395);
#284=LINE('',#1743,#396);
#285=LINE('',#1745,#397);
#286=LINE('',#1747,#398);
#287=LINE('',#1749,#399);
#288=LINE('',#1751,#400);
#289=LINE('',#1752,#401);
#290=LINE('',#1755,#402);
#291=LINE('',#1760,#403);
#292=LINE('',#1762,#404);
#293=LINE('',#1764,#405);
#294=LINE('',#1766,#406);
#295=LINE('',#1768,#407);
#296=LINE('',#1770,#408);
#297=LINE('',#1772,#409);
#298=LINE('',#1774,#410);
#299=LINE('',#1776,#411);
#300=LINE('',#1778,#412);
#301=LINE('',#1780,#413);
#302=LINE('',#1781,#414);
#303=LINE('',#1784,#415);
#304=LINE('',#1786,#416);
#305=LINE('',#1787,#417);
#306=LINE('',#1790,#418);
#307=LINE('',#1791,#419);
#308=LINE('',#1794,#420);
#309=LINE('',#1795,#421);
#310=LINE('',#1798,#422);
#311=LINE('',#1799,#423);
#312=LINE('',#1802,#424);
#313=LINE('',#1803,#425);
#314=LINE('',#1806,#426);
#315=LINE('',#1807,#427);
#316=LINE('',#1810,#428);
#317=LINE('',#1811,#429);
#318=LINE('',#1814,#430);
#319=LINE('',#1815,#431);
#320=LINE('',#1818,#432);
#321=LINE('',#1819,#433);
#322=LINE('',#1822,#434);
#323=LINE('',#1823,#435);
#324=LINE('',#1826,#436);
#325=LINE('',#1827,#437);
#326=LINE('',#1829,#438);
#327=LINE('',#1833,#439);
#328=LINE('',#1835,#440);
#329=LINE('',#1836,#441);
#330=LINE('',#1839,#442);
#331=LINE('',#1840,#443);
#332=LINE('',#1843,#444);
#333=LINE('',#1844,#445);
#334=LINE('',#1847,#446);
#335=LINE('',#1848,#447);
#336=LINE('',#1851,#448);
#337=LINE('',#1852,#449);
#338=LINE('',#1855,#450);
#339=LINE('',#1856,#451);
#340=LINE('',#1859,#452);
#341=LINE('',#1860,#453);
#342=LINE('',#1863,#454);
#343=LINE('',#1864,#455);
#344=LINE('',#1867,#456);
#345=LINE('',#1868,#457);
#346=LINE('',#1871,#458);
#347=LINE('',#1872,#459);
#348=LINE('',#1875,#460);
#349=LINE('',#1876,#461);
#350=LINE('',#1878,#462);
#351=LINE('',#1883,#463);
#352=LINE('',#1888,#464);
#353=LINE('',#1891,#465);
#354=LINE('',#1893,#466);
#355=LINE('',#1895,#467);
#356=LINE('',#1897,#468);
#357=LINE('',#1901,#469);
#358=LINE('',#1903,#470);
#359=VECTOR('',#1263,2.03924874941875);
#360=VECTOR('',#1266,2.03924874941875);
#361=VECTOR('',#1267,2.);
#362=VECTOR('',#1272,2.03924874941825);
#363=VECTOR('',#1275,2.03924874941875);
#364=VECTOR('',#1276,2.);
#365=VECTOR('',#1281,2.03924874941875);
#366=VECTOR('',#1284,2.03924874941875);
#367=VECTOR('',#1285,2.);
#368=VECTOR('',#1290,2.03924874941825);
#369=VECTOR('',#1293,2.03924874941875);
#370=VECTOR('',#1294,2.);
#371=VECTOR('',#1301,0.199999999999999);
#372=VECTOR('',#1302,0.200000000000001);
#373=VECTOR('',#1303,0.199999999999999);
#374=VECTOR('',#1304,0.200000000000001);
#375=VECTOR('',#1307,12.);
#376=VECTOR('',#1320,12.5);
#377=VECTOR('',#1329,12.6);
#378=VECTOR('',#1338,12.5);
#379=VECTOR('',#1361,3.5);
#380=VECTOR('',#1364,2.);
#381=VECTOR('',#1373,1.95);
#382=VECTOR('',#1376,10.);
#383=VECTOR('',#1379,10.);
#384=VECTOR('',#1384,2.60768096208106);
#385=VECTOR('',#1387,2.60768096208106);
#386=VECTOR('',#1392,12.25);
#387=VECTOR('',#1397,2.);
#388=VECTOR('',#1406,2.);
#389=VECTOR('',#1413,1.75);
#390=VECTOR('',#1418,1.15524587821728);
#391=VECTOR('',#1419,0.5);
#392=VECTOR('',#1420,1.15524587821728);
#393=VECTOR('',#1421,1.08828654819859);
#394=VECTOR('',#1422,0.500000000000002);
#395=VECTOR('',#1423,1.08828654819859);
#396=VECTOR('',#1424,1.15524587821728);
#397=VECTOR('',#1425,0.5);
#398=VECTOR('',#1426,1.15524587821728);
#399=VECTOR('',#1427,1.08828654819859);
#400=VECTOR('',#1428,0.500000000000002);
#401=VECTOR('',#1429,1.08828654819859);
#402=VECTOR('',#1432,1.75);
#403=VECTOR('',#1437,0.500000000000002);
#404=VECTOR('',#1438,1.08828654819859);
#405=VECTOR('',#1439,1.15524587821728);
#406=VECTOR('',#1440,0.5);
#407=VECTOR('',#1441,1.15524587821728);
#408=VECTOR('',#1442,1.08828654819859);
#409=VECTOR('',#1443,0.500000000000002);
#410=VECTOR('',#1444,1.08828654819859);
#411=VECTOR('',#1445,1.15524587821728);
#412=VECTOR('',#1446,0.5);
#413=VECTOR('',#1447,1.15524587821728);
#414=VECTOR('',#1448,1.08828654819859);
#415=VECTOR('',#1451,0.999999999999996);
#416=VECTOR('',#1452,1.08828654819859);
#417=VECTOR('',#1453,0.999999999999996);
#418=VECTOR('',#1456,1.15524587821728);
#419=VECTOR('',#1457,0.999999999999996);
#420=VECTOR('',#1460,0.5);
#421=VECTOR('',#1461,0.999999999999996);
#422=VECTOR('',#1464,1.15524587821728);
#423=VECTOR('',#1465,0.999999999999996);
#424=VECTOR('',#1468,1.08828654819859);
#425=VECTOR('',#1469,0.999999999999996);
#426=VECTOR('',#1472,0.500000000000002);
#427=VECTOR('',#1473,0.999999999999996);
#428=VECTOR('',#1476,1.08828654819859);
#429=VECTOR('',#1477,0.999999999999996);
#430=VECTOR('',#1480,1.15524587821728);
#431=VECTOR('',#1481,0.999999999999996);
#432=VECTOR('',#1484,0.5);
#433=VECTOR('',#1485,0.999999999999996);
#434=VECTOR('',#1488,1.15524587821728);
#435=VECTOR('',#1489,0.999999999999996);
#436=VECTOR('',#1492,1.08828654819859);
#437=VECTOR('',#1493,0.999999999999996);
#438=VECTOR('',#1496,0.500000000000002);
#439=VECTOR('',#1501,0.999999999999996);
#440=VECTOR('',#1502,1.15524587821728);
#441=VECTOR('',#1503,0.999999999999996);
#442=VECTOR('',#1506,0.5);
#443=VECTOR('',#1507,0.999999999999996);
#444=VECTOR('',#1510,1.15524587821728);
#445=VECTOR('',#1511,0.999999999999996);
#446=VECTOR('',#1514,1.08828654819859);
#447=VECTOR('',#1515,0.999999999999996);
#448=VECTOR('',#1518,0.500000000000002);
#449=VECTOR('',#1519,0.999999999999996);
#450=VECTOR('',#1522,1.08828654819859);
#451=VECTOR('',#1523,0.999999999999996);
#452=VECTOR('',#1526,1.15524587821728);
#453=VECTOR('',#1527,0.999999999999996);
#454=VECTOR('',#1530,0.5);
#455=VECTOR('',#1531,0.999999999999996);
#456=VECTOR('',#1534,1.15524587821728);
#457=VECTOR('',#1535,0.999999999999996);
#458=VECTOR('',#1538,1.08828654819859);
#459=VECTOR('',#1539,0.999999999999996);
#460=VECTOR('',#1542,0.500000000000002);
#461=VECTOR('',#1543,0.999999999999996);
#462=VECTOR('',#1546,1.08828654819859);
#463=VECTOR('',#1553,1.25);
#464=VECTOR('',#1560,1.25);
#465=VECTOR('',#1565,0.200000000000001);
#466=VECTOR('',#1568,0.199999999999999);
#467=VECTOR('',#1571,0.199999999999998);
#468=VECTOR('',#1574,0.199999999999996);
#469=VECTOR('',#1581,0.500000000000001);
#470=VECTOR('',#1584,0.500000000000001);
#471=VERTEX_POINT('',#1587);
#472=VERTEX_POINT('',#1588);
#473=VERTEX_POINT('',#1590);
#474=VERTEX_POINT('',#1592);
#475=VERTEX_POINT('',#1595);
#476=VERTEX_POINT('',#1598);
#477=VERTEX_POINT('',#1599);
#478=VERTEX_POINT('',#1601);
#479=VERTEX_POINT('',#1603);
#480=VERTEX_POINT('',#1606);
#481=VERTEX_POINT('',#1609);
#482=VERTEX_POINT('',#1610);
#483=VERTEX_POINT('',#1612);
#484=VERTEX_POINT('',#1614);
#485=VERTEX_POINT('',#1617);
#486=VERTEX_POINT('',#1620);
#487=VERTEX_POINT('',#1621);
#488=VERTEX_POINT('',#1623);
#489=VERTEX_POINT('',#1625);
#490=VERTEX_POINT('',#1628);
#491=VERTEX_POINT('',#1631);
#492=VERTEX_POINT('',#1638);
#493=VERTEX_POINT('',#1642);
#494=VERTEX_POINT('',#1645);
#495=VERTEX_POINT('',#1646);
#496=VERTEX_POINT('',#1649);
#497=VERTEX_POINT('',#1653);
#498=VERTEX_POINT('',#1656);
#499=VERTEX_POINT('',#1660);
#500=VERTEX_POINT('',#1663);
#501=VERTEX_POINT('',#1667);
#502=VERTEX_POINT('',#1669);
#503=VERTEX_POINT('',#1671);
#504=VERTEX_POINT('',#1673);
#505=VERTEX_POINT('',#1675);
#506=VERTEX_POINT('',#1678);
#507=VERTEX_POINT('',#1680);
#508=VERTEX_POINT('',#1685);
#509=VERTEX_POINT('',#1689);
#510=VERTEX_POINT('',#1692);
#511=VERTEX_POINT('',#1694);
#512=VERTEX_POINT('',#1696);
#513=VERTEX_POINT('',#1698);
#514=VERTEX_POINT('',#1700);
#515=VERTEX_POINT('',#1711);
#516=VERTEX_POINT('',#1715);
#517=VERTEX_POINT('',#1718);
#518=VERTEX_POINT('',#1722);
#519=VERTEX_POINT('',#1725);
#520=VERTEX_POINT('',#1729);
#521=VERTEX_POINT('',#1730);
#522=VERTEX_POINT('',#1732);
#523=VERTEX_POINT('',#1734);
#524=VERTEX_POINT('',#1736);
#525=VERTEX_POINT('',#1738);
#526=VERTEX_POINT('',#1740);
#527=VERTEX_POINT('',#1742);
#528=VERTEX_POINT('',#1744);
#529=VERTEX_POINT('',#1746);
#530=VERTEX_POINT('',#1748);
#531=VERTEX_POINT('',#1750);
#532=VERTEX_POINT('',#1754);
#533=VERTEX_POINT('',#1758);
#534=VERTEX_POINT('',#1759);
#535=VERTEX_POINT('',#1761);
#536=VERTEX_POINT('',#1763);
#537=VERTEX_POINT('',#1765);
#538=VERTEX_POINT('',#1767);
#539=VERTEX_POINT('',#1769);
#540=VERTEX_POINT('',#1771);
#541=VERTEX_POINT('',#1773);
#542=VERTEX_POINT('',#1775);
#543=VERTEX_POINT('',#1777);
#544=VERTEX_POINT('',#1779);
#545=VERTEX_POINT('',#1783);
#546=VERTEX_POINT('',#1785);
#547=VERTEX_POINT('',#1789);
#548=VERTEX_POINT('',#1793);
#549=VERTEX_POINT('',#1797);
#550=VERTEX_POINT('',#1801);
#551=VERTEX_POINT('',#1805);
#552=VERTEX_POINT('',#1809);
#553=VERTEX_POINT('',#1813);
#554=VERTEX_POINT('',#1817);
#555=VERTEX_POINT('',#1821);
#556=VERTEX_POINT('',#1825);
#557=VERTEX_POINT('',#1832);
#558=VERTEX_POINT('',#1834);
#559=VERTEX_POINT('',#1838);
#560=VERTEX_POINT('',#1842);
#561=VERTEX_POINT('',#1846);
#562=VERTEX_POINT('',#1850);
#563=VERTEX_POINT('',#1854);
#564=VERTEX_POINT('',#1858);
#565=VERTEX_POINT('',#1862);
#566=VERTEX_POINT('',#1866);
#567=VERTEX_POINT('',#1870);
#568=VERTEX_POINT('',#1874);
#569=VERTEX_POINT('',#1881);
#570=VERTEX_POINT('',#1886);
#571=EDGE_CURVE('',#471,#472,#247,.T.);
#572=EDGE_CURVE('',#471,#473,#209,.F.);
#573=EDGE_CURVE('',#473,#474,#248,.T.);
#574=EDGE_CURVE('',#474,#472,#249,.T.);
#575=EDGE_CURVE('',#475,#475,#210,.T.);
#576=EDGE_CURVE('',#476,#477,#250,.T.);
#577=EDGE_CURVE('',#476,#478,#211,.F.);
#578=EDGE_CURVE('',#478,#479,#251,.T.);
#579=EDGE_CURVE('',#479,#477,#252,.T.);
#580=EDGE_CURVE('',#480,#480,#212,.T.);
#581=EDGE_CURVE('',#481,#482,#253,.T.);
#582=EDGE_CURVE('',#481,#483,#213,.F.);
#583=EDGE_CURVE('',#483,#484,#254,.T.);
#584=EDGE_CURVE('',#484,#482,#255,.T.);
#585=EDGE_CURVE('',#485,#485,#214,.T.);
#586=EDGE_CURVE('',#486,#487,#256,.T.);
#587=EDGE_CURVE('',#486,#488,#215,.F.);
#588=EDGE_CURVE('',#488,#489,#257,.T.);
#589=EDGE_CURVE('',#489,#487,#258,.T.);
#590=EDGE_CURVE('',#490,#490,#216,.T.);
#591=EDGE_CURVE('',#491,#491,#217,.T.);
#592=EDGE_CURVE('',#487,#484,#259,.T.);
#593=EDGE_CURVE('',#482,#489,#260,.T.);
#594=EDGE_CURVE('',#477,#474,#261,.T.);
#595=EDGE_CURVE('',#472,#479,#262,.T.);
#596=EDGE_CURVE('',#491,#492,#263,.T.);
#597=EDGE_CURVE('',#492,#492,#218,.T.);
#598=EDGE_CURVE('',#493,#493,#219,.F.);
#599=EDGE_CURVE('',#494,#495,#220,.T.);
#600=EDGE_CURVE('',#495,#494,#221,.T.);
#601=EDGE_CURVE('',#494,#496,#264,.T.);
#602=EDGE_CURVE('',#496,#496,#222,.T.);
#603=EDGE_CURVE('',#497,#497,#223,.T.);
#604=EDGE_CURVE('',#497,#498,#265,.T.);
#605=EDGE_CURVE('',#498,#498,#224,.T.);
#606=EDGE_CURVE('',#499,#499,#225,.T.);
#607=EDGE_CURVE('',#499,#500,#266,.T.);
#608=EDGE_CURVE('',#500,#500,#226,.T.);
#609=EDGE_CURVE('',#501,#501,#227,.T.);
#610=EDGE_CURVE('',#502,#502,#228,.T.);
#611=EDGE_CURVE('',#503,#503,#229,.T.);
#612=EDGE_CURVE('',#504,#504,#230,.T.);
#613=EDGE_CURVE('',#505,#505,#231,.F.);
#614=EDGE_CURVE('',#506,#506,#232,.T.);
#615=EDGE_CURVE('',#507,#507,#233,.T.);
#616=EDGE_CURVE('',#505,#506,#267,.T.);
#617=EDGE_CURVE('',#507,#508,#268,.T.);
#618=EDGE_CURVE('',#508,#508,#234,.T.);
#619=EDGE_CURVE('',#509,#509,#235,.F.);
#620=EDGE_CURVE('',#509,#510,#269,.T.);
#621=EDGE_CURVE('',#511,#510,#236,.T.);
#622=EDGE_CURVE('',#511,#512,#270,.T.);
#623=EDGE_CURVE('',#512,#513,#237,.T.);
#624=EDGE_CURVE('',#513,#514,#271,.F.);
#625=EDGE_CURVE('',#510,#514,#238,.T.);
#626=EDGE_CURVE('',#511,#514,#272,.T.);
#627=EDGE_CURVE('',#512,#513,#273,.T.);
#628=EDGE_CURVE('',#495,#493,#274,.T.);
#629=EDGE_CURVE('',#515,#515,#239,.T.);
#630=EDGE_CURVE('',#515,#504,#275,.T.);
#631=EDGE_CURVE('',#516,#516,#240,.F.);
#632=EDGE_CURVE('',#517,#517,#241,.T.);
#633=EDGE_CURVE('',#517,#503,#276,.T.);
#634=EDGE_CURVE('',#518,#518,#242,.T.);
#635=EDGE_CURVE('',#518,#519,#277,.T.);
#636=EDGE_CURVE('',#519,#519,#243,.T.);
#637=EDGE_CURVE('',#520,#521,#278,.T.);
#638=EDGE_CURVE('',#522,#520,#279,.T.);
#639=EDGE_CURVE('',#523,#522,#280,.T.);
#640=EDGE_CURVE('',#524,#523,#281,.T.);
#641=EDGE_CURVE('',#525,#524,#282,.T.);
#642=EDGE_CURVE('',#526,#525,#283,.T.);
#643=EDGE_CURVE('',#527,#526,#284,.T.);
#644=EDGE_CURVE('',#528,#527,#285,.T.);
#645=EDGE_CURVE('',#529,#528,#286,.T.);
#646=EDGE_CURVE('',#530,#529,#287,.T.);
#647=EDGE_CURVE('',#531,#530,#288,.T.);
#648=EDGE_CURVE('',#521,#531,#289,.T.);
#649=EDGE_CURVE('',#516,#532,#290,.T.);
#650=EDGE_CURVE('',#532,#532,#244,.T.);
#651=EDGE_CURVE('',#533,#534,#291,.T.);
#652=EDGE_CURVE('',#535,#533,#292,.T.);
#653=EDGE_CURVE('',#536,#535,#293,.T.);
#654=EDGE_CURVE('',#537,#536,#294,.T.);
#655=EDGE_CURVE('',#538,#537,#295,.T.);
#656=EDGE_CURVE('',#539,#538,#296,.T.);
#657=EDGE_CURVE('',#540,#539,#297,.T.);
#658=EDGE_CURVE('',#541,#540,#298,.T.);
#659=EDGE_CURVE('',#542,#541,#299,.T.);
#660=EDGE_CURVE('',#543,#542,#300,.T.);
#661=EDGE_CURVE('',#544,#543,#301,.T.);
#662=EDGE_CURVE('',#534,#544,#302,.T.);
#663=EDGE_CURVE('',#545,#533,#303,.T.);
#664=EDGE_CURVE('',#546,#545,#304,.T.);
#665=EDGE_CURVE('',#546,#535,#305,.T.);
#666=EDGE_CURVE('',#547,#546,#306,.T.);
#667=EDGE_CURVE('',#547,#536,#307,.T.);
#668=EDGE_CURVE('',#548,#547,#308,.T.);
#669=EDGE_CURVE('',#548,#537,#309,.T.);
#670=EDGE_CURVE('',#549,#548,#310,.T.);
#671=EDGE_CURVE('',#549,#538,#311,.T.);
#672=EDGE_CURVE('',#550,#549,#312,.T.);
#673=EDGE_CURVE('',#550,#539,#313,.T.);
#674=EDGE_CURVE('',#551,#550,#314,.T.);
#675=EDGE_CURVE('',#551,#540,#315,.T.);
#676=EDGE_CURVE('',#552,#551,#316,.T.);
#677=EDGE_CURVE('',#552,#541,#317,.T.);
#678=EDGE_CURVE('',#553,#552,#318,.T.);
#679=EDGE_CURVE('',#553,#542,#319,.T.);
#680=EDGE_CURVE('',#554,#553,#320,.T.);
#681=EDGE_CURVE('',#554,#543,#321,.T.);
#682=EDGE_CURVE('',#555,#554,#322,.T.);
#683=EDGE_CURVE('',#555,#544,#323,.T.);
#684=EDGE_CURVE('',#556,#555,#324,.T.);
#685=EDGE_CURVE('',#556,#534,#325,.T.);
#686=EDGE_CURVE('',#545,#556,#326,.T.);
#687=EDGE_CURVE('',#557,#521,#327,.T.);
#688=EDGE_CURVE('',#558,#557,#328,.T.);
#689=EDGE_CURVE('',#558,#520,#329,.T.);
#690=EDGE_CURVE('',#559,#558,#330,.T.);
#691=EDGE_CURVE('',#559,#522,#331,.T.);
#692=EDGE_CURVE('',#560,#559,#332,.T.);
#693=EDGE_CURVE('',#560,#523,#333,.T.);
#694=EDGE_CURVE('',#561,#560,#334,.T.);
#695=EDGE_CURVE('',#561,#524,#335,.T.);
#696=EDGE_CURVE('',#562,#561,#336,.T.);
#697=EDGE_CURVE('',#562,#525,#337,.T.);
#698=EDGE_CURVE('',#563,#562,#338,.T.);
#699=EDGE_CURVE('',#563,#526,#339,.T.);
#700=EDGE_CURVE('',#564,#563,#340,.T.);
#701=EDGE_CURVE('',#564,#527,#341,.T.);
#702=EDGE_CURVE('',#565,#564,#342,.T.);
#703=EDGE_CURVE('',#565,#528,#343,.T.);
#704=EDGE_CURVE('',#566,#565,#344,.T.);
#705=EDGE_CURVE('',#566,#529,#345,.T.);
#706=EDGE_CURVE('',#567,#566,#346,.T.);
#707=EDGE_CURVE('',#567,#530,#347,.T.);
#708=EDGE_CURVE('',#568,#567,#348,.T.);
#709=EDGE_CURVE('',#568,#531,#349,.T.);
#710=EDGE_CURVE('',#557,#568,#350,.T.);
#711=EDGE_CURVE('',#569,#569,#245,.T.);
#712=EDGE_CURVE('',#569,#502,#351,.T.);
#713=EDGE_CURVE('',#570,#570,#246,.T.);
#714=EDGE_CURVE('',#570,#501,#352,.T.);
#715=EDGE_CURVE('',#471,#478,#353,.T.);
#716=EDGE_CURVE('',#473,#476,#354,.T.);
#717=EDGE_CURVE('',#481,#488,#355,.T.);
#718=EDGE_CURVE('',#483,#486,#356,.T.);
#719=EDGE_CURVE('',#485,#490,#357,.T.);
#720=EDGE_CURVE('',#475,#480,#358,.T.);
#721=ORIENTED_EDGE('',*,*,#571,.F.);
#722=ORIENTED_EDGE('',*,*,#572,.T.);
#723=ORIENTED_EDGE('',*,*,#573,.T.);
#724=ORIENTED_EDGE('',*,*,#574,.T.);
#725=ORIENTED_EDGE('',*,*,#575,.T.);
#726=ORIENTED_EDGE('',*,*,#576,.F.);
#727=ORIENTED_EDGE('',*,*,#577,.T.);
#728=ORIENTED_EDGE('',*,*,#578,.T.);
#729=ORIENTED_EDGE('',*,*,#579,.T.);
#730=ORIENTED_EDGE('',*,*,#580,.T.);
#731=ORIENTED_EDGE('',*,*,#581,.F.);
#732=ORIENTED_EDGE('',*,*,#582,.T.);
#733=ORIENTED_EDGE('',*,*,#583,.T.);
#734=ORIENTED_EDGE('',*,*,#584,.T.);
#735=ORIENTED_EDGE('',*,*,#585,.T.);
#736=ORIENTED_EDGE('',*,*,#586,.F.);
#737=ORIENTED_EDGE('',*,*,#587,.T.);
#738=ORIENTED_EDGE('',*,*,#588,.T.);
#739=ORIENTED_EDGE('',*,*,#589,.T.);
#740=ORIENTED_EDGE('',*,*,#590,.T.);
#741=ORIENTED_EDGE('',*,*,#591,.T.);
#742=ORIENTED_EDGE('',*,*,#584,.F.);
#743=ORIENTED_EDGE('',*,*,#592,.F.);
#744=ORIENTED_EDGE('',*,*,#589,.F.);
#745=ORIENTED_EDGE('',*,*,#593,.F.);
#746=ORIENTED_EDGE('',*,*,#574,.F.);
#747=ORIENTED_EDGE('',*,*,#594,.F.);
#748=ORIENTED_EDGE('',*,*,#579,.F.);
#749=ORIENTED_EDGE('',*,*,#595,.F.);
#750=ORIENTED_EDGE('',*,*,#591,.F.);
#751=ORIENTED_EDGE('',*,*,#596,.T.);
#752=ORIENTED_EDGE('',*,*,#597,.T.);
#753=ORIENTED_EDGE('',*,*,#596,.F.);
#754=ORIENTED_EDGE('',*,*,#598,.T.);
#755=ORIENTED_EDGE('',*,*,#597,.F.);
#756=ORIENTED_EDGE('',*,*,#599,.T.);
#757=ORIENTED_EDGE('',*,*,#600,.T.);
#758=ORIENTED_EDGE('',*,*,#601,.T.);
#759=ORIENTED_EDGE('',*,*,#602,.T.);
#760=ORIENTED_EDGE('',*,*,#601,.F.);
#761=ORIENTED_EDGE('',*,*,#603,.T.);
#762=ORIENTED_EDGE('',*,*,#602,.F.);
#763=ORIENTED_EDGE('',*,*,#603,.F.);
#764=ORIENTED_EDGE('',*,*,#604,.T.);
#765=ORIENTED_EDGE('',*,*,#605,.T.);
#766=ORIENTED_EDGE('',*,*,#604,.F.);
#767=ORIENTED_EDGE('',*,*,#605,.F.);
#768=ORIENTED_EDGE('',*,*,#606,.T.);
#769=ORIENTED_EDGE('',*,*,#606,.F.);
#770=ORIENTED_EDGE('',*,*,#607,.T.);
#771=ORIENTED_EDGE('',*,*,#608,.T.);
#772=ORIENTED_EDGE('',*,*,#607,.F.);
#773=ORIENTED_EDGE('',*,*,#608,.F.);
#774=ORIENTED_EDGE('',*,*,#609,.F.);
#775=ORIENTED_EDGE('',*,*,#610,.F.);
#776=ORIENTED_EDGE('',*,*,#611,.F.);
#777=ORIENTED_EDGE('',*,*,#612,.F.);
#778=ORIENTED_EDGE('',*,*,#613,.F.);
#779=ORIENTED_EDGE('',*,*,#614,.T.);
#780=ORIENTED_EDGE('',*,*,#615,.F.);
#781=ORIENTED_EDGE('',*,*,#613,.T.);
#782=ORIENTED_EDGE('',*,*,#616,.T.);
#783=ORIENTED_EDGE('',*,*,#614,.F.);
#784=ORIENTED_EDGE('',*,*,#616,.F.);
#785=ORIENTED_EDGE('',*,*,#615,.T.);
#786=ORIENTED_EDGE('',*,*,#617,.T.);
#787=ORIENTED_EDGE('',*,*,#618,.F.);
#788=ORIENTED_EDGE('',*,*,#617,.F.);
#789=ORIENTED_EDGE('',*,*,#618,.T.);
#790=ORIENTED_EDGE('',*,*,#619,.F.);
#791=ORIENTED_EDGE('',*,*,#619,.T.);
#792=ORIENTED_EDGE('',*,*,#620,.T.);
#793=ORIENTED_EDGE('',*,*,#621,.F.);
#794=ORIENTED_EDGE('',*,*,#622,.T.);
#795=ORIENTED_EDGE('',*,*,#623,.T.);
#796=ORIENTED_EDGE('',*,*,#624,.T.);
#797=ORIENTED_EDGE('',*,*,#625,.F.);
#798=ORIENTED_EDGE('',*,*,#620,.F.);
#799=ORIENTED_EDGE('',*,*,#626,.F.);
#800=ORIENTED_EDGE('',*,*,#621,.T.);
#801=ORIENTED_EDGE('',*,*,#625,.T.);
#802=ORIENTED_EDGE('',*,*,#627,.T.);
#803=ORIENTED_EDGE('',*,*,#623,.F.);
#804=ORIENTED_EDGE('',*,*,#626,.T.);
#805=ORIENTED_EDGE('',*,*,#624,.F.);
#806=ORIENTED_EDGE('',*,*,#627,.F.);
#807=ORIENTED_EDGE('',*,*,#622,.F.);
#808=ORIENTED_EDGE('',*,*,#599,.F.);
#809=ORIENTED_EDGE('',*,*,#600,.F.);
#810=ORIENTED_EDGE('',*,*,#628,.T.);
#811=ORIENTED_EDGE('',*,*,#598,.F.);
#812=ORIENTED_EDGE('',*,*,#628,.F.);
#813=ORIENTED_EDGE('',*,*,#629,.F.);
#814=ORIENTED_EDGE('',*,*,#630,.T.);
#815=ORIENTED_EDGE('',*,*,#612,.T.);
#816=ORIENTED_EDGE('',*,*,#630,.F.);
#817=ORIENTED_EDGE('',*,*,#629,.T.);
#818=ORIENTED_EDGE('',*,*,#631,.F.);
#819=ORIENTED_EDGE('',*,*,#632,.F.);
#820=ORIENTED_EDGE('',*,*,#633,.T.);
#821=ORIENTED_EDGE('',*,*,#611,.T.);
#822=ORIENTED_EDGE('',*,*,#633,.F.);
#823=ORIENTED_EDGE('',*,*,#632,.T.);
#824=ORIENTED_EDGE('',*,*,#634,.F.);
#825=ORIENTED_EDGE('',*,*,#634,.T.);
#826=ORIENTED_EDGE('',*,*,#635,.T.);
#827=ORIENTED_EDGE('',*,*,#636,.F.);
#828=ORIENTED_EDGE('',*,*,#635,.F.);
#829=ORIENTED_EDGE('',*,*,#636,.T.);
#830=ORIENTED_EDGE('',*,*,#637,.F.);
#831=ORIENTED_EDGE('',*,*,#638,.F.);
#832=ORIENTED_EDGE('',*,*,#639,.F.);
#833=ORIENTED_EDGE('',*,*,#640,.F.);
#834=ORIENTED_EDGE('',*,*,#641,.F.);
#835=ORIENTED_EDGE('',*,*,#642,.F.);
#836=ORIENTED_EDGE('',*,*,#643,.F.);
#837=ORIENTED_EDGE('',*,*,#644,.F.);
#838=ORIENTED_EDGE('',*,*,#645,.F.);
#839=ORIENTED_EDGE('',*,*,#646,.F.);
#840=ORIENTED_EDGE('',*,*,#647,.F.);
#841=ORIENTED_EDGE('',*,*,#648,.F.);
#842=ORIENTED_EDGE('',*,*,#631,.T.);
#843=ORIENTED_EDGE('',*,*,#649,.T.);
#844=ORIENTED_EDGE('',*,*,#650,.F.);
#845=ORIENTED_EDGE('',*,*,#649,.F.);
#846=ORIENTED_EDGE('',*,*,#650,.T.);
#847=ORIENTED_EDGE('',*,*,#651,.F.);
#848=ORIENTED_EDGE('',*,*,#652,.F.);
#849=ORIENTED_EDGE('',*,*,#653,.F.);
#850=ORIENTED_EDGE('',*,*,#654,.F.);
#851=ORIENTED_EDGE('',*,*,#655,.F.);
#852=ORIENTED_EDGE('',*,*,#656,.F.);
#853=ORIENTED_EDGE('',*,*,#657,.F.);
#854=ORIENTED_EDGE('',*,*,#658,.F.);
#855=ORIENTED_EDGE('',*,*,#659,.F.);
#856=ORIENTED_EDGE('',*,*,#660,.F.);
#857=ORIENTED_EDGE('',*,*,#661,.F.);
#858=ORIENTED_EDGE('',*,*,#662,.F.);
#859=ORIENTED_EDGE('',*,*,#652,.T.);
#860=ORIENTED_EDGE('',*,*,#663,.F.);
#861=ORIENTED_EDGE('',*,*,#664,.F.);
#862=ORIENTED_EDGE('',*,*,#665,.T.);
#863=ORIENTED_EDGE('',*,*,#653,.T.);
#864=ORIENTED_EDGE('',*,*,#665,.F.);
#865=ORIENTED_EDGE('',*,*,#666,.F.);
#866=ORIENTED_EDGE('',*,*,#667,.T.);
#867=ORIENTED_EDGE('',*,*,#654,.T.);
#868=ORIENTED_EDGE('',*,*,#667,.F.);
#869=ORIENTED_EDGE('',*,*,#668,.F.);
#870=ORIENTED_EDGE('',*,*,#669,.T.);
#871=ORIENTED_EDGE('',*,*,#655,.T.);
#872=ORIENTED_EDGE('',*,*,#669,.F.);
#873=ORIENTED_EDGE('',*,*,#670,.F.);
#874=ORIENTED_EDGE('',*,*,#671,.T.);
#875=ORIENTED_EDGE('',*,*,#656,.T.);
#876=ORIENTED_EDGE('',*,*,#671,.F.);
#877=ORIENTED_EDGE('',*,*,#672,.F.);
#878=ORIENTED_EDGE('',*,*,#673,.T.);
#879=ORIENTED_EDGE('',*,*,#657,.T.);
#880=ORIENTED_EDGE('',*,*,#673,.F.);
#881=ORIENTED_EDGE('',*,*,#674,.F.);
#882=ORIENTED_EDGE('',*,*,#675,.T.);
#883=ORIENTED_EDGE('',*,*,#658,.T.);
#884=ORIENTED_EDGE('',*,*,#675,.F.);
#885=ORIENTED_EDGE('',*,*,#676,.F.);
#886=ORIENTED_EDGE('',*,*,#677,.T.);
#887=ORIENTED_EDGE('',*,*,#659,.T.);
#888=ORIENTED_EDGE('',*,*,#677,.F.);
#889=ORIENTED_EDGE('',*,*,#678,.F.);
#890=ORIENTED_EDGE('',*,*,#679,.T.);
#891=ORIENTED_EDGE('',*,*,#660,.T.);
#892=ORIENTED_EDGE('',*,*,#679,.F.);
#893=ORIENTED_EDGE('',*,*,#680,.F.);
#894=ORIENTED_EDGE('',*,*,#681,.T.);
#895=ORIENTED_EDGE('',*,*,#661,.T.);
#896=ORIENTED_EDGE('',*,*,#681,.F.);
#897=ORIENTED_EDGE('',*,*,#682,.F.);
#898=ORIENTED_EDGE('',*,*,#683,.T.);
#899=ORIENTED_EDGE('',*,*,#662,.T.);
#900=ORIENTED_EDGE('',*,*,#683,.F.);
#901=ORIENTED_EDGE('',*,*,#684,.F.);
#902=ORIENTED_EDGE('',*,*,#685,.T.);
#903=ORIENTED_EDGE('',*,*,#651,.T.);
#904=ORIENTED_EDGE('',*,*,#685,.F.);
#905=ORIENTED_EDGE('',*,*,#686,.F.);
#906=ORIENTED_EDGE('',*,*,#663,.T.);
#907=ORIENTED_EDGE('',*,*,#664,.T.);
#908=ORIENTED_EDGE('',*,*,#686,.T.);
#909=ORIENTED_EDGE('',*,*,#684,.T.);
#910=ORIENTED_EDGE('',*,*,#682,.T.);
#911=ORIENTED_EDGE('',*,*,#680,.T.);
#912=ORIENTED_EDGE('',*,*,#678,.T.);
#913=ORIENTED_EDGE('',*,*,#676,.T.);
#914=ORIENTED_EDGE('',*,*,#674,.T.);
#915=ORIENTED_EDGE('',*,*,#672,.T.);
#916=ORIENTED_EDGE('',*,*,#670,.T.);
#917=ORIENTED_EDGE('',*,*,#668,.T.);
#918=ORIENTED_EDGE('',*,*,#666,.T.);
#919=ORIENTED_EDGE('',*,*,#637,.T.);
#920=ORIENTED_EDGE('',*,*,#687,.F.);
#921=ORIENTED_EDGE('',*,*,#688,.F.);
#922=ORIENTED_EDGE('',*,*,#689,.T.);
#923=ORIENTED_EDGE('',*,*,#638,.T.);
#924=ORIENTED_EDGE('',*,*,#689,.F.);
#925=ORIENTED_EDGE('',*,*,#690,.F.);
#926=ORIENTED_EDGE('',*,*,#691,.T.);
#927=ORIENTED_EDGE('',*,*,#639,.T.);
#928=ORIENTED_EDGE('',*,*,#691,.F.);
#929=ORIENTED_EDGE('',*,*,#692,.F.);
#930=ORIENTED_EDGE('',*,*,#693,.T.);
#931=ORIENTED_EDGE('',*,*,#640,.T.);
#932=ORIENTED_EDGE('',*,*,#693,.F.);
#933=ORIENTED_EDGE('',*,*,#694,.F.);
#934=ORIENTED_EDGE('',*,*,#695,.T.);
#935=ORIENTED_EDGE('',*,*,#641,.T.);
#936=ORIENTED_EDGE('',*,*,#695,.F.);
#937=ORIENTED_EDGE('',*,*,#696,.F.);
#938=ORIENTED_EDGE('',*,*,#697,.T.);
#939=ORIENTED_EDGE('',*,*,#642,.T.);
#940=ORIENTED_EDGE('',*,*,#697,.F.);
#941=ORIENTED_EDGE('',*,*,#698,.F.);
#942=ORIENTED_EDGE('',*,*,#699,.T.);
#943=ORIENTED_EDGE('',*,*,#643,.T.);
#944=ORIENTED_EDGE('',*,*,#699,.F.);
#945=ORIENTED_EDGE('',*,*,#700,.F.);
#946=ORIENTED_EDGE('',*,*,#701,.T.);
#947=ORIENTED_EDGE('',*,*,#644,.T.);
#948=ORIENTED_EDGE('',*,*,#701,.F.);
#949=ORIENTED_EDGE('',*,*,#702,.F.);
#950=ORIENTED_EDGE('',*,*,#703,.T.);
#951=ORIENTED_EDGE('',*,*,#645,.T.);
#952=ORIENTED_EDGE('',*,*,#703,.F.);
#953=ORIENTED_EDGE('',*,*,#704,.F.);
#954=ORIENTED_EDGE('',*,*,#705,.T.);
#955=ORIENTED_EDGE('',*,*,#646,.T.);
#956=ORIENTED_EDGE('',*,*,#705,.F.);
#957=ORIENTED_EDGE('',*,*,#706,.F.);
#958=ORIENTED_EDGE('',*,*,#707,.T.);
#959=ORIENTED_EDGE('',*,*,#647,.T.);
#960=ORIENTED_EDGE('',*,*,#707,.F.);
#961=ORIENTED_EDGE('',*,*,#708,.F.);
#962=ORIENTED_EDGE('',*,*,#709,.T.);
#963=ORIENTED_EDGE('',*,*,#648,.T.);
#964=ORIENTED_EDGE('',*,*,#709,.F.);
#965=ORIENTED_EDGE('',*,*,#710,.F.);
#966=ORIENTED_EDGE('',*,*,#687,.T.);
#967=ORIENTED_EDGE('',*,*,#688,.T.);
#968=ORIENTED_EDGE('',*,*,#710,.T.);
#969=ORIENTED_EDGE('',*,*,#708,.T.);
#970=ORIENTED_EDGE('',*,*,#706,.T.);
#971=ORIENTED_EDGE('',*,*,#704,.T.);
#972=ORIENTED_EDGE('',*,*,#702,.T.);
#973=ORIENTED_EDGE('',*,*,#700,.T.);
#974=ORIENTED_EDGE('',*,*,#698,.T.);
#975=ORIENTED_EDGE('',*,*,#696,.T.);
#976=ORIENTED_EDGE('',*,*,#694,.T.);
#977=ORIENTED_EDGE('',*,*,#692,.T.);
#978=ORIENTED_EDGE('',*,*,#690,.T.);
#979=ORIENTED_EDGE('',*,*,#711,.F.);
#980=ORIENTED_EDGE('',*,*,#712,.T.);
#981=ORIENTED_EDGE('',*,*,#610,.T.);
#982=ORIENTED_EDGE('',*,*,#712,.F.);
#983=ORIENTED_EDGE('',*,*,#711,.T.);
#984=ORIENTED_EDGE('',*,*,#713,.F.);
#985=ORIENTED_EDGE('',*,*,#714,.T.);
#986=ORIENTED_EDGE('',*,*,#609,.T.);
#987=ORIENTED_EDGE('',*,*,#714,.F.);
#988=ORIENTED_EDGE('',*,*,#713,.T.);
#989=ORIENTED_EDGE('',*,*,#578,.F.);
#990=ORIENTED_EDGE('',*,*,#715,.F.);
#991=ORIENTED_EDGE('',*,*,#571,.T.);
#992=ORIENTED_EDGE('',*,*,#595,.T.);
#993=ORIENTED_EDGE('',*,*,#573,.F.);
#994=ORIENTED_EDGE('',*,*,#716,.T.);
#995=ORIENTED_EDGE('',*,*,#576,.T.);
#996=ORIENTED_EDGE('',*,*,#594,.T.);
#997=ORIENTED_EDGE('',*,*,#588,.F.);
#998=ORIENTED_EDGE('',*,*,#717,.F.);
#999=ORIENTED_EDGE('',*,*,#581,.T.);
#1000=ORIENTED_EDGE('',*,*,#593,.T.);
#1001=ORIENTED_EDGE('',*,*,#583,.F.);
#1002=ORIENTED_EDGE('',*,*,#718,.T.);
#1003=ORIENTED_EDGE('',*,*,#586,.T.);
#1004=ORIENTED_EDGE('',*,*,#592,.T.);
#1005=ORIENTED_EDGE('',*,*,#582,.F.);
#1006=ORIENTED_EDGE('',*,*,#717,.T.);
#1007=ORIENTED_EDGE('',*,*,#587,.F.);
#1008=ORIENTED_EDGE('',*,*,#718,.F.);
#1009=ORIENTED_EDGE('',*,*,#715,.T.);
#1010=ORIENTED_EDGE('',*,*,#577,.F.);
#1011=ORIENTED_EDGE('',*,*,#716,.F.);
#1012=ORIENTED_EDGE('',*,*,#572,.F.);
#1013=ORIENTED_EDGE('',*,*,#585,.F.);
#1014=ORIENTED_EDGE('',*,*,#719,.T.);
#1015=ORIENTED_EDGE('',*,*,#590,.F.);
#1016=ORIENTED_EDGE('',*,*,#719,.F.);
#1017=ORIENTED_EDGE('',*,*,#575,.F.);
#1018=ORIENTED_EDGE('',*,*,#720,.T.);
#1019=ORIENTED_EDGE('',*,*,#580,.F.);
#1020=ORIENTED_EDGE('',*,*,#720,.F.);
#1021=PLANE('',#1153);
#1022=PLANE('',#1156);
#1023=PLANE('',#1159);
#1024=PLANE('',#1162);
#1025=PLANE('',#1165);
#1026=PLANE('',#1169);
#1027=PLANE('',#1175);
#1028=PLANE('',#1179);
#1029=PLANE('',#1183);
#1030=PLANE('',#1189);
#1031=PLANE('',#1195);
#1032=PLANE('',#1201);
#1033=PLANE('',#1202);
#1034=PLANE('',#1203);
#1035=PLANE('',#1207);
#1036=PLANE('',#1211);
#1037=PLANE('',#1215);
#1038=PLANE('',#1218);
#1039=PLANE('',#1219);
#1040=PLANE('',#1220);
#1041=PLANE('',#1221);
#1042=PLANE('',#1222);
#1043=PLANE('',#1223);
#1044=PLANE('',#1224);
#1045=PLANE('',#1225);
#1046=PLANE('',#1226);
#1047=PLANE('',#1227);
#1048=PLANE('',#1228);
#1049=PLANE('',#1229);
#1050=PLANE('',#1230);
#1051=PLANE('',#1231);
#1052=PLANE('',#1232);
#1053=PLANE('',#1233);
#1054=PLANE('',#1234);
#1055=PLANE('',#1235);
#1056=PLANE('',#1236);
#1057=PLANE('',#1237);
#1058=PLANE('',#1238);
#1059=PLANE('',#1239);
#1060=PLANE('',#1240);
#1061=PLANE('',#1241);
#1062=PLANE('',#1242);
#1063=PLANE('',#1243);
#1064=PLANE('',#1244);
#1065=PLANE('',#1247);
#1066=PLANE('',#1250);
#1067=PLANE('',#1251);
#1068=PLANE('',#1252);
#1069=PLANE('',#1253);
#1070=PLANE('',#1254);
#1071=ADVANCED_FACE('',(#53,#33),#1021,.F.);
#1072=ADVANCED_FACE('',(#54,#34),#1022,.F.);
#1073=ADVANCED_FACE('',(#55,#35),#1023,.F.);
#1074=ADVANCED_FACE('',(#56,#36),#1024,.F.);
#1075=ADVANCED_FACE('',(#57,#37,#38),#1025,.F.);
#1076=ADVANCED_FACE('',(#58),#16,.T.);
#1077=ADVANCED_FACE('',(#59,#39),#1026,.F.);
#1078=ADVANCED_FACE('',(#60),#17,.T.);
#1079=ADVANCED_FACE('',(#61,#40),#1027,.F.);
#1080=ADVANCED_FACE('',(#62),#18,.T.);
#1081=ADVANCED_FACE('',(#63,#41),#1028,.F.);
#1082=ADVANCED_FACE('',(#64),#19,.T.);
#1083=ADVANCED_FACE('',(#65,#42,#43,#44,#45,#46),#1029,.F.);
#1084=ADVANCED_FACE('',(#66,#47),#1030,.T.);
#1085=ADVANCED_FACE('',(#67),#20,.T.);
#1086=ADVANCED_FACE('',(#68),#21,.F.);
#1087=ADVANCED_FACE('',(#69,#48),#1031,.F.);
#1088=ADVANCED_FACE('',(#70),#22,.T.);
#1089=ADVANCED_FACE('',(#71),#1032,.T.);
#1090=ADVANCED_FACE('',(#72),#1033,.F.);
#1091=ADVANCED_FACE('',(#73),#1034,.F.);
#1092=ADVANCED_FACE('',(#74),#15,.T.);
#1093=ADVANCED_FACE('',(#75),#23,.F.);
#1094=ADVANCED_FACE('',(#76,#49),#1035,.F.);
#1095=ADVANCED_FACE('',(#77),#24,.F.);
#1096=ADVANCED_FACE('',(#78,#50),#1036,.T.);
#1097=ADVANCED_FACE('',(#79),#25,.T.);
#1098=ADVANCED_FACE('',(#80,#51),#1037,.T.);
#1099=ADVANCED_FACE('',(#81),#26,.T.);
#1100=ADVANCED_FACE('',(#82,#52),#1038,.F.);
#1101=ADVANCED_FACE('',(#83),#1039,.F.);
#1102=ADVANCED_FACE('',(#84),#1040,.F.);
#1103=ADVANCED_FACE('',(#85),#1041,.F.);
#1104=ADVANCED_FACE('',(#86),#1042,.F.);
#1105=ADVANCED_FACE('',(#87),#1043,.F.);
#1106=ADVANCED_FACE('',(#88),#1044,.F.);
#1107=ADVANCED_FACE('',(#89),#1045,.F.);
#1108=ADVANCED_FACE('',(#90),#1046,.F.);
#1109=ADVANCED_FACE('',(#91),#1047,.F.);
#1110=ADVANCED_FACE('',(#92),#1048,.F.);
#1111=ADVANCED_FACE('',(#93),#1049,.F.);
#1112=ADVANCED_FACE('',(#94),#1050,.F.);
#1113=ADVANCED_FACE('',(#95),#1051,.T.);
#1114=ADVANCED_FACE('',(#96),#1052,.F.);
#1115=ADVANCED_FACE('',(#97),#1053,.F.);
#1116=ADVANCED_FACE('',(#98),#1054,.F.);
#1117=ADVANCED_FACE('',(#99),#1055,.F.);
#1118=ADVANCED_FACE('',(#100),#1056,.F.);
#1119=ADVANCED_FACE('',(#101),#1057,.F.);
#1120=ADVANCED_FACE('',(#102),#1058,.F.);
#1121=ADVANCED_FACE('',(#103),#1059,.F.);
#1122=ADVANCED_FACE('',(#104),#1060,.F.);
#1123=ADVANCED_FACE('',(#105),#1061,.F.);
#1124=ADVANCED_FACE('',(#106),#1062,.F.);
#1125=ADVANCED_FACE('',(#107),#1063,.F.);
#1126=ADVANCED_FACE('',(#108),#1064,.T.);
#1127=ADVANCED_FACE('',(#109),#27,.F.);
#1128=ADVANCED_FACE('',(#110),#1065,.F.);
#1129=ADVANCED_FACE('',(#111),#28,.F.);
#1130=ADVANCED_FACE('',(#112),#1066,.T.);
#1131=ADVANCED_FACE('',(#113),#1067,.F.);
#1132=ADVANCED_FACE('',(#114),#1068,.F.);
#1133=ADVANCED_FACE('',(#115),#1069,.F.);
#1134=ADVANCED_FACE('',(#116),#1070,.F.);
#1135=ADVANCED_FACE('',(#117),#29,.T.);
#1136=ADVANCED_FACE('',(#118),#30,.T.);
#1137=ADVANCED_FACE('',(#119),#31,.F.);
#1138=ADVANCED_FACE('',(#120),#32,.F.);
#1139=CLOSED_SHELL('',(#1071,#1072,#1073,#1074,#1075,#1076,#1077,#1078,
#1079,#1080,#1081,#1082,#1083,#1084,#1085,#1086,#1087,#1088,#1089,#1090,
#1091,#1092,#1093,#1094,#1095,#1096,#1097,#1098,#1099,#1100,#1101,#1102,
#1103,#1104,#1105,#1106,#1107,#1108,#1109,#1110,#1111,#1112,#1113,#1114,
#1115,#1116,#1117,#1118,#1119,#1120,#1121,#1122,#1123,#1124,#1125,#1126,
#1127,#1128,#1129,#1130,#1131,#1132,#1133,#1134,#1135,#1136,#1137,#1138));
#1140=DERIVED_UNIT_ELEMENT(#1142,1.);
#1141=DERIVED_UNIT_ELEMENT(#1909,-3.);
#1142=(
MASS_UNIT()
NAMED_UNIT(*)
SI_UNIT(.KILO.,.GRAM.)
);
#1143=DERIVED_UNIT((#1140,#1141));
#1144=MEASURE_REPRESENTATION_ITEM('density measure',
POSITIVE_RATIO_MEASURE(7850.),#1143);
#1145=PROPERTY_DEFINITION_REPRESENTATION(#1150,#1147);
#1146=PROPERTY_DEFINITION_REPRESENTATION(#1151,#1148);
#1147=REPRESENTATION('material name',(#1149),#1906);
#1148=REPRESENTATION('density',(#1144),#1906);
#1149=DESCRIPTIVE_REPRESENTATION_ITEM('Steel','Steel');
#1150=PROPERTY_DEFINITION('material property','material name',#1916);
#1151=PROPERTY_DEFINITION('material property','density of part',#1916);
#1152=AXIS2_PLACEMENT_3D('',#1585,#1259,#1260);
#1153=AXIS2_PLACEMENT_3D('',#1586,#1261,#1262);
#1154=AXIS2_PLACEMENT_3D('',#1591,#1264,#1265);
#1155=AXIS2_PLACEMENT_3D('',#1596,#1268,#1269);
#1156=AXIS2_PLACEMENT_3D('',#1597,#1270,#1271);
#1157=AXIS2_PLACEMENT_3D('',#1602,#1273,#1274);
#1158=AXIS2_PLACEMENT_3D('',#1607,#1277,#1278);
#1159=AXIS2_PLACEMENT_3D('',#1608,#1279,#1280);
#1160=AXIS2_PLACEMENT_3D('',#1613,#1282,#1283);
#1161=AXIS2_PLACEMENT_3D('',#1618,#1286,#1287);
#1162=AXIS2_PLACEMENT_3D('',#1619,#1288,#1289);
#1163=AXIS2_PLACEMENT_3D('',#1624,#1291,#1292);
#1164=AXIS2_PLACEMENT_3D('',#1629,#1295,#1296);
#1165=AXIS2_PLACEMENT_3D('',#1630,#1297,#1298);
#1166=AXIS2_PLACEMENT_3D('',#1632,#1299,#1300);
#1167=AXIS2_PLACEMENT_3D('',#1637,#1305,#1306);
#1168=AXIS2_PLACEMENT_3D('',#1640,#1308,#1309);
#1169=AXIS2_PLACEMENT_3D('',#1641,#1310,#1311);
#1170=AXIS2_PLACEMENT_3D('',#1643,#1312,#1313);
#1171=AXIS2_PLACEMENT_3D('',#1644,#1314,#1315);
#1172=AXIS2_PLACEMENT_3D('',#1647,#1316,#1317);
#1173=AXIS2_PLACEMENT_3D('',#1648,#1318,#1319);
#1174=AXIS2_PLACEMENT_3D('',#1651,#1321,#1322);
#1175=AXIS2_PLACEMENT_3D('',#1652,#1323,#1324);
#1176=AXIS2_PLACEMENT_3D('',#1654,#1325,#1326);
#1177=AXIS2_PLACEMENT_3D('',#1655,#1327,#1328);
#1178=AXIS2_PLACEMENT_3D('',#1658,#1330,#1331);
#1179=AXIS2_PLACEMENT_3D('',#1659,#1332,#1333);
#1180=AXIS2_PLACEMENT_3D('',#1661,#1334,#1335);
#1181=AXIS2_PLACEMENT_3D('',#1662,#1336,#1337);
#1182=AXIS2_PLACEMENT_3D('',#1665,#1339,#1340);
#1183=AXIS2_PLACEMENT_3D('',#1666,#1341,#1342);
#1184=AXIS2_PLACEMENT_3D('',#1668,#1343,#1344);
#1185=AXIS2_PLACEMENT_3D('',#1670,#1345,#1346);
#1186=AXIS2_PLACEMENT_3D('',#1672,#1347,#1348);
#1187=AXIS2_PLACEMENT_3D('',#1674,#1349,#1350);
#1188=AXIS2_PLACEMENT_3D('',#1676,#1351,#1352);
#1189=AXIS2_PLACEMENT_3D('',#1677,#1353,#1354);
#1190=AXIS2_PLACEMENT_3D('',#1679,#1355,#1356);
#1191=AXIS2_PLACEMENT_3D('',#1681,#1357,#1358);
#1192=AXIS2_PLACEMENT_3D('',#1682,#1359,#1360);
#1193=AXIS2_PLACEMENT_3D('',#1684,#1362,#1363);
#1194=AXIS2_PLACEMENT_3D('',#1687,#1365,#1366);
#1195=AXIS2_PLACEMENT_3D('',#1688,#1367,#1368);
#1196=AXIS2_PLACEMENT_3D('',#1690,#1369,#1370);
#1197=AXIS2_PLACEMENT_3D('',#1691,#1371,#1372);
#1198=AXIS2_PLACEMENT_3D('',#1695,#1374,#1375);
#1199=AXIS2_PLACEMENT_3D('',#1699,#1377,#1378);
#1200=AXIS2_PLACEMENT_3D('',#1702,#1380,#1381);
#1201=AXIS2_PLACEMENT_3D('',#1703,#1382,#1383);
#1202=AXIS2_PLACEMENT_3D('',#1705,#1385,#1386);
#1203=AXIS2_PLACEMENT_3D('',#1707,#1388,#1389);
#1204=AXIS2_PLACEMENT_3D('',#1708,#1390,#1391);
#1205=AXIS2_PLACEMENT_3D('',#1710,#1393,#1394);
#1206=AXIS2_PLACEMENT_3D('',#1712,#1395,#1396);
#1207=AXIS2_PLACEMENT_3D('',#1714,#1398,#1399);
#1208=AXIS2_PLACEMENT_3D('',#1716,#1400,#1401);
#1209=AXIS2_PLACEMENT_3D('',#1717,#1402,#1403);
#1210=AXIS2_PLACEMENT_3D('',#1719,#1404,#1405);
#1211=AXIS2_PLACEMENT_3D('',#1721,#1407,#1408);
#1212=AXIS2_PLACEMENT_3D('',#1723,#1409,#1410);
#1213=AXIS2_PLACEMENT_3D('',#1724,#1411,#1412);
#1214=AXIS2_PLACEMENT_3D('',#1727,#1414,#1415);
#1215=AXIS2_PLACEMENT_3D('',#1728,#1416,#1417);
#1216=AXIS2_PLACEMENT_3D('',#1753,#1430,#1431);
#1217=AXIS2_PLACEMENT_3D('',#1756,#1433,#1434);
#1218=AXIS2_PLACEMENT_3D('',#1757,#1435,#1436);
#1219=AXIS2_PLACEMENT_3D('',#1782,#1449,#1450);
#1220=AXIS2_PLACEMENT_3D('',#1788,#1454,#1455);
#1221=AXIS2_PLACEMENT_3D('',#1792,#1458,#1459);
#1222=AXIS2_PLACEMENT_3D('',#1796,#1462,#1463);
#1223=AXIS2_PLACEMENT_3D('',#1800,#1466,#1467);
#1224=AXIS2_PLACEMENT_3D('',#1804,#1470,#1471);
#1225=AXIS2_PLACEMENT_3D('',#1808,#1474,#1475);
#1226=AXIS2_PLACEMENT_3D('',#1812,#1478,#1479);
#1227=AXIS2_PLACEMENT_3D('',#1816,#1482,#1483);
#1228=AXIS2_PLACEMENT_3D('',#1820,#1486,#1487);
#1229=AXIS2_PLACEMENT_3D('',#1824,#1490,#1491);
#1230=AXIS2_PLACEMENT_3D('',#1828,#1494,#1495);
#1231=AXIS2_PLACEMENT_3D('',#1830,#1497,#1498);
#1232=AXIS2_PLACEMENT_3D('',#1831,#1499,#1500);
#1233=AXIS2_PLACEMENT_3D('',#1837,#1504,#1505);
#1234=AXIS2_PLACEMENT_3D('',#1841,#1508,#1509);
#1235=AXIS2_PLACEMENT_3D('',#1845,#1512,#1513);
#1236=AXIS2_PLACEMENT_3D('',#1849,#1516,#1517);
#1237=AXIS2_PLACEMENT_3D('',#1853,#1520,#1521);
#1238=AXIS2_PLACEMENT_3D('',#1857,#1524,#1525);
#1239=AXIS2_PLACEMENT_3D('',#1861,#1528,#1529);
#1240=AXIS2_PLACEMENT_3D('',#1865,#1532,#1533);
#1241=AXIS2_PLACEMENT_3D('',#1869,#1536,#1537);
#1242=AXIS2_PLACEMENT_3D('',#1873,#1540,#1541);
#1243=AXIS2_PLACEMENT_3D('',#1877,#1544,#1545);
#1244=AXIS2_PLACEMENT_3D('',#1879,#1547,#1548);
#1245=AXIS2_PLACEMENT_3D('',#1880,#1549,#1550);
#1246=AXIS2_PLACEMENT_3D('',#1882,#1551,#1552);
#1247=AXIS2_PLACEMENT_3D('',#1884,#1554,#1555);
#1248=AXIS2_PLACEMENT_3D('',#1885,#1556,#1557);
#1249=AXIS2_PLACEMENT_3D('',#1887,#1558,#1559);
#1250=AXIS2_PLACEMENT_3D('',#1889,#1561,#1562);
#1251=AXIS2_PLACEMENT_3D('',#1890,#1563,#1564);
#1252=AXIS2_PLACEMENT_3D('',#1892,#1566,#1567);
#1253=AXIS2_PLACEMENT_3D('',#1894,#1569,#1570);
#1254=AXIS2_PLACEMENT_3D('',#1896,#1572,#1573);
#1255=AXIS2_PLACEMENT_3D('',#1898,#1575,#1576);
#1256=AXIS2_PLACEMENT_3D('',#1899,#1577,#1578);
#1257=AXIS2_PLACEMENT_3D('',#1900,#1579,#1580);
#1258=AXIS2_PLACEMENT_3D('',#1902,#1582,#1583);
#1259=DIRECTION('axis',(0.,0.,1.));
#1260=DIRECTION('refdir',(1.,0.,0.));
#1261=DIRECTION('center_axis',(0.,8.67361737988404E-16,-1.));
#1262=DIRECTION('ref_axis',(-1.,0.,0.));
#1263=DIRECTION('',(1.,0.,0.));
#1264=DIRECTION('center_axis',(0.,8.67361737988404E-16,-1.));
#1265=DIRECTION('ref_axis',(0.,1.,8.67361737988404E-16));
#1266=DIRECTION('',(1.,0.,0.));
#1267=DIRECTION('',(0.,1.,1.11022302462516E-15));
#1268=DIRECTION('center_axis',(0.,8.67361737988404E-16,-1.));
#1269=DIRECTION('ref_axis',(0.,1.,8.67361737988404E-16));
#1270=DIRECTION('center_axis',(0.,0.,1.));
#1271=DIRECTION('ref_axis',(1.,0.,0.));
#1272=DIRECTION('',(1.,0.,0.));
#1273=DIRECTION('center_axis',(0.,0.,1.));
#1274=DIRECTION('ref_axis',(1.,0.,0.));
#1275=DIRECTION('',(1.,0.,0.));
#1276=DIRECTION('',(0.,-1.,0.));
#1277=DIRECTION('center_axis',(0.,0.,1.));
#1278=DIRECTION('ref_axis',(1.,0.,0.));
#1279=DIRECTION('center_axis',(0.,0.,-1.));
#1280=DIRECTION('ref_axis',(-1.,0.,0.));
#1281=DIRECTION('',(1.,0.,0.));
#1282=DIRECTION('center_axis',(0.,0.,-1.));
#1283=DIRECTION('ref_axis',(-1.,0.,0.));
#1284=DIRECTION('',(1.,0.,0.));
#1285=DIRECTION('',(0.,1.,0.));
#1286=DIRECTION('center_axis',(0.,0.,-1.));
#1287=DIRECTION('ref_axis',(-1.,0.,0.));
#1288=DIRECTION('center_axis',(0.,8.67361737988404E-16,1.));
#1289=DIRECTION('ref_axis',(1.,0.,0.));
#1290=DIRECTION('',(1.,0.,0.));
#1291=DIRECTION('center_axis',(0.,8.67361737988404E-16,1.));
#1292=DIRECTION('ref_axis',(0.,-1.,8.67361737988404E-16));
#1293=DIRECTION('',(1.,0.,0.));
#1294=DIRECTION('',(0.,-1.,1.11022302462516E-15));
#1295=DIRECTION('center_axis',(0.,8.67361737988404E-16,1.));
#1296=DIRECTION('ref_axis',(0.,-1.,8.67361737988404E-16));
#1297=DIRECTION('center_axis',(1.,0.,0.));
#1298=DIRECTION('ref_axis',(0.,0.,-1.));
#1299=DIRECTION('center_axis',(-1.,0.,0.));
#1300=DIRECTION('ref_axis',(0.,0.,1.));
#1301=DIRECTION('',(0.,0.,1.));
#1302=DIRECTION('',(0.,0.,-1.));
#1303=DIRECTION('',(0.,0.,1.));
#1304=DIRECTION('',(0.,0.,-1.));
#1305=DIRECTION('center_axis',(-1.,0.,0.));
#1306=DIRECTION('ref_axis',(0.,0.,1.));
#1307=DIRECTION('',(1.,0.,0.));
#1308=DIRECTION('center_axis',(-1.,0.,0.));
#1309=DIRECTION('ref_axis',(0.,0.,1.));
#1310=DIRECTION('center_axis',(1.,0.,0.));
#1311=DIRECTION('ref_axis',(0.,0.,-1.));
#1312=DIRECTION('center_axis',(1.,0.,0.));
#1313=DIRECTION('ref_axis',(0.,0.,-1.));
#1314=DIRECTION('center_axis',(-1.,0.,0.));
#1315=DIRECTION('ref_axis',(0.,0.,1.));
#1316=DIRECTION('center_axis',(1.,0.,0.));
#1317=DIRECTION('ref_axis',(0.,0.,-1.));
#1318=DIRECTION('center_axis',(1.,0.,0.));
#1319=DIRECTION('ref_axis',(0.,0.,-1.));
#1320=DIRECTION('',(1.,0.,0.));
#1321=DIRECTION('center_axis',(-1.,0.,0.));
#1322=DIRECTION('ref_axis',(0.,0.,1.));
#1323=DIRECTION('center_axis',(1.,0.,0.));
#1324=DIRECTION('ref_axis',(0.,0.,-1.));
#1325=DIRECTION('center_axis',(-1.,0.,0.));
#1326=DIRECTION('ref_axis',(0.,0.,1.));
#1327=DIRECTION('center_axis',(-1.,0.,0.));
#1328=DIRECTION('ref_axis',(0.,0.,1.));
#1329=DIRECTION('',(1.,0.,0.));
#1330=DIRECTION('center_axis',(-1.,0.,0.));
#1331=DIRECTION('ref_axis',(0.,0.,1.));
#1332=DIRECTION('center_axis',(-1.,0.,0.));
#1333=DIRECTION('ref_axis',(0.,0.,1.));
#1334=DIRECTION('center_axis',(-1.,0.,0.));
#1335=DIRECTION('ref_axis',(0.,0.,1.));
#1336=DIRECTION('center_axis',(-1.,0.,0.));
#1337=DIRECTION('ref_axis',(0.,0.,1.));
#1338=DIRECTION('',(1.,0.,0.));
#1339=DIRECTION('center_axis',(-1.,0.,0.));
#1340=DIRECTION('ref_axis',(0.,0.,1.));
#1341=DIRECTION('center_axis',(-1.,0.,0.));
#1342=DIRECTION('ref_axis',(0.,0.,1.));
#1343=DIRECTION('center_axis',(1.,0.,0.));
#1344=DIRECTION('ref_axis',(0.,0.,-1.));
#1345=DIRECTION('center_axis',(1.,0.,0.));
#1346=DIRECTION('ref_axis',(0.,0.,1.));
#1347=DIRECTION('center_axis',(1.,0.,0.));
#1348=DIRECTION('ref_axis',(0.,0.,-1.));
#1349=DIRECTION('center_axis',(1.,0.,0.));
#1350=DIRECTION('ref_axis',(0.,0.,1.));
#1351=DIRECTION('center_axis',(-1.,0.,0.));
#1352=DIRECTION('ref_axis',(0.,0.,1.));
#1353=DIRECTION('center_axis',(1.,0.,0.));
#1354=DIRECTION('ref_axis',(0.,0.,-1.));
#1355=DIRECTION('center_axis',(1.,0.,0.));
#1356=DIRECTION('ref_axis',(0.,0.,-1.));
#1357=DIRECTION('center_axis',(1.,0.,0.));
#1358=DIRECTION('ref_axis',(0.,0.,-1.));
#1359=DIRECTION('center_axis',(-1.,0.,0.));
#1360=DIRECTION('ref_axis',(0.,0.,1.));
#1361=DIRECTION('',(1.,0.,0.));
#1362=DIRECTION('center_axis',(-1.,0.,0.));
#1363=DIRECTION('ref_axis',(0.,0.,1.));
#1364=DIRECTION('',(-1.,0.,0.));
#1365=DIRECTION('center_axis',(1.,0.,0.));
#1366=DIRECTION('ref_axis',(0.,0.,-1.));
#1367=DIRECTION('center_axis',(-1.,0.,0.));
#1368=DIRECTION('ref_axis',(0.,0.,1.));
#1369=DIRECTION('center_axis',(-1.,0.,0.));
#1370=DIRECTION('ref_axis',(0.,0.,1.));
#1371=DIRECTION('center_axis',(-1.,0.,0.));
#1372=DIRECTION('ref_axis',(0.,0.,1.));
#1373=DIRECTION('',(1.,0.,0.));
#1374=DIRECTION('center_axis',(1.,0.,0.));
#1375=DIRECTION('ref_axis',(0.,0.,-1.));
#1376=DIRECTION('',(-1.,0.,0.));
#1377=DIRECTION('center_axis',(-1.,0.,0.));
#1378=DIRECTION('ref_axis',(0.,0.,1.));
#1379=DIRECTION('',(-1.,0.,0.));
#1380=DIRECTION('center_axis',(1.,0.,0.));
#1381=DIRECTION('ref_axis',(0.,0.,-1.));
#1382=DIRECTION('center_axis',(1.,0.,0.));
#1383=DIRECTION('ref_axis',(0.,0.,-1.));
#1384=DIRECTION('',(0.,0.,-1.));
#1385=DIRECTION('center_axis',(-1.,0.,0.));
#1386=DIRECTION('ref_axis',(0.,0.,1.));
#1387=DIRECTION('',(0.,0.,-1.));
#1388=DIRECTION('center_axis',(0.,-1.,0.));
#1389=DIRECTION('ref_axis',(0.,0.,-1.));
#1390=DIRECTION('center_axis',(1.,0.,0.));
#1391=DIRECTION('ref_axis',(0.,0.,-1.));
#1392=DIRECTION('',(-0.707106781186545,8.65956056235496E-17,-0.70710678118655));
#1393=DIRECTION('center_axis',(1.,0.,0.));
#1394=DIRECTION('ref_axis',(0.,0.,-1.));
#1395=DIRECTION('center_axis',(1.,0.,0.));
#1396=DIRECTION('ref_axis',(0.,0.,1.));
#1397=DIRECTION('',(1.,0.,0.));
#1398=DIRECTION('center_axis',(-1.,0.,0.));
#1399=DIRECTION('ref_axis',(0.,0.,1.));
#1400=DIRECTION('center_axis',(-1.,0.,0.));
#1401=DIRECTION('ref_axis',(0.,0.,1.));
#1402=DIRECTION('center_axis',(1.,0.,0.));
#1403=DIRECTION('ref_axis',(0.,0.,-1.));
#1404=DIRECTION('center_axis',(1.,0.,0.));
#1405=DIRECTION('ref_axis',(0.,0.,-1.));
#1406=DIRECTION('',(1.,0.,0.));
#1407=DIRECTION('center_axis',(1.,0.,0.));
#1408=DIRECTION('ref_axis',(0.,0.,-1.));
#1409=DIRECTION('center_axis',(1.,0.,0.));
#1410=DIRECTION('ref_axis',(0.,0.,-1.));
#1411=DIRECTION('center_axis',(-1.,0.,0.));
#1412=DIRECTION('ref_axis',(0.,0.,1.));
#1413=DIRECTION('',(1.,0.,0.));
#1414=DIRECTION('center_axis',(1.,0.,0.));
#1415=DIRECTION('ref_axis',(0.,0.,-1.));
#1416=DIRECTION('center_axis',(1.,0.,0.));
#1417=DIRECTION('ref_axis',(0.,0.,-1.));
#1418=DIRECTION('',(0.,0.,-1.));
#1419=DIRECTION('',(0.,-1.,0.));
#1420=DIRECTION('',(0.,0.,1.));
#1421=DIRECTION('',(0.,-1.,0.));
#1422=DIRECTION('',(0.,0.,1.));
#1423=DIRECTION('',(0.,1.,0.));
#1424=DIRECTION('',(0.,0.,1.));
#1425=DIRECTION('',(0.,1.,0.));
#1426=DIRECTION('',(0.,0.,-1.));
#1427=DIRECTION('',(0.,1.,0.));
#1428=DIRECTION('',(0.,0.,-1.));
#1429=DIRECTION('',(0.,-1.,0.));
#1430=DIRECTION('center_axis',(-1.,0.,0.));
#1431=DIRECTION('ref_axis',(0.,0.,1.));
#1432=DIRECTION('',(1.,0.,0.));
#1433=DIRECTION('center_axis',(1.,0.,0.));
#1434=DIRECTION('ref_axis',(0.,0.,1.));
#1435=DIRECTION('center_axis',(-1.,0.,0.));
#1436=DIRECTION('ref_axis',(0.,0.,1.));
#1437=DIRECTION('',(0.,0.,-1.));
#1438=DIRECTION('',(0.,-1.,0.));
#1439=DIRECTION('',(0.,0.,-1.));
#1440=DIRECTION('',(0.,-1.,0.));
#1441=DIRECTION('',(0.,0.,1.));
#1442=DIRECTION('',(0.,-1.,0.));
#1443=DIRECTION('',(0.,0.,1.));
#1444=DIRECTION('',(0.,1.,0.));
#1445=DIRECTION('',(0.,0.,1.));
#1446=DIRECTION('',(0.,1.,0.));
#1447=DIRECTION('',(0.,0.,-1.));
#1448=DIRECTION('',(0.,1.,0.));
#1449=DIRECTION('center_axis',(0.,0.,1.));
#1450=DIRECTION('ref_axis',(1.,0.,0.));
#1451=DIRECTION('',(1.,0.,0.));
#1452=DIRECTION('',(0.,-1.,0.));
#1453=DIRECTION('',(1.,0.,0.));
#1454=DIRECTION('center_axis',(0.,-1.,0.));
#1455=DIRECTION('ref_axis',(0.,0.,-1.));
#1456=DIRECTION('',(0.,0.,-1.));
#1457=DIRECTION('',(1.,0.,0.));
#1458=DIRECTION('center_axis',(0.,0.,1.));
#1459=DIRECTION('ref_axis',(1.,0.,0.));
#1460=DIRECTION('',(0.,-1.,0.));
#1461=DIRECTION('',(1.,0.,0.));
#1462=DIRECTION('center_axis',(0.,1.,0.));
#1463=DIRECTION('ref_axis',(0.,0.,1.));
#1464=DIRECTION('',(0.,0.,1.));
#1465=DIRECTION('',(1.,0.,0.));
#1466=DIRECTION('center_axis',(0.,0.,1.));
#1467=DIRECTION('ref_axis',(1.,0.,0.));
#1468=DIRECTION('',(0.,-1.,0.));
#1469=DIRECTION('',(1.,0.,0.));
#1470=DIRECTION('center_axis',(0.,1.,0.));
#1471=DIRECTION('ref_axis',(0.,0.,1.));
#1472=DIRECTION('',(0.,0.,1.));
#1473=DIRECTION('',(1.,0.,0.));
#1474=DIRECTION('center_axis',(0.,0.,-1.));
#1475=DIRECTION('ref_axis',(-1.,0.,0.));
#1476=DIRECTION('',(0.,1.,0.));
#1477=DIRECTION('',(1.,0.,0.));
#1478=DIRECTION('center_axis',(0.,1.,0.));
#1479=DIRECTION('ref_axis',(0.,0.,1.));
#1480=DIRECTION('',(0.,0.,1.));
#1481=DIRECTION('',(1.,0.,0.));
#1482=DIRECTION('center_axis',(0.,0.,-1.));
#1483=DIRECTION('ref_axis',(-1.,0.,0.));
#1484=DIRECTION('',(0.,1.,0.));
#1485=DIRECTION('',(1.,0.,0.));
#1486=DIRECTION('center_axis',(0.,-1.,0.));
#1487=DIRECTION('ref_axis',(0.,0.,-1.));
#1488=DIRECTION('',(0.,0.,-1.));
#1489=DIRECTION('',(1.,0.,0.));
#1490=DIRECTION('center_axis',(0.,0.,-1.));
#1491=DIRECTION('ref_axis',(-1.,0.,0.));
#1492=DIRECTION('',(0.,1.,0.));
#1493=DIRECTION('',(1.,0.,0.));
#1494=DIRECTION('center_axis',(0.,-1.,0.));
#1495=DIRECTION('ref_axis',(0.,0.,-1.));
#1496=DIRECTION('',(0.,0.,-1.));
#1497=DIRECTION('center_axis',(1.,0.,0.));
#1498=DIRECTION('ref_axis',(0.,0.,-1.));
#1499=DIRECTION('center_axis',(0.,-1.,0.));
#1500=DIRECTION('ref_axis',(0.,0.,-1.));
#1501=DIRECTION('',(1.,0.,0.));
#1502=DIRECTION('',(0.,0.,-1.));
#1503=DIRECTION('',(1.,0.,0.));
#1504=DIRECTION('center_axis',(0.,0.,1.));
#1505=DIRECTION('ref_axis',(1.,0.,0.));
#1506=DIRECTION('',(0.,-1.,0.));
#1507=DIRECTION('',(1.,0.,0.));
#1508=DIRECTION('center_axis',(0.,1.,0.));
#1509=DIRECTION('ref_axis',(0.,0.,1.));
#1510=DIRECTION('',(0.,0.,1.));
#1511=DIRECTION('',(1.,0.,0.));
#1512=DIRECTION('center_axis',(0.,0.,1.));
#1513=DIRECTION('ref_axis',(1.,0.,0.));
#1514=DIRECTION('',(0.,-1.,0.));
#1515=DIRECTION('',(1.,0.,0.));
#1516=DIRECTION('center_axis',(0.,1.,0.));
#1517=DIRECTION('ref_axis',(0.,0.,1.));
#1518=DIRECTION('',(0.,0.,1.));
#1519=DIRECTION('',(1.,0.,0.));
#1520=DIRECTION('center_axis',(0.,0.,-1.));
#1521=DIRECTION('ref_axis',(-1.,0.,0.));
#1522=DIRECTION('',(0.,1.,0.));
#1523=DIRECTION('',(1.,0.,0.));
#1524=DIRECTION('center_axis',(0.,1.,0.));
#1525=DIRECTION('ref_axis',(0.,0.,1.));
#1526=DIRECTION('',(0.,0.,1.));
#1527=DIRECTION('',(1.,0.,0.));
#1528=DIRECTION('center_axis',(0.,0.,-1.));
#1529=DIRECTION('ref_axis',(-1.,0.,0.));
#1530=DIRECTION('',(0.,1.,0.));
#1531=DIRECTION('',(1.,0.,0.));
#1532=DIRECTION('center_axis',(0.,-1.,0.));
#1533=DIRECTION('ref_axis',(0.,0.,-1.));
#1534=DIRECTION('',(0.,0.,-1.));
#1535=DIRECTION('',(1.,0.,0.));
#1536=DIRECTION('center_axis',(0.,0.,-1.));
#1537=DIRECTION('ref_axis',(-1.,0.,0.));
#1538=DIRECTION('',(0.,1.,0.));
#1539=DIRECTION('',(1.,0.,0.));
#1540=DIRECTION('center_axis',(0.,-1.,0.));
#1541=DIRECTION('ref_axis',(0.,0.,-1.));
#1542=DIRECTION('',(0.,0.,-1.));
#1543=DIRECTION('',(1.,0.,0.));
#1544=DIRECTION('center_axis',(0.,0.,1.));
#1545=DIRECTION('ref_axis',(1.,0.,0.));
#1546=DIRECTION('',(0.,-1.,0.));
#1547=DIRECTION('center_axis',(1.,0.,0.));
#1548=DIRECTION('ref_axis',(0.,0.,-1.));
#1549=DIRECTION('center_axis',(1.,0.,0.));
#1550=DIRECTION('ref_axis',(0.,0.,-1.));
#1551=DIRECTION('center_axis',(1.,0.,0.));
#1552=DIRECTION('ref_axis',(0.,0.,1.));
#1553=DIRECTION('',(1.,0.,0.));
#1554=DIRECTION('center_axis',(-1.,0.,0.));
#1555=DIRECTION('ref_axis',(0.,0.,1.));
#1556=DIRECTION('center_axis',(1.,0.,0.));
#1557=DIRECTION('ref_axis',(0.,0.,-1.));
#1558=DIRECTION('center_axis',(1.,0.,0.));
#1559=DIRECTION('ref_axis',(0.,0.,-1.));
#1560=DIRECTION('',(1.,0.,0.));
#1561=DIRECTION('center_axis',(1.,0.,0.));
#1562=DIRECTION('ref_axis',(0.,0.,-1.));
#1563=DIRECTION('center_axis',(0.,-1.,0.));
#1564=DIRECTION('ref_axis',(0.,0.,-1.));
#1565=DIRECTION('',(0.,-1.38777878078144E-15,-1.));
#1566=DIRECTION('center_axis',(0.,1.,0.));
#1567=DIRECTION('ref_axis',(0.,0.,1.));
#1568=DIRECTION('',(0.,-6.93889390390726E-16,-1.));
#1569=DIRECTION('center_axis',(0.,-1.,0.));
#1570=DIRECTION('ref_axis',(0.,0.,-1.));
#1571=DIRECTION('',(0.,-1.38777878078146E-15,-1.));
#1572=DIRECTION('center_axis',(0.,1.,0.));
#1573=DIRECTION('ref_axis',(0.,0.,1.));
#1574=DIRECTION('',(0.,-1.38777878078148E-15,-1.));
#1575=DIRECTION('center_axis',(0.,-8.67361737988404E-16,-1.));
#1576=DIRECTION('ref_axis',(0.,1.,-8.67361737988404E-16));
#1577=DIRECTION('center_axis',(0.,-8.67361737988404E-16,-1.));
#1578=DIRECTION('ref_axis',(0.,1.,-8.67361737988404E-16));
#1579=DIRECTION('center_axis',(0.,-8.67361737988404E-16,-1.));
#1580=DIRECTION('ref_axis',(0.,1.,-8.67361737988404E-16));
#1581=DIRECTION('',(0.,-8.67361737988404E-16,-1.));
#1582=DIRECTION('center_axis',(0.,-8.67361737988404E-16,-1.));
#1583=DIRECTION('ref_axis',(0.,1.,-8.67361737988404E-16));
#1584=DIRECTION('',(0.,-8.67361737988404E-16,-1.));
#1585=CARTESIAN_POINT('',(0.,0.,0.));
#1586=CARTESIAN_POINT('Origin',(-14.7257974356287,1.,10.1));
#1587=CARTESIAN_POINT('',(-13.7650461850474,1.00000000000002,10.1));
#1588=CARTESIAN_POINT('',(-11.7257974356287,1.,10.1));
#1589=CARTESIAN_POINT('',(-13.7650461850474,1.,10.1));
#1590=CARTESIAN_POINT('',(-13.7650461850474,-0.999999999999978,10.1));
#1591=CARTESIAN_POINT('Origin',(-13.7249957378271,2.15539391890118E-14,
10.1));
#1592=CARTESIAN_POINT('',(-11.7257974356287,-0.999999999999996,10.1));
#1593=CARTESIAN_POINT('',(-13.7650461850474,-0.999999999999996,10.1));
#1594=CARTESIAN_POINT('',(-11.7257974356287,-0.999999999999996,10.1));
#1595=CARTESIAN_POINT('',(-13.7249957378271,-0.499999999999979,10.1));
#1596=CARTESIAN_POINT('Origin',(-13.7249957378271,2.15539391890118E-14,
10.1));
#1597=CARTESIAN_POINT('Origin',(-14.7257974356287,1.,9.9));
#1598=CARTESIAN_POINT('',(-13.7650461850469,-0.999999999999996,9.9));
#1599=CARTESIAN_POINT('',(-11.7257974356287,-0.999999999999996,9.9));
#1600=CARTESIAN_POINT('',(-13.7650461850469,-0.999999999999996,9.9));
#1601=CARTESIAN_POINT('',(-13.7650461850474,1.00000000000002,9.9));
#1602=CARTESIAN_POINT('Origin',(-13.7249957378271,2.13804668414141E-14,
9.9));
#1603=CARTESIAN_POINT('',(-11.7257974356287,1.,9.9));
#1604=CARTESIAN_POINT('',(-13.7650461850474,1.,9.9));
#1605=CARTESIAN_POINT('',(-11.7257974356287,1.,9.9));
#1606=CARTESIAN_POINT('',(-13.7249957378271,-0.499999999999979,9.9));
#1607=CARTESIAN_POINT('Origin',(-13.7249957378271,2.13804668414141E-14,
9.9));
#1608=CARTESIAN_POINT('Origin',(-14.7257974356287,1.,-9.9));
#1609=CARTESIAN_POINT('',(-13.7650461850474,1.,-9.9));
#1610=CARTESIAN_POINT('',(-11.7257974356287,1.,-9.9));
#1611=CARTESIAN_POINT('',(-13.7650461850474,1.,-9.9));
#1612=CARTESIAN_POINT('',(-13.7650461850474,-0.999999999999996,-9.9));
#1613=CARTESIAN_POINT('Origin',(-13.7249957378271,4.20670442924376E-15,
-9.9));
#1614=CARTESIAN_POINT('',(-11.7257974356287,-0.999999999999996,-9.9));
#1615=CARTESIAN_POINT('',(-13.7650461850474,-0.999999999999996,-9.9));
#1616=CARTESIAN_POINT('',(-11.7257974356287,-0.999999999999996,-9.9));
#1617=CARTESIAN_POINT('',(-13.7249957378271,-0.499999999999997,-9.9));
#1618=CARTESIAN_POINT('Origin',(-13.7249957378271,4.20670442924376E-15,
-9.9));
#1619=CARTESIAN_POINT('Origin',(-14.7257974356287,1.,-10.1));
#1620=CARTESIAN_POINT('',(-13.7650461850469,-0.999999999999996,-10.1));
#1621=CARTESIAN_POINT('',(-11.7257974356287,-0.999999999999996,-10.1));
#1622=CARTESIAN_POINT('',(-13.7650461850469,-0.999999999999996,-10.1));
#1623=CARTESIAN_POINT('',(-13.7650461850474,1.,-10.1));
#1624=CARTESIAN_POINT('Origin',(-13.7249957378271,4.03323208164607E-15,
-10.1));
#1625=CARTESIAN_POINT('',(-11.7257974356287,1.,-10.1));
#1626=CARTESIAN_POINT('',(-13.7650461850474,1.,-10.1));
#1627=CARTESIAN_POINT('',(-11.7257974356287,1.,-10.1));
#1628=CARTESIAN_POINT('',(-13.7249957378271,-0.499999999999997,-10.1));
#1629=CARTESIAN_POINT('Origin',(-13.7249957378271,4.03323208164607E-15,
-10.1));
#1630=CARTESIAN_POINT('Origin',(-11.7257974356287,0.,0.));
#1631=CARTESIAN_POINT('',(-11.7257974356287,-1.46957615897682E-15,-12.));
#1632=CARTESIAN_POINT('Origin',(-11.7257974356287,0.,0.));
#1633=CARTESIAN_POINT('',(-11.7257974356287,-0.999999999999996,-10.1));
#1634=CARTESIAN_POINT('',(-11.7257974356287,1.,-9.9));
#1635=CARTESIAN_POINT('',(-11.7257974356287,-0.999999999999996,9.9));
#1636=CARTESIAN_POINT('',(-11.7257974356287,1.,10.1));
#1637=CARTESIAN_POINT('Origin',(-11.7257974356287,0.,0.));
#1638=CARTESIAN_POINT('',(19.2742025643713,-1.46957615897682E-15,-12.));
#1639=CARTESIAN_POINT('',(-11.7257974356287,-1.46957615897682E-15,-12.));
#1640=CARTESIAN_POINT('Origin',(19.2742025643713,0.,0.));
#1641=CARTESIAN_POINT('Origin',(19.2742025643713,12.,0.));
#1642=CARTESIAN_POINT('',(19.2742025643713,-1.50019232895551E-15,12.25));
#1643=CARTESIAN_POINT('Origin',(19.2742025643713,0.,0.));
#1644=CARTESIAN_POINT('Origin',(-11.7257974356287,0.,0.));
#1645=CARTESIAN_POINT('',(19.5242025643713,0.,-12.5));
#1646=CARTESIAN_POINT('',(19.5242025643713,-1.53080849893419E-15,12.5));
#1647=CARTESIAN_POINT('Origin',(19.5242025643713,0.,0.));
#1648=CARTESIAN_POINT('Origin',(19.5242025643713,0.,0.));
#1649=CARTESIAN_POINT('',(24.2742025643713,-1.53080849893419E-15,-12.5));
#1650=CARTESIAN_POINT('',(-11.7257974356287,-1.53080849893419E-15,-12.5));
#1651=CARTESIAN_POINT('Origin',(24.2742025643713,0.,0.));
#1652=CARTESIAN_POINT('Origin',(24.2742025643713,12.5,0.));
#1653=CARTESIAN_POINT('',(24.2742025643713,-1.54305496692567E-15,-12.6));
#1654=CARTESIAN_POINT('Origin',(24.2742025643713,0.,0.));
#1655=CARTESIAN_POINT('Origin',(-11.7257974356287,0.,0.));
#1656=CARTESIAN_POINT('',(38.2742025643713,-1.54305496692567E-15,-12.6));
#1657=CARTESIAN_POINT('',(-11.7257974356287,-1.54305496692567E-15,-12.6));
#1658=CARTESIAN_POINT('Origin',(38.2742025643713,0.,0.));
#1659=CARTESIAN_POINT('Origin',(38.2742025643713,12.6,0.));
#1660=CARTESIAN_POINT('',(38.2742025643713,-1.53080849893419E-15,-12.5));
#1661=CARTESIAN_POINT('Origin',(38.2742025643713,0.,0.));
#1662=CARTESIAN_POINT('Origin',(-11.7257974356287,0.,0.));
#1663=CARTESIAN_POINT('',(43.2742025643713,-1.53080849893419E-15,-12.5));
#1664=CARTESIAN_POINT('',(-11.7257974356287,-1.53080849893419E-15,-12.5));
#1665=CARTESIAN_POINT('Origin',(43.2742025643713,0.,0.));
#1666=CARTESIAN_POINT('Origin',(43.2742025643713,12.5,0.));
#1667=CARTESIAN_POINT('',(43.2742025643713,8.5,1.25));
#1668=CARTESIAN_POINT('Origin',(43.2742025643713,8.5,0.));
#1669=CARTESIAN_POINT('',(43.2742025643713,-8.5,1.25));
#1670=CARTESIAN_POINT('Origin',(43.2742025643713,-8.5,-2.0818995585505E-15));
#1671=CARTESIAN_POINT('',(43.2742025643713,-2.44929359829471E-16,-8.));
#1672=CARTESIAN_POINT('Origin',(43.2742025643713,0.,-10.));
#1673=CARTESIAN_POINT('',(43.2742025643713,0.,12.));
#1674=CARTESIAN_POINT('Origin',(43.2742025643713,0.,10.));
#1675=CARTESIAN_POINT('',(43.2742025643713,-4.28626379701574E-16,-3.5));
#1676=CARTESIAN_POINT('Origin',(43.2742025643713,0.,0.));
#1677=CARTESIAN_POINT('Origin',(45.7742025643713,0.,0.));
#1678=CARTESIAN_POINT('',(45.7742025643713,0.,-3.5));
#1679=CARTESIAN_POINT('Origin',(45.7742025643713,0.,0.));
#1680=CARTESIAN_POINT('',(45.7742025643713,0.,-2.));
#1681=CARTESIAN_POINT('Origin',(45.7742025643713,0.,0.));
#1682=CARTESIAN_POINT('Origin',(45.7742025643713,0.,0.));
#1683=CARTESIAN_POINT('',(45.7742025643713,-4.28626379701574E-16,-3.5));
#1684=CARTESIAN_POINT('Origin',(45.7742025643713,0.,0.));
#1685=CARTESIAN_POINT('',(43.2742025643713,0.,-2.));
#1686=CARTESIAN_POINT('',(45.7742025643713,-2.44929359829471E-16,-2.));
#1687=CARTESIAN_POINT('Origin',(43.2742025643713,0.,0.));
#1688=CARTESIAN_POINT('Origin',(43.2742025643713,12.5,0.));
#1689=CARTESIAN_POINT('',(43.2742025643713,-2.38806125833734E-16,-1.95));
#1690=CARTESIAN_POINT('Origin',(43.2742025643713,0.,0.));
#1691=CARTESIAN_POINT('Origin',(55.7742025643713,0.,0.));
#1692=CARTESIAN_POINT('',(55.7742025643713,-2.38806125833734E-16,-1.95));
#1693=CARTESIAN_POINT('',(55.7742025643713,-2.38806125833734E-16,-1.95));
#1694=CARTESIAN_POINT('',(55.7742025643713,1.45,1.30384048104053));
#1695=CARTESIAN_POINT('Origin',(55.7742025643713,0.,0.));
#1696=CARTESIAN_POINT('',(45.7742025643713,1.45,1.30384048104053));
#1697=CARTESIAN_POINT('',(55.7742025643713,1.45,1.30384048104053));
#1698=CARTESIAN_POINT('',(45.7742025643713,1.45,-1.30384048104053));
#1699=CARTESIAN_POINT('Origin',(45.7742025643713,0.,0.));
#1700=CARTESIAN_POINT('',(55.7742025643713,1.45,-1.30384048104053));
#1701=CARTESIAN_POINT('',(55.7742025643713,1.45,-1.30384048104053));
#1702=CARTESIAN_POINT('Origin',(55.7742025643713,0.,0.));
#1703=CARTESIAN_POINT('Origin',(55.7742025643713,0.,0.));
#1704=CARTESIAN_POINT('',(55.7742025643713,1.45,1.30384048104053));
#1705=CARTESIAN_POINT('Origin',(45.7742025643713,0.473544346270038,-0.0205754846000856));
#1706=CARTESIAN_POINT('',(45.7742025643713,1.45,1.30384048104053));
#1707=CARTESIAN_POINT('Origin',(45.7742025643713,1.45,-6.12323399573677E-17));
#1708=CARTESIAN_POINT('Origin',(19.2742025643713,0.,0.));
#1709=CARTESIAN_POINT('',(19.2742025643713,-1.50019232895551E-15,12.25));
#1710=CARTESIAN_POINT('Origin',(38.2742025643713,0.,10.));
#1711=CARTESIAN_POINT('',(38.2742025643713,0.,12.));
#1712=CARTESIAN_POINT('Origin',(38.2742025643713,0.,10.));
#1713=CARTESIAN_POINT('',(38.2742025643713,-2.44929359829471E-16,12.));
#1714=CARTESIAN_POINT('Origin',(38.2742025643713,0.,10.));
#1715=CARTESIAN_POINT('',(38.2742025643713,-2.14313189850787E-16,8.25));
#1716=CARTESIAN_POINT('Origin',(38.2742025643713,0.,10.));
#1717=CARTESIAN_POINT('Origin',(38.2742025643713,0.,-10.));
#1718=CARTESIAN_POINT('',(38.2742025643713,-2.44929359829471E-16,-8.));
#1719=CARTESIAN_POINT('Origin',(38.2742025643713,0.,-10.));
#1720=CARTESIAN_POINT('',(38.2742025643713,-2.44929359829471E-16,-8.));
#1721=CARTESIAN_POINT('Origin',(38.2742025643713,0.,-10.));
#1722=CARTESIAN_POINT('',(38.2742025643713,0.,-11.75));
#1723=CARTESIAN_POINT('Origin',(38.2742025643713,0.,-10.));
#1724=CARTESIAN_POINT('Origin',(43.4742025643713,0.,-10.));
#1725=CARTESIAN_POINT('',(43.4742025643713,0.,-11.75));
#1726=CARTESIAN_POINT('',(43.4742025643713,-2.14313189850787E-16,-11.75));
#1727=CARTESIAN_POINT('Origin',(43.4742025643713,0.,-10.));
#1728=CARTESIAN_POINT('Origin',(43.4742025643713,0.,-10.));
#1729=CARTESIAN_POINT('',(43.4742025643713,-0.25,-8.59475412178272));
#1730=CARTESIAN_POINT('',(43.4742025643713,-0.25,-9.75));
#1731=CARTESIAN_POINT('',(43.4742025643713,-0.25,-8.59475412178272));
#1732=CARTESIAN_POINT('',(43.4742025643713,0.25,-8.59475412178272));
#1733=CARTESIAN_POINT('',(43.4742025643713,0.25,-8.59475412178272));
#1734=CARTESIAN_POINT('',(43.4742025643713,0.25,-9.75));
#1735=CARTESIAN_POINT('',(43.4742025643713,0.25,-9.75));
#1736=CARTESIAN_POINT('',(43.4742025643713,1.33828654819859,-9.75));
#1737=CARTESIAN_POINT('',(43.4742025643713,1.33828654819859,-9.75));
#1738=CARTESIAN_POINT('',(43.4742025643713,1.33828654819859,-10.25));
#1739=CARTESIAN_POINT('',(43.4742025643713,1.33828654819859,-10.25));
#1740=CARTESIAN_POINT('',(43.4742025643713,0.25,-10.25));
#1741=CARTESIAN_POINT('',(43.4742025643713,0.25,-10.25));
#1742=CARTESIAN_POINT('',(43.4742025643713,0.25,-11.4052458782173));
#1743=CARTESIAN_POINT('',(43.4742025643713,0.25,-11.4052458782173));
#1744=CARTESIAN_POINT('',(43.4742025643713,-0.25,-11.4052458782173));
#1745=CARTESIAN_POINT('',(43.4742025643713,-0.25,-11.4052458782173));
#1746=CARTESIAN_POINT('',(43.4742025643713,-0.25,-10.25));
#1747=CARTESIAN_POINT('',(43.4742025643713,-0.25,-10.25));
#1748=CARTESIAN_POINT('',(43.4742025643713,-1.33828654819859,-10.25));
#1749=CARTESIAN_POINT('',(43.4742025643713,-1.33828654819859,-10.25));
#1750=CARTESIAN_POINT('',(43.4742025643713,-1.33828654819859,-9.75));
#1751=CARTESIAN_POINT('',(43.4742025643713,-1.33828654819859,-9.75));
#1752=CARTESIAN_POINT('',(43.4742025643713,-0.25,-9.75));
#1753=CARTESIAN_POINT('Origin',(43.4742025643713,0.,10.));
#1754=CARTESIAN_POINT('',(43.4742025643713,-2.14313189850787E-16,8.25));
#1755=CARTESIAN_POINT('',(43.4742025643713,-2.14313189850787E-16,8.25));
#1756=CARTESIAN_POINT('Origin',(43.4742025643713,0.,10.));
#1757=CARTESIAN_POINT('Origin',(43.4742025643713,0.,10.));
#1758=CARTESIAN_POINT('',(43.4742025643713,-1.33828654819859,10.25));
#1759=CARTESIAN_POINT('',(43.4742025643713,-1.33828654819859,9.75));
#1760=CARTESIAN_POINT('',(43.4742025643713,-1.33828654819859,10.25));
#1761=CARTESIAN_POINT('',(43.4742025643713,-0.25,10.25));
#1762=CARTESIAN_POINT('',(43.4742025643713,-0.25,10.25));
#1763=CARTESIAN_POINT('',(43.4742025643713,-0.25,11.4052458782173));
#1764=CARTESIAN_POINT('',(43.4742025643713,-0.25,11.4052458782173));
#1765=CARTESIAN_POINT('',(43.4742025643713,0.25,11.4052458782173));
#1766=CARTESIAN_POINT('',(43.4742025643713,0.25,11.4052458782173));
#1767=CARTESIAN_POINT('',(43.4742025643713,0.25,10.25));
#1768=CARTESIAN_POINT('',(43.4742025643713,0.25,10.25));
#1769=CARTESIAN_POINT('',(43.4742025643713,1.33828654819859,10.25));
#1770=CARTESIAN_POINT('',(43.4742025643713,1.33828654819859,10.25));
#1771=CARTESIAN_POINT('',(43.4742025643713,1.33828654819859,9.75));
#1772=CARTESIAN_POINT('',(43.4742025643713,1.33828654819859,9.75));
#1773=CARTESIAN_POINT('',(43.4742025643713,0.25,9.75));
#1774=CARTESIAN_POINT('',(43.4742025643713,0.25,9.75));
#1775=CARTESIAN_POINT('',(43.4742025643713,0.25,8.59475412178272));
#1776=CARTESIAN_POINT('',(43.4742025643713,0.25,8.59475412178272));
#1777=CARTESIAN_POINT('',(43.4742025643713,-0.25,8.59475412178272));
#1778=CARTESIAN_POINT('',(43.4742025643713,-0.25,8.59475412178272));
#1779=CARTESIAN_POINT('',(43.4742025643713,-0.25,9.75));
#1780=CARTESIAN_POINT('',(43.4742025643713,-0.25,9.75));
#1781=CARTESIAN_POINT('',(43.4742025643713,-1.33828654819859,9.75));
#1782=CARTESIAN_POINT('Origin',(42.4742025643713,-1.33828654819859,10.25));
#1783=CARTESIAN_POINT('',(42.4742025643713,-1.33828654819859,10.25));
#1784=CARTESIAN_POINT('',(42.4742025643713,-1.33828654819859,10.25));
#1785=CARTESIAN_POINT('',(42.4742025643713,-0.25,10.25));
#1786=CARTESIAN_POINT('',(42.4742025643713,-0.25,10.25));
#1787=CARTESIAN_POINT('',(42.4742025643713,-0.25,10.25));
#1788=CARTESIAN_POINT('Origin',(42.4742025643713,-0.25,10.25));
#1789=CARTESIAN_POINT('',(42.4742025643713,-0.25,11.4052458782173));
#1790=CARTESIAN_POINT('',(42.4742025643713,-0.25,11.4052458782173));
#1791=CARTESIAN_POINT('',(42.4742025643713,-0.25,11.4052458782173));
#1792=CARTESIAN_POINT('Origin',(42.4742025643713,0.25,11.4052458782173));
#1793=CARTESIAN_POINT('',(42.4742025643713,0.25,11.4052458782173));
#1794=CARTESIAN_POINT('',(42.4742025643713,0.25,11.4052458782173));
#1795=CARTESIAN_POINT('',(42.4742025643713,0.25,11.4052458782173));
#1796=CARTESIAN_POINT('Origin',(42.4742025643713,0.25,10.25));
#1797=CARTESIAN_POINT('',(42.4742025643713,0.25,10.25));
#1798=CARTESIAN_POINT('',(42.4742025643713,0.25,10.25));
#1799=CARTESIAN_POINT('',(42.4742025643713,0.25,10.25));
#1800=CARTESIAN_POINT('Origin',(42.4742025643713,0.25,10.25));
#1801=CARTESIAN_POINT('',(42.4742025643713,1.33828654819859,10.25));
#1802=CARTESIAN_POINT('',(42.4742025643713,1.33828654819859,10.25));
#1803=CARTESIAN_POINT('',(42.4742025643713,1.33828654819859,10.25));
#1804=CARTESIAN_POINT('Origin',(42.4742025643713,1.33828654819859,9.75));
#1805=CARTESIAN_POINT('',(42.4742025643713,1.33828654819859,9.75));
#1806=CARTESIAN_POINT('',(42.4742025643713,1.33828654819859,9.75));
#1807=CARTESIAN_POINT('',(42.4742025643713,1.33828654819859,9.75));
#1808=CARTESIAN_POINT('Origin',(42.4742025643713,0.25,9.75));
#1809=CARTESIAN_POINT('',(42.4742025643713,0.25,9.75));
#1810=CARTESIAN_POINT('',(42.4742025643713,0.25,9.75));
#1811=CARTESIAN_POINT('',(42.4742025643713,0.25,9.75));
#1812=CARTESIAN_POINT('Origin',(42.4742025643713,0.25,8.59475412178272));
#1813=CARTESIAN_POINT('',(42.4742025643713,0.25,8.59475412178272));
#1814=CARTESIAN_POINT('',(42.4742025643713,0.25,8.59475412178272));
#1815=CARTESIAN_POINT('',(42.4742025643713,0.25,8.59475412178272));
#1816=CARTESIAN_POINT('Origin',(42.4742025643713,-0.25,8.59475412178272));
#1817=CARTESIAN_POINT('',(42.4742025643713,-0.25,8.59475412178272));
#1818=CARTESIAN_POINT('',(42.4742025643713,-0.25,8.59475412178272));
#1819=CARTESIAN_POINT('',(42.4742025643713,-0.25,8.59475412178272));
#1820=CARTESIAN_POINT('Origin',(42.4742025643713,-0.25,8.59475412178272));
#1821=CARTESIAN_POINT('',(42.4742025643713,-0.25,9.75));
#1822=CARTESIAN_POINT('',(42.4742025643713,-0.25,9.75));
#1823=CARTESIAN_POINT('',(42.4742025643713,-0.25,9.75));
#1824=CARTESIAN_POINT('Origin',(42.4742025643713,-1.33828654819859,9.75));
#1825=CARTESIAN_POINT('',(42.4742025643713,-1.33828654819859,9.75));
#1826=CARTESIAN_POINT('',(42.4742025643713,-1.33828654819859,9.75));
#1827=CARTESIAN_POINT('',(42.4742025643713,-1.33828654819859,9.75));
#1828=CARTESIAN_POINT('Origin',(42.4742025643713,-1.33828654819859,10.25));
#1829=CARTESIAN_POINT('',(42.4742025643713,-1.33828654819859,10.25));
#1830=CARTESIAN_POINT('Origin',(42.4742025643713,0.,0.));
#1831=CARTESIAN_POINT('Origin',(42.4742025643713,-0.25,-8.59475412178272));
#1832=CARTESIAN_POINT('',(42.4742025643713,-0.25,-9.75));
#1833=CARTESIAN_POINT('',(42.4742025643713,-0.25,-9.75));
#1834=CARTESIAN_POINT('',(42.4742025643713,-0.25,-8.59475412178272));
#1835=CARTESIAN_POINT('',(42.4742025643713,-0.25,-8.59475412178272));
#1836=CARTESIAN_POINT('',(42.4742025643713,-0.25,-8.59475412178272));
#1837=CARTESIAN_POINT('Origin',(42.4742025643713,-0.25,-8.59475412178272));
#1838=CARTESIAN_POINT('',(42.4742025643713,0.25,-8.59475412178272));
#1839=CARTESIAN_POINT('',(42.4742025643713,0.25,-8.59475412178272));
#1840=CARTESIAN_POINT('',(42.4742025643713,0.25,-8.59475412178272));
#1841=CARTESIAN_POINT('Origin',(42.4742025643713,0.25,-8.59475412178272));
#1842=CARTESIAN_POINT('',(42.4742025643713,0.25,-9.75));
#1843=CARTESIAN_POINT('',(42.4742025643713,0.25,-9.75));
#1844=CARTESIAN_POINT('',(42.4742025643713,0.25,-9.75));
#1845=CARTESIAN_POINT('Origin',(42.4742025643713,0.25,-9.75));
#1846=CARTESIAN_POINT('',(42.4742025643713,1.33828654819859,-9.75));
#1847=CARTESIAN_POINT('',(42.4742025643713,1.33828654819859,-9.75));
#1848=CARTESIAN_POINT('',(42.4742025643713,1.33828654819859,-9.75));
#1849=CARTESIAN_POINT('Origin',(42.4742025643713,1.33828654819859,-9.75));
#1850=CARTESIAN_POINT('',(42.4742025643713,1.33828654819859,-10.25));
#1851=CARTESIAN_POINT('',(42.4742025643713,1.33828654819859,-10.25));
#1852=CARTESIAN_POINT('',(42.4742025643713,1.33828654819859,-10.25));
#1853=CARTESIAN_POINT('Origin',(42.4742025643713,0.25,-10.25));
#1854=CARTESIAN_POINT('',(42.4742025643713,0.25,-10.25));
#1855=CARTESIAN_POINT('',(42.4742025643713,0.25,-10.25));
#1856=CARTESIAN_POINT('',(42.4742025643713,0.25,-10.25));
#1857=CARTESIAN_POINT('Origin',(42.4742025643713,0.25,-10.25));
#1858=CARTESIAN_POINT('',(42.4742025643713,0.25,-11.4052458782173));
#1859=CARTESIAN_POINT('',(42.4742025643713,0.25,-11.4052458782173));
#1860=CARTESIAN_POINT('',(42.4742025643713,0.25,-11.4052458782173));
#1861=CARTESIAN_POINT('Origin',(42.4742025643713,0.25,-11.4052458782173));
#1862=CARTESIAN_POINT('',(42.4742025643713,-0.25,-11.4052458782173));
#1863=CARTESIAN_POINT('',(42.4742025643713,-0.25,-11.4052458782173));
#1864=CARTESIAN_POINT('',(42.4742025643713,-0.25,-11.4052458782173));
#1865=CARTESIAN_POINT('Origin',(42.4742025643713,-0.25,-10.25));
#1866=CARTESIAN_POINT('',(42.4742025643713,-0.25,-10.25));
#1867=CARTESIAN_POINT('',(42.4742025643713,-0.25,-10.25));
#1868=CARTESIAN_POINT('',(42.4742025643713,-0.25,-10.25));
#1869=CARTESIAN_POINT('Origin',(42.4742025643713,-1.33828654819859,-10.25));
#1870=CARTESIAN_POINT('',(42.4742025643713,-1.33828654819859,-10.25));
#1871=CARTESIAN_POINT('',(42.4742025643713,-1.33828654819859,-10.25));
#1872=CARTESIAN_POINT('',(42.4742025643713,-1.33828654819859,-10.25));
#1873=CARTESIAN_POINT('Origin',(42.4742025643713,-1.33828654819859,-10.25));
#1874=CARTESIAN_POINT('',(42.4742025643713,-1.33828654819859,-9.75));
#1875=CARTESIAN_POINT('',(42.4742025643713,-1.33828654819859,-9.75));
#1876=CARTESIAN_POINT('',(42.4742025643713,-1.33828654819859,-9.75));
#1877=CARTESIAN_POINT('Origin',(42.4742025643713,-1.33828654819859,-9.75));
#1878=CARTESIAN_POINT('',(42.4742025643713,-0.25,-9.75));
#1879=CARTESIAN_POINT('Origin',(42.4742025643713,0.,0.));
#1880=CARTESIAN_POINT('Origin',(38.2742025643713,-8.5,-2.0818995585505E-15));
#1881=CARTESIAN_POINT('',(38.2742025643713,-8.5,1.25));
#1882=CARTESIAN_POINT('Origin',(38.2742025643713,-8.5,-2.0818995585505E-15));
#1883=CARTESIAN_POINT('',(38.2742025643713,-8.5,1.25));
#1884=CARTESIAN_POINT('Origin',(38.2742025643713,-8.5,-2.0818995585505E-15));
#1885=CARTESIAN_POINT('Origin',(38.2742025643713,8.5,0.));
#1886=CARTESIAN_POINT('',(38.2742025643713,8.5,1.25));
#1887=CARTESIAN_POINT('Origin',(38.2742025643713,8.5,0.));
#1888=CARTESIAN_POINT('',(38.2742025643713,8.5,1.25));
#1889=CARTESIAN_POINT('Origin',(38.2742025643713,8.5,0.));
#1890=CARTESIAN_POINT('Origin',(-14.7257974356287,1.,9.9));
#1891=CARTESIAN_POINT('',(-13.7650461850474,1.00000000000002,10.1));
#1892=CARTESIAN_POINT('Origin',(-14.7257974356287,-0.999999999999996,9.9));
#1893=CARTESIAN_POINT('',(-13.7650461850474,-0.999999999999978,10.1));
#1894=CARTESIAN_POINT('Origin',(-14.7257974356287,1.,-9.9));
#1895=CARTESIAN_POINT('',(-13.7650461850474,1.,-9.9));
#1896=CARTESIAN_POINT('Origin',(-14.7257974356287,-0.999999999999996,-9.9));
#1897=CARTESIAN_POINT('',(-13.7650461850474,-0.999999999999996,-9.9));
#1898=CARTESIAN_POINT('Origin',(-13.7249957378271,2.37223435339828E-14,
12.6));
#1899=CARTESIAN_POINT('Origin',(-13.7249957378271,2.37223435339828E-14,
12.6));
#1900=CARTESIAN_POINT('Origin',(-13.7249957378271,2.37223435339828E-14,
12.6));
#1901=CARTESIAN_POINT('',(-13.7249957378271,-0.499999999999977,12.6));
#1902=CARTESIAN_POINT('Origin',(-13.7249957378271,2.37223435339828E-14,
12.6));
#1903=CARTESIAN_POINT('',(-13.7249957378271,-0.499999999999977,12.6));
#1904=UNCERTAINTY_MEASURE_WITH_UNIT(LENGTH_MEASURE(0.01),#1908,
'DISTANCE_ACCURACY_VALUE',
'Maximum model space distance between geometric entities at asserted c
onnectivities');
#1905=UNCERTAINTY_MEASURE_WITH_UNIT(LENGTH_MEASURE(0.01),#1908,
'DISTANCE_ACCURACY_VALUE',
'Maximum model space distance between geometric entities at asserted c
onnectivities');
#1906=(
GEOMETRIC_REPRESENTATION_CONTEXT(3)
GLOBAL_UNCERTAINTY_ASSIGNED_CONTEXT((#1904))
GLOBAL_UNIT_ASSIGNED_CONTEXT((#1908,#1910,#1911))
REPRESENTATION_CONTEXT('','3D')
);
#1907=(
GEOMETRIC_REPRESENTATION_CONTEXT(3)
GLOBAL_UNCERTAINTY_ASSIGNED_CONTEXT((#1905))
GLOBAL_UNIT_ASSIGNED_CONTEXT((#1908,#1910,#1911))
REPRESENTATION_CONTEXT('','3D')
);
#1908=(
LENGTH_UNIT()
NAMED_UNIT(*)
SI_UNIT(.MILLI.,.METRE.)
);
#1909=(
LENGTH_UNIT()
NAMED_UNIT(*)
SI_UNIT($,.METRE.)
);
#1910=(
NAMED_UNIT(*)
PLANE_ANGLE_UNIT()
SI_UNIT($,.RADIAN.)
);
#1911=(
NAMED_UNIT(*)
SI_UNIT($,.STERADIAN.)
SOLID_ANGLE_UNIT()
);
#1912=SHAPE_DEFINITION_REPRESENTATION(#1913,#1914);
#1913=PRODUCT_DEFINITION_SHAPE('',$,#1916);
#1914=SHAPE_REPRESENTATION('',(#1152),#1906);
#1915=PRODUCT_DEFINITION_CONTEXT('part definition',#1920,'design');
#1916=PRODUCT_DEFINITION('2026-08-29-23-03-38-870','JGA25-370DC_Motor',
#1917,#1915);
#1917=PRODUCT_DEFINITION_FORMATION('',$,#1922);
#1918=PRODUCT_RELATED_PRODUCT_CATEGORY('JGA25-370DC_Motor',
'JGA25-370DC_Motor',(#1922));
#1919=APPLICATION_PROTOCOL_DEFINITION('international standard',
'automotive_design',2009,#1920);
#1920=APPLICATION_CONTEXT(
'Core Data for Automotive Mechanical Design Process');
#1921=PRODUCT_CONTEXT('part definition',#1920,'mechanical');
#1922=PRODUCT('2026-08-29-23-03-38-870','JGA25-370DC_Motor',$,(#1921));
#1923=PRESENTATION_STYLE_ASSIGNMENT((#1924));
#1924=SURFACE_STYLE_USAGE(.BOTH.,#1925);
#1925=SURFACE_SIDE_STYLE('',(#1926));
#1926=SURFACE_STYLE_FILL_AREA(#1927);
#1927=FILL_AREA_STYLE('Steel - Satin',(#1928));
#1928=FILL_AREA_STYLE_COLOUR('Steel - Satin',#1929);
#1929=COLOUR_RGB('Steel - Satin',0.627450980392157,0.627450980392157,0.627450980392157);
ENDSEC;
END-ISO-10303-21;
